{"glyphs":{"0":{"ha":732,"x_min":60,"x_max":671,"o":"m 357 -16 q 232 15 287 -16 q 139 107 177 46 q 80 258 100 168 q 60 466 60 348 q 142 857 60 725 q 378 989 224 989 q 671 490 671 989 q 650 273 671 367 q 588 114 629 178 q 490 17 548 50 q 357 -16 431 -16 m 372 913 q 207 803 264 913 q 150 473 150 693 q 204 164 150 269 q 366 58 259 58 q 459 86 418 58 q 526 166 499 113 q 567 298 553 220 q 581 479 581 377 q 372 913 581 913 z "},"1":{"ha":521,"x_min":56,"x_max":376,"o":"m 289 0 l 289 869 q 236 830 265 849 q 175 794 206 811 q 114 765 144 778 q 56 743 83 751 l 56 819 q 209 890 136 845 q 351 994 282 935 l 376 994 l 376 0 l 289 0 z "},"2":{"ha":732,"x_min":69,"x_max":645,"o":"m 536 723 q 523 805 536 769 q 484 864 509 840 q 423 901 458 888 q 345 913 388 913 q 220 882 280 913 q 107 800 160 851 l 107 896 q 220 964 159 940 q 357 989 281 989 q 381 987 370 989 q 403 983 392 986 q 494 958 453 978 q 564 906 535 938 q 609 830 593 874 q 625 733 625 787 q 609 621 625 671 q 563 530 593 572 q 490 451 532 488 q 395 377 448 414 q 295 303 337 335 q 226 241 254 271 q 184 183 199 212 q 166 118 170 154 q 162 99 163 109 q 161 78 161 90 l 645 78 l 645 0 l 69 0 l 69 47 q 84 160 69 112 q 132 249 100 208 q 216 332 165 291 q 338 425 267 374 q 423 493 386 460 q 486 561 460 526 q 524 635 511 596 q 536 723 536 675 z "},"3":{"ha":732,"x_min":83,"x_max":627,"o":"m 83 131 q 300 58 189 58 q 389 70 347 58 q 465 106 432 81 q 517 169 498 131 q 537 261 537 208 q 466 414 537 363 q 255 466 394 466 l 178 466 l 178 541 l 249 541 q 439 591 375 541 q 503 736 503 641 q 455 868 503 823 q 314 913 408 913 q 121 846 216 913 l 121 934 q 332 989 223 989 q 431 975 384 989 q 514 931 479 960 q 571 860 550 903 q 593 759 593 817 q 400 510 593 564 l 400 507 q 489 484 448 502 q 561 436 530 466 q 609 364 591 406 q 627 271 627 322 q 601 148 627 201 q 530 58 575 94 q 426 2 486 21 q 298 -17 366 -17 q 83 35 174 -17 l 83 131 z "},"4":{"ha":762,"x_min":34,"x_max":732,"o":"m 581 972 l 581 320 l 732 320 l 732 241 l 581 241 l 581 0 l 494 0 l 494 241 l 34 241 l 34 320 q 164 476 98 393 q 291 645 231 559 q 402 815 351 731 q 488 972 453 899 l 581 972 m 494 320 l 494 833 q 395 672 444 747 q 299 533 345 597 q 210 416 252 469 q 132 320 168 363 l 494 320 z "},"5":{"ha":732,"x_min":109,"x_max":633,"o":"m 109 117 q 302 58 205 58 q 403 75 358 58 q 479 121 448 91 q 528 193 511 151 q 545 286 545 235 q 479 449 545 393 q 285 505 413 505 q 137 497 233 505 l 167 972 l 591 972 l 591 894 l 241 894 l 220 578 q 314 583 279 583 q 451 563 391 583 q 551 505 510 543 q 612 414 591 468 q 633 293 633 361 q 611 167 633 224 q 546 69 589 110 q 441 6 503 28 q 299 -16 378 -16 q 109 22 179 -16 l 109 117 z "},"6":{"ha":732,"x_min":79,"x_max":675,"o":"m 675 309 q 653 178 675 237 q 592 75 631 118 q 497 7 552 32 q 378 -17 443 -17 q 252 13 307 -17 q 158 99 197 42 q 100 239 120 156 q 79 427 79 321 q 106 658 79 554 q 183 835 133 762 q 305 949 233 909 q 467 989 376 989 q 618 963 557 989 l 618 877 q 467 913 547 913 q 343 881 399 913 q 250 789 288 848 q 190 648 211 730 q 169 466 169 566 l 172 466 q 404 608 241 608 q 516 586 466 608 q 601 524 566 564 q 656 429 637 484 q 675 309 675 374 m 586 295 q 572 393 586 349 q 532 468 558 437 q 469 515 507 498 q 385 532 432 532 q 301 515 340 532 q 235 467 263 497 q 192 399 208 437 q 176 318 176 360 q 191 218 176 265 q 233 136 206 171 q 298 80 260 100 q 382 59 336 59 q 465 77 427 59 q 529 126 502 94 q 571 200 555 157 q 586 295 586 243 z "},"7":{"ha":701,"x_min":47,"x_max":654,"o":"m 654 936 q 557 758 602 842 q 476 595 513 673 q 409 444 439 517 q 356 298 379 371 q 315 152 332 226 q 286 0 298 78 l 194 0 q 243 217 210 106 q 323 441 277 328 q 426 669 369 555 q 547 894 484 783 l 47 894 l 47 972 l 654 972 l 654 936 z "},"8":{"ha":732,"x_min":66,"x_max":668,"o":"m 66 271 q 78 348 66 310 q 113 420 90 387 q 170 481 136 454 q 248 524 203 508 q 143 615 182 558 q 104 741 104 671 q 124 840 104 794 q 179 918 144 885 q 263 970 214 951 q 368 989 311 989 q 473 970 425 989 q 557 918 522 951 q 612 839 592 884 q 631 741 631 793 q 621 674 631 706 q 592 614 611 642 q 548 564 574 587 q 490 524 522 541 q 566 481 533 508 q 622 420 600 454 q 656 348 645 387 q 668 271 668 310 q 646 152 668 205 q 584 62 624 99 q 489 4 545 24 q 367 -16 434 -16 q 246 4 301 -16 q 151 62 191 24 q 89 152 111 99 q 66 271 66 205 m 159 273 q 174 185 159 224 q 217 119 189 146 q 282 76 244 91 q 367 61 320 61 q 451 76 412 61 q 516 119 489 92 q 559 185 544 146 q 575 273 575 224 q 560 354 575 315 q 518 421 545 392 q 453 466 491 450 q 367 483 414 483 q 284 467 322 483 q 218 424 246 452 q 175 357 191 396 q 159 273 159 319 m 193 735 q 207 665 193 698 q 244 609 220 633 q 300 571 268 585 q 368 557 332 557 q 435 571 404 557 q 491 609 467 585 q 529 666 515 633 q 543 735 543 699 q 529 806 543 773 q 492 862 515 838 q 436 900 469 886 q 368 913 404 913 q 297 900 329 913 q 241 861 264 886 q 206 804 218 837 q 193 735 193 772 z "},"9":{"ha":732,"x_min":66,"x_max":663,"o":"m 663 547 q 637 308 663 412 q 562 131 611 203 q 440 21 513 58 q 274 -17 368 -17 q 119 12 191 -17 l 119 100 q 276 59 198 59 q 496 173 419 59 q 574 506 574 288 l 571 506 q 343 365 506 365 q 231 387 282 365 q 144 449 180 410 q 87 544 107 489 q 66 666 66 600 q 89 797 66 738 q 152 899 112 857 q 248 965 193 942 q 370 989 304 989 q 493 960 438 989 q 585 876 547 932 q 643 737 623 820 q 663 547 663 654 m 566 646 q 550 754 566 705 q 508 839 535 804 q 443 893 481 873 q 360 913 405 913 q 279 895 316 913 q 214 847 241 878 q 172 773 187 816 q 156 680 156 730 q 171 581 156 625 q 213 506 186 536 q 278 459 240 475 q 363 443 317 443 q 442 459 405 443 q 506 503 479 475 q 550 567 534 530 q 566 646 566 604 z "},"\r":{"ha":0,"x_min":0,"x_max":0,"o":""}," ":{"ha":380,"x_min":0,"x_max":0,"o":""},"!":{"ha":395,"x_min":132,"x_max":262,"o":"m 233 273 l 158 273 l 149 972 l 243 972 l 233 273 m 197 -12 q 151 6 170 -12 q 132 52 132 25 q 151 99 132 80 q 197 117 170 117 q 222 113 210 117 q 242 99 233 108 q 257 78 252 90 q 262 52 262 66 q 257 27 262 39 q 242 6 252 15 q 222 -7 233 -3 q 197 -12 210 -12 z "},"\"":{"ha":505,"x_min":115,"x_max":390,"o":"m 390 669 l 312 669 l 312 972 l 390 972 l 390 669 m 193 669 l 115 669 l 115 972 l 193 972 l 193 669 z "},"#":{"ha":829,"x_min":31,"x_max":786,"o":"m 772 635 l 591 635 l 544 416 l 736 416 l 721 353 l 532 353 l 473 83 l 403 83 l 461 353 l 286 353 l 228 83 l 158 83 l 216 353 l 31 353 l 44 416 l 229 416 l 275 635 l 82 635 l 96 697 l 288 697 l 347 972 l 416 972 l 358 697 l 534 697 l 593 972 l 663 972 l 604 697 l 786 697 l 772 635 m 346 635 l 298 416 l 475 416 l 522 635 l 346 635 z "},"$":{"ha":732,"x_min":110,"x_max":634,"o":"m 401 -142 l 339 -142 l 339 0 q 111 56 204 0 l 111 150 q 161 119 134 133 q 218 96 188 106 q 279 81 248 86 q 339 76 310 76 l 339 452 q 257 499 298 475 q 183 553 216 522 q 130 624 151 583 q 110 722 110 665 q 127 815 110 772 q 174 890 144 858 q 247 944 205 923 q 339 972 289 965 l 339 1095 l 401 1095 l 401 975 q 505 963 460 973 q 581 937 550 953 l 581 848 q 401 898 510 896 l 401 513 q 512 448 467 479 q 584 386 557 417 q 623 320 611 354 q 634 246 634 286 q 618 158 634 199 q 572 86 602 117 q 499 33 543 54 q 401 4 456 12 l 401 -142 m 339 895 q 237 840 275 883 q 199 733 199 798 q 206 679 199 703 q 228 633 212 655 q 271 591 244 612 q 339 547 298 570 l 339 895 m 401 79 q 509 133 473 93 q 545 235 545 174 q 537 286 545 262 q 512 332 529 310 q 468 375 495 354 q 401 418 440 396 l 401 79 z "},"%":{"ha":1113,"x_min":56,"x_max":1063,"o":"m 278 490 q 185 507 227 490 q 115 557 144 525 q 71 634 86 589 q 56 734 56 679 q 73 842 56 794 q 120 922 90 889 q 193 972 151 955 q 288 989 236 989 q 380 972 339 989 q 449 924 420 956 q 493 846 477 892 q 508 742 508 800 q 491 641 508 687 q 445 561 475 595 q 373 509 415 528 q 278 490 330 490 m 286 924 q 221 911 250 924 q 173 874 193 899 q 142 815 153 850 q 132 736 132 781 q 171 603 132 652 q 282 554 211 554 q 346 567 318 554 q 393 605 374 581 q 422 664 412 629 q 432 741 432 699 q 393 877 432 830 q 286 924 353 924 m 292 -14 l 210 -14 l 814 972 l 896 972 l 292 -14 m 833 -16 q 741 2 783 -16 q 671 52 700 20 q 627 129 642 83 q 611 229 611 174 q 628 336 611 288 q 675 416 645 383 q 749 467 706 450 q 844 485 792 485 q 935 468 895 485 q 1004 419 976 451 q 1048 341 1033 387 q 1063 236 1063 294 q 1047 135 1063 181 q 1000 55 1030 89 q 928 3 970 22 q 833 -16 886 -16 m 841 418 q 777 406 806 418 q 729 369 749 393 q 698 310 709 345 q 687 231 687 275 q 697 155 687 189 q 727 97 708 121 q 774 61 747 74 q 838 49 802 49 q 901 62 873 49 q 948 99 928 75 q 978 158 967 123 q 988 236 988 193 q 949 372 988 326 q 841 418 909 418 z "},"&":{"ha":974,"x_min":88,"x_max":959,"o":"m 833 0 l 715 117 q 393 -17 581 -17 q 266 2 323 -17 q 170 57 210 22 q 109 140 130 92 q 88 245 88 188 q 311 531 88 424 q 204 762 204 663 q 222 852 204 810 q 274 924 241 893 q 352 971 307 954 q 452 989 397 989 q 543 974 502 989 q 612 932 583 959 q 656 869 640 906 q 671 789 671 833 q 659 706 671 743 q 620 635 647 668 q 550 573 593 602 q 445 515 507 544 q 575 382 506 450 q 722 237 644 313 q 755 297 740 264 q 781 366 770 330 q 798 440 792 402 q 806 514 804 477 l 889 514 q 774 180 886 330 q 857 100 811 144 q 959 -1 902 56 l 833 0 m 393 568 q 480 616 444 592 q 540 666 517 640 q 574 720 563 692 q 585 781 585 749 q 574 835 585 810 q 545 878 564 860 q 503 906 527 896 q 450 916 478 916 q 385 904 414 916 q 335 872 355 892 q 303 823 315 851 q 292 761 292 794 q 393 568 292 681 m 663 172 q 508 326 582 251 q 365 475 435 401 q 222 375 267 429 q 178 250 178 321 q 194 172 178 207 q 238 112 210 136 q 307 73 267 87 q 396 59 347 59 q 663 172 549 59 z "},"'":{"ha":308,"x_min":115,"x_max":193,"o":"m 193 669 l 115 669 l 115 972 l 193 972 l 193 669 z "},"(":{"ha":406,"x_min":98,"x_max":391,"o":"m 306 -221 q 98 370 98 19 q 307 972 98 730 l 391 972 q 178 372 178 722 q 389 -221 178 33 l 306 -221 z "},")":{"ha":406,"x_min":15,"x_max":307,"o":"m 17 -221 q 227 372 227 33 q 15 972 227 722 l 98 972 q 307 370 307 730 q 100 -221 307 19 l 17 -221 z "},"*":{"ha":571,"x_min":50,"x_max":522,"o":"m 330 711 l 463 538 l 399 496 l 288 680 l 174 496 l 111 538 l 243 711 l 50 756 l 72 827 l 260 760 l 247 972 l 326 972 l 313 760 l 499 827 l 522 756 l 330 711 z "},"+":{"ha":926,"x_min":150,"x_max":777,"o":"m 500 368 l 500 92 l 427 92 l 427 368 l 150 368 l 150 441 l 427 441 l 427 718 l 500 718 l 500 441 l 777 441 l 777 368 l 500 368 z "},",":{"ha":304,"x_min":29,"x_max":208,"o":"m 95 -174 l 29 -174 l 119 154 l 208 154 l 95 -174 z "},"-":{"ha":554,"x_min":98,"x_max":469,"o":"m 98 359 l 98 434 l 469 434 l 469 359 l 98 359 z "},".":{"ha":304,"x_min":87,"x_max":218,"o":"m 152 -14 q 106 5 125 -14 q 87 52 87 24 q 105 98 87 79 q 152 117 124 117 q 177 112 165 117 q 198 99 189 107 q 212 78 207 90 q 218 52 218 66 q 212 26 218 38 q 198 5 207 14 q 177 -8 189 -3 q 152 -14 165 -14 z "},"/":{"ha":525,"x_min":-20,"x_max":535,"o":"m 63 -161 l -20 -161 l 450 972 l 535 972 l 63 -161 z "},":":{"ha":304,"x_min":87,"x_max":218,"o":"m 152 578 q 126 583 138 578 q 106 597 115 588 q 92 618 97 606 q 87 644 87 630 q 106 689 87 671 q 152 708 125 708 q 177 703 165 708 q 198 690 189 699 q 212 670 207 682 q 218 644 218 658 q 212 617 218 629 q 198 597 207 606 q 177 583 189 588 q 152 578 165 578 m 152 -14 q 106 5 125 -14 q 87 52 87 24 q 105 98 87 79 q 152 117 124 117 q 177 112 165 117 q 198 99 189 107 q 212 78 207 90 q 218 52 218 66 q 212 26 218 38 q 198 5 207 14 q 177 -8 189 -3 q 152 -14 165 -14 z "},";":{"ha":304,"x_min":29,"x_max":222,"o":"m 157 578 q 110 597 128 578 q 92 644 92 616 q 110 690 92 671 q 157 708 129 708 q 203 689 184 708 q 222 644 222 671 q 216 617 222 629 q 202 597 211 606 q 181 583 193 588 q 157 578 170 578 m 95 -174 l 29 -174 l 119 154 l 208 154 l 95 -174 z "},"<":{"ha":926,"x_min":176,"x_max":750,"o":"m 176 386 l 176 412 l 750 734 l 750 651 l 303 402 l 303 399 l 750 180 l 750 96 l 176 386 z "},"=":{"ha":926,"x_min":150,"x_max":777,"o":"m 150 507 l 150 580 l 777 580 l 777 507 l 150 507 m 150 231 l 150 304 l 777 304 l 777 231 l 150 231 z "},">":{"ha":926,"x_min":176,"x_max":750,"o":"m 176 96 l 176 180 l 625 399 l 625 402 l 176 651 l 176 734 l 750 412 l 750 386 l 176 96 z "},"?":{"ha":610,"x_min":85,"x_max":545,"o":"m 241 270 q 230 315 235 288 q 225 370 225 342 q 236 433 225 405 q 264 486 247 461 q 306 534 282 511 q 354 581 329 557 q 393 620 374 600 q 426 662 412 640 q 449 710 440 684 q 458 764 458 735 q 445 827 458 800 q 411 872 433 854 q 358 901 389 891 q 294 911 328 911 q 181 889 233 911 q 85 824 130 867 l 85 920 q 188 972 135 955 q 302 989 241 989 q 397 975 353 989 q 474 934 441 961 q 526 867 507 907 q 545 775 545 827 q 534 705 545 737 q 506 646 524 673 q 467 595 489 619 q 422 550 446 572 q 371 500 393 522 q 334 458 349 478 q 312 416 319 437 q 304 370 304 395 q 310 313 304 338 q 323 270 317 288 l 241 270 m 283 -12 q 259 -7 271 -12 q 239 6 248 -3 q 224 27 230 15 q 219 52 219 39 q 224 78 219 66 q 238 99 229 90 q 259 112 247 107 q 283 117 271 117 q 308 113 296 117 q 329 99 320 108 q 344 78 338 90 q 349 52 349 66 q 344 27 349 39 q 329 6 338 15 q 308 -7 320 -3 q 283 -12 296 -12 z "},"@":{"ha":1318,"x_min":115,"x_max":1205,"o":"m 783 287 q 586 125 727 125 q 496 145 535 125 q 432 199 458 165 q 393 279 406 233 q 380 377 380 326 q 387 460 380 418 q 410 543 395 503 q 448 617 425 583 q 502 679 471 652 q 573 720 533 705 q 663 734 614 734 q 706 729 684 734 q 747 712 728 723 q 781 684 766 701 q 804 646 795 667 l 806 646 l 813 725 l 885 725 l 852 336 q 944 193 852 193 q 1005 206 979 193 q 1052 243 1032 220 q 1086 296 1072 266 q 1109 359 1101 326 q 1122 425 1118 391 q 1126 487 1126 458 q 1093 667 1126 587 q 1000 803 1060 747 q 856 890 940 860 q 670 920 772 920 q 536 903 599 920 q 420 853 473 885 q 326 775 368 821 q 254 674 283 730 q 210 553 225 618 q 194 416 194 488 q 227 223 194 311 q 322 72 260 135 q 471 -25 384 9 q 667 -60 558 -60 q 954 -2 835 -60 l 954 -76 q 660 -127 830 -127 q 438 -87 538 -127 q 266 24 338 -47 q 155 196 195 96 q 115 414 115 296 q 134 566 115 493 q 186 703 152 639 q 270 819 220 766 q 381 909 319 871 q 518 967 444 946 q 676 987 592 987 q 817 971 749 987 q 944 925 885 955 q 1050 851 1002 895 q 1133 752 1099 807 q 1186 632 1168 697 q 1205 493 1205 567 q 1199 411 1205 454 q 1179 328 1192 369 q 1144 250 1165 287 q 1094 186 1123 214 q 1026 142 1065 158 q 941 125 988 125 q 785 287 791 125 l 783 287 m 661 667 q 568 641 606 667 q 506 573 530 615 q 471 480 481 532 q 460 379 460 429 q 469 302 460 336 q 497 243 479 267 q 540 206 515 219 q 597 193 566 193 q 664 209 635 193 q 714 249 693 224 q 750 307 736 274 q 773 375 764 340 q 786 447 782 411 q 789 514 789 483 q 756 629 789 590 q 661 667 723 667 z "},"A":{"ha":884,"x_min":27,"x_max":857,"o":"m 756 0 l 649 288 l 232 288 l 127 0 l 27 0 l 397 972 l 488 972 l 857 0 l 756 0 m 460 802 q 450 832 455 815 q 441 871 445 849 l 439 871 q 430 832 435 849 q 420 802 425 815 l 262 370 l 618 370 l 460 802 z "},"B":{"ha":776,"x_min":126,"x_max":702,"o":"m 126 0 l 126 972 l 392 972 q 501 956 452 972 q 584 910 549 940 q 636 840 618 881 q 654 749 654 798 q 643 670 654 707 q 610 603 631 633 q 556 551 588 573 q 485 516 525 529 l 485 513 q 574 490 534 509 q 642 440 614 471 q 686 369 671 410 q 702 279 702 328 q 680 166 702 217 q 617 78 657 115 q 521 20 576 41 q 398 0 465 0 l 126 0 m 216 890 l 216 545 l 342 545 q 432 557 392 545 q 500 595 472 570 q 544 654 529 619 q 559 732 559 688 q 363 890 559 890 l 216 890 m 216 463 l 216 82 l 384 82 q 550 133 492 82 q 608 276 608 183 q 353 463 608 463 l 216 463 z "},"C":{"ha":861,"x_min":68,"x_max":780,"o":"m 780 36 q 523 -17 667 -17 q 336 19 420 -17 q 192 120 252 56 q 101 273 133 184 q 68 467 68 362 q 103 673 68 578 q 201 839 137 768 q 355 949 264 909 q 558 989 446 989 q 780 951 682 989 l 780 854 q 557 907 675 907 q 389 874 463 907 q 266 784 316 842 q 189 647 216 726 q 163 474 163 568 q 186 316 163 390 q 257 186 210 241 q 372 98 303 130 q 533 65 441 65 q 780 124 673 65 l 780 36 z "},"D":{"ha":955,"x_min":126,"x_max":886,"o":"m 126 0 l 126 972 l 382 972 q 759 853 631 972 q 886 499 886 733 q 851 294 886 387 q 748 137 815 202 q 585 36 681 71 q 370 0 490 0 l 126 0 m 216 890 l 216 82 l 366 82 q 545 109 466 82 q 679 189 624 136 q 763 319 734 241 q 791 496 791 396 q 376 890 791 890 l 216 890 z "},"E":{"ha":699,"x_min":126,"x_max":622,"o":"m 126 0 l 126 972 l 600 972 l 600 890 l 216 890 l 216 533 l 572 533 l 572 452 l 216 452 l 216 82 l 622 82 l 622 0 l 126 0 z "},"F":{"ha":662,"x_min":126,"x_max":600,"o":"m 216 890 l 216 524 l 572 524 l 572 441 l 216 441 l 216 0 l 126 0 l 126 972 l 600 972 l 600 890 l 216 890 z "},"G":{"ha":940,"x_min":68,"x_max":841,"o":"m 841 67 q 524 -17 691 -17 q 334 19 418 -17 q 191 120 250 56 q 100 275 132 185 q 68 473 68 365 q 84 610 68 544 q 129 733 99 675 q 201 838 158 791 q 299 918 243 884 q 420 970 354 952 q 564 989 487 989 q 821 937 708 989 l 821 838 q 553 907 696 907 q 392 874 464 907 q 270 785 320 842 q 191 650 219 728 q 163 481 163 572 q 186 315 162 391 q 258 183 210 239 q 375 96 305 127 q 536 65 445 65 q 751 117 660 65 l 751 413 l 530 413 l 530 495 l 841 495 l 841 67 z "},"H":{"ha":963,"x_min":126,"x_max":837,"o":"m 747 0 l 747 455 l 216 455 l 216 0 l 126 0 l 126 972 l 216 972 l 216 536 l 747 536 l 747 972 l 837 972 l 837 0 l 747 0 z "},"I":{"ha":343,"x_min":126,"x_max":216,"o":"m 216 0 l 126 0 l 126 972 l 216 972 l 216 0 z "},"J":{"ha":473,"x_min":13,"x_max":353,"o":"m 353 342 q 286 72 353 160 q 96 -16 219 -16 q 52 -13 73 -16 q 13 -3 31 -10 l 13 85 q 98 65 51 65 q 223 133 184 65 q 263 342 263 201 l 263 972 l 353 972 l 353 342 z "},"K":{"ha":768,"x_min":126,"x_max":762,"o":"m 635 0 l 240 455 q 219 483 224 475 l 216 483 l 216 0 l 126 0 l 126 972 l 216 972 l 216 515 l 219 515 q 229 529 224 522 q 241 543 235 536 l 619 972 l 734 972 l 312 503 l 762 0 l 635 0 z "},"L":{"ha":645,"x_min":126,"x_max":607,"o":"m 126 0 l 126 972 l 216 972 l 216 82 l 607 82 l 607 0 l 126 0 z "},"M":{"ha":1202,"x_min":126,"x_max":1076,"o":"m 987 0 l 987 671 q 995 838 987 723 l 992 838 q 975 785 983 807 q 960 748 967 762 l 621 0 l 583 0 l 243 743 q 212 839 228 777 l 210 839 q 213 768 212 808 q 214 679 214 728 l 214 0 l 126 0 l 126 972 l 233 972 l 563 241 q 583 194 573 218 q 601 143 593 170 l 605 143 q 622 193 614 170 q 642 241 630 215 l 975 972 l 1076 972 l 1076 0 l 987 0 z "},"N":{"ha":1012,"x_min":126,"x_max":886,"o":"m 792 0 l 252 781 q 232 811 242 795 q 216 842 222 827 l 213 842 q 215 808 214 829 q 216 753 216 786 l 216 0 l 126 0 l 126 972 l 226 972 l 757 201 q 779 167 769 183 q 797 138 789 151 l 800 138 q 796 188 798 160 q 795 250 795 216 l 795 972 l 886 972 l 886 0 l 792 0 z "},"O":{"ha":1052,"x_min":68,"x_max":983,"o":"m 522 -17 q 333 21 417 -17 q 190 126 249 60 q 100 282 132 193 q 68 475 68 372 q 100 684 68 589 q 192 846 132 779 q 340 951 252 913 q 539 989 427 989 q 724 952 642 989 q 864 849 806 915 q 952 694 922 784 q 983 500 983 605 q 953 295 983 389 q 864 131 923 200 q 720 22 806 62 q 522 -17 634 -17 m 530 907 q 373 873 441 907 q 258 782 305 840 q 188 648 212 725 q 163 484 163 571 q 184 326 162 401 q 251 192 206 250 q 363 100 295 134 q 522 65 431 65 q 681 97 612 65 q 796 184 750 128 q 866 317 842 240 q 889 486 889 395 q 868 648 889 572 q 804 782 848 725 q 692 873 760 840 q 530 907 625 907 z "},"P":{"ha":766,"x_min":126,"x_max":695,"o":"m 216 378 l 216 0 l 126 0 l 126 972 l 377 972 q 513 954 454 972 q 612 899 572 935 q 674 810 653 863 q 695 691 695 758 q 671 566 695 623 q 603 467 648 509 q 495 402 559 425 q 351 378 431 378 l 216 378 m 216 890 l 216 461 l 345 461 q 536 519 471 461 q 601 684 601 578 q 361 890 601 890 l 216 890 z "},"Q":{"ha":1052,"x_min":68,"x_max":1042,"o":"m 522 -16 q 335 20 419 -16 q 192 120 252 56 q 101 276 133 185 q 68 475 68 366 q 101 687 68 593 q 195 849 134 782 q 343 952 256 916 q 539 989 431 989 q 720 953 638 989 q 860 853 802 918 q 951 698 919 788 q 983 500 983 608 q 928 228 983 342 q 774 52 873 114 l 1042 -131 l 878 -131 l 683 9 q 606 -10 646 -3 q 522 -16 566 -16 m 530 907 q 381 876 449 907 q 266 789 314 845 q 190 656 217 734 q 163 484 163 578 q 189 312 163 389 q 261 180 214 235 q 374 95 308 125 q 522 65 440 65 q 674 94 606 65 q 790 176 742 122 q 863 309 838 231 q 889 486 889 387 q 864 664 889 586 q 792 796 839 742 q 679 878 745 850 q 530 907 612 907 z "},"R":{"ha":801,"x_min":126,"x_max":762,"o":"m 656 0 l 509 279 q 467 348 488 320 q 425 392 447 376 q 379 416 404 409 q 323 423 354 423 l 216 423 l 216 0 l 126 0 l 126 972 l 406 972 q 512 956 461 972 q 604 908 564 940 q 668 828 644 876 q 692 716 692 780 q 676 621 692 665 q 632 544 661 578 q 562 487 603 511 q 469 452 521 464 l 469 450 q 505 429 489 441 q 537 397 522 416 q 567 355 552 379 q 598 301 582 332 l 762 0 l 656 0 m 216 890 l 216 505 l 378 505 q 467 519 427 505 q 537 560 508 534 q 582 624 566 587 q 597 708 597 661 q 543 841 597 793 q 385 890 488 890 l 216 890 z "},"S":{"ha":714,"x_min":88,"x_max":639,"o":"m 88 142 q 142 110 113 124 q 202 85 172 95 q 264 70 233 75 q 324 65 296 65 q 490 108 435 65 q 545 231 545 151 q 532 298 545 269 q 492 352 519 327 q 423 402 465 377 q 326 458 382 427 q 219 522 263 492 q 146 584 174 552 q 105 652 118 615 q 92 735 92 688 q 117 841 92 794 q 184 921 142 888 q 284 971 227 954 q 407 989 342 989 q 599 957 522 989 l 599 857 q 397 907 513 907 q 315 896 353 907 q 248 865 277 886 q 202 815 219 845 q 186 745 186 785 q 197 679 186 707 q 233 627 208 652 q 298 579 258 603 q 397 524 338 555 q 503 460 458 491 q 579 396 549 429 q 624 325 609 362 q 639 241 639 287 q 615 129 639 177 q 549 48 591 80 q 447 0 506 16 q 317 -16 388 -16 q 262 -13 294 -16 q 198 -2 231 -9 q 136 15 165 5 q 88 37 106 25 l 88 142 z "},"T":{"ha":719,"x_min":34,"x_max":685,"o":"m 404 890 l 404 0 l 314 0 l 314 890 l 34 890 l 34 972 l 685 972 l 685 890 l 404 890 z "},"U":{"ha":927,"x_min":114,"x_max":813,"o":"m 813 391 q 455 -17 813 -17 q 114 376 114 -17 l 114 972 l 204 972 l 204 384 q 269 144 204 224 q 468 65 333 65 q 723 374 723 65 l 723 972 l 813 972 l 813 391 z "},"V":{"ha":850,"x_min":20,"x_max":831,"o":"m 462 0 l 374 0 l 20 972 l 121 972 l 396 195 q 409 152 404 174 q 418 106 415 130 l 421 106 q 431 148 425 125 q 446 197 437 170 l 733 972 l 831 972 l 462 0 z "},"W":{"ha":1270,"x_min":26,"x_max":1244,"o":"m 964 0 l 870 0 l 662 721 q 650 770 654 747 q 645 817 646 794 l 642 817 q 623 722 640 777 l 407 0 l 313 0 l 26 972 l 126 972 l 340 210 q 352 162 348 184 q 359 118 357 139 l 362 118 q 385 210 366 149 l 612 972 l 684 972 l 897 207 q 908 162 903 184 q 916 119 913 140 l 918 119 q 924 149 920 132 q 933 187 928 166 l 1146 972 l 1244 972 l 964 0 z "},"X":{"ha":800,"x_min":29,"x_max":766,"o":"m 656 0 l 432 372 q 416 400 425 385 q 403 429 408 415 l 399 429 q 386 401 393 416 q 369 372 378 387 l 140 0 l 29 0 l 346 490 l 52 972 l 161 972 l 370 618 q 388 586 379 603 q 405 552 396 570 l 408 552 q 426 589 417 572 q 444 620 435 606 l 656 972 l 760 972 l 462 491 l 766 0 l 656 0 z "},"Y":{"ha":759,"x_min":23,"x_max":736,"o":"m 418 364 l 418 0 l 328 0 l 328 362 l 23 972 l 125 972 l 348 518 q 359 494 352 510 q 375 452 366 477 l 377 452 q 389 481 381 465 q 407 517 396 497 l 640 972 l 736 972 l 418 364 z "},"Z":{"ha":791,"x_min":33,"x_max":749,"o":"m 169 82 l 738 82 l 738 0 l 33 0 l 33 26 l 610 890 l 79 890 l 79 972 l 749 972 l 749 949 l 169 82 z "},"[":{"ha":406,"x_min":138,"x_max":371,"o":"m 138 -221 l 138 972 l 371 972 l 371 903 l 219 903 l 219 -152 l 371 -152 l 371 -221 l 138 -221 z "},"\\":{"ha":517,"x_min":-18,"x_max":528,"o":"m 446 -162 l -18 972 l 66 972 l 528 -162 l 446 -162 z "},"]":{"ha":406,"x_min":35,"x_max":267,"o":"m 35 -221 l 35 -152 l 186 -152 l 186 903 l 35 903 l 35 972 l 267 972 l 267 -221 l 35 -221 z "},"^":{"ha":926,"x_min":166,"x_max":761,"o":"m 677 450 l 461 867 l 458 867 l 248 450 l 166 450 l 439 989 l 475 989 l 761 450 l 677 450 z "},"_":{"ha":576,"x_min":0,"x_max":576,"o":"m 0 -191 l 0 -121 l 576 -121 l 576 -191 l 0 -191 z "},"`":{"ha":358,"x_min":54,"x_max":300,"o":"m 227 816 l 54 1038 l 146 1038 l 300 816 l 227 816 z "},"a":{"ha":696,"x_min":66,"x_max":599,"o":"m 512 0 l 512 123 l 509 123 q 417 20 475 57 q 284 -16 358 -16 q 194 -2 234 -16 q 125 38 153 12 q 82 101 97 64 q 66 182 66 138 q 125 332 66 276 q 301 405 183 388 l 512 435 q 357 635 512 635 q 132 547 235 635 l 132 642 q 181 670 153 657 q 239 691 208 682 q 301 706 269 701 q 364 711 334 711 q 539 646 480 711 q 599 452 599 581 l 599 0 l 512 0 m 333 337 q 253 320 286 330 q 198 293 220 310 q 166 250 176 275 q 156 187 156 224 q 166 136 156 159 q 194 95 176 112 q 240 68 213 77 q 300 58 267 58 q 385 76 347 58 q 452 125 424 94 q 496 199 480 156 q 512 294 512 243 l 512 362 l 333 337 z "},"b":{"ha":797,"x_min":112,"x_max":734,"o":"m 199 112 l 199 0 l 112 0 l 112 1028 l 199 1028 l 199 562 l 201 562 q 305 672 240 634 q 451 711 370 711 q 570 687 517 711 q 659 618 623 663 q 714 510 695 573 q 734 370 734 447 q 712 213 734 283 q 649 91 690 142 q 550 12 608 40 q 420 -16 492 -16 q 201 112 273 -16 l 199 112 m 199 289 q 215 200 199 241 q 259 126 231 158 q 328 77 288 95 q 417 58 368 58 q 511 80 469 58 q 583 143 553 102 q 628 241 612 184 q 644 370 644 299 q 629 480 644 431 q 587 564 614 530 q 520 617 559 599 q 433 635 481 635 q 336 615 379 635 q 262 561 292 595 q 215 480 231 526 q 199 381 199 433 l 199 289 z "},"c":{"ha":629,"x_min":64,"x_max":576,"o":"m 574 31 q 387 -17 496 -16 q 252 9 312 -18 q 151 82 193 35 q 86 194 109 130 q 64 333 64 258 q 87 480 64 411 q 157 600 111 549 q 268 681 202 651 q 418 711 334 711 q 576 677 505 711 l 576 585 q 412 635 500 635 q 302 612 350 635 q 221 548 254 589 q 171 454 188 508 q 153 340 153 400 q 168 233 153 284 q 213 143 182 182 q 289 81 243 104 q 397 58 335 58 q 574 117 495 58 l 574 31 z "},"d":{"ha":798,"x_min":63,"x_max":686,"o":"m 599 0 l 599 122 l 596 122 q 497 20 562 56 q 352 -16 433 -16 q 234 8 287 -16 q 142 77 180 32 q 84 187 104 123 q 63 333 63 252 q 86 487 63 417 q 150 606 109 556 q 251 683 192 656 q 381 711 309 711 q 596 591 531 711 l 599 591 l 599 1028 l 686 1028 l 686 0 l 599 0 m 599 419 q 583 504 599 465 q 540 572 568 543 q 473 618 512 602 q 387 635 434 635 q 292 615 336 635 q 218 556 249 595 q 170 463 187 518 q 153 338 153 408 q 168 220 153 273 q 213 132 184 168 q 281 77 241 96 q 370 58 321 58 q 466 77 423 58 q 537 130 508 96 q 583 208 567 163 q 599 303 599 252 l 599 419 z "},"e":{"ha":713,"x_min":63,"x_max":655,"o":"m 153 332 q 170 217 154 268 q 217 131 186 166 q 291 77 248 96 q 390 58 335 58 q 612 140 507 58 l 612 55 q 370 -16 512 -16 q 243 8 300 -16 q 146 79 186 33 q 85 193 106 125 q 63 348 63 261 q 87 492 63 426 q 153 607 111 559 q 252 683 195 656 q 378 711 310 711 q 497 687 446 711 q 584 621 549 664 q 637 515 618 577 q 655 375 655 452 l 655 332 l 153 332 m 566 408 q 514 576 564 516 q 376 635 465 635 q 295 620 332 635 q 229 575 257 604 q 181 503 200 545 q 155 408 163 460 l 566 408 z "},"f":{"ha":409,"x_min":30,"x_max":435,"o":"m 435 946 q 360 965 406 965 q 238 806 238 965 l 238 694 l 411 694 l 411 618 l 238 618 l 238 0 l 151 0 l 151 618 l 30 618 l 30 694 l 151 694 l 151 811 q 164 906 151 863 q 203 978 178 948 q 268 1025 229 1008 q 358 1041 307 1041 q 435 1028 407 1041 l 435 946 z "},"g":{"ha":798,"x_min":63,"x_max":686,"o":"m 686 54 q 598 -233 686 -140 q 327 -326 510 -326 q 111 -275 213 -326 l 111 -187 q 327 -250 224 -250 q 599 37 599 -250 l 599 121 l 596 121 q 352 -16 516 -16 q 234 7 288 -16 q 143 76 181 31 q 84 185 105 121 q 63 330 63 249 q 85 485 63 415 q 149 606 108 555 q 249 683 191 656 q 381 711 308 711 q 596 591 528 711 l 599 591 l 599 694 l 686 694 l 686 54 m 599 422 q 583 504 599 465 q 540 572 568 543 q 474 618 512 601 q 389 635 435 635 q 291 614 335 635 q 217 555 248 593 q 169 461 186 516 q 153 336 153 406 q 168 221 153 273 q 212 134 184 170 q 281 78 241 98 q 371 58 321 58 q 465 77 422 58 q 536 129 507 96 q 583 206 566 161 q 599 302 599 250 l 599 422 z "},"h":{"ha":764,"x_min":112,"x_max":667,"o":"m 581 0 l 581 408 q 538 580 581 525 q 408 635 496 635 q 328 618 366 635 q 261 570 290 602 q 216 492 233 538 q 199 389 199 446 l 199 0 l 112 0 l 112 1028 l 199 1028 l 199 574 l 201 574 q 435 711 283 711 q 609 640 551 711 q 667 429 667 568 l 667 0 l 581 0 z "},"i":{"ha":311,"x_min":93,"x_max":218,"o":"m 155 870 q 111 888 130 870 q 93 932 93 905 q 111 976 93 959 q 155 994 130 994 q 179 989 168 994 q 199 977 191 985 q 213 957 208 968 q 218 932 218 946 q 213 908 218 920 q 199 888 208 897 q 179 875 191 880 q 155 870 168 870 m 112 0 l 112 694 l 199 694 l 199 0 l 112 0 z "},"j":{"ha":311,"x_min":-153,"x_max":218,"o":"m 199 24 q 138 -237 199 -148 q -57 -327 77 -327 q -153 -304 -104 -327 l -153 -220 q -52 -251 -100 -251 q 112 9 112 -251 l 112 694 l 199 694 l 199 24 m 155 870 q 111 888 130 870 q 93 932 93 905 q 111 976 93 959 q 155 994 130 994 q 179 989 168 994 q 199 977 191 985 q 213 957 208 968 q 218 932 218 946 q 213 908 218 920 q 199 888 208 897 q 179 875 191 880 q 155 870 168 870 z "},"k":{"ha":653,"x_min":112,"x_max":644,"o":"m 521 0 l 201 338 l 199 338 l 199 0 l 112 0 l 112 1028 l 199 1028 l 199 371 l 201 371 l 505 694 l 618 694 l 292 359 l 644 0 l 521 0 z "},"l":{"ha":311,"x_min":112,"x_max":199,"o":"m 112 0 l 112 1028 l 199 1028 l 199 0 l 112 0 z "},"m":{"ha":1168,"x_min":112,"x_max":1072,"o":"m 985 0 l 985 408 q 975 514 985 471 q 946 584 966 557 q 895 623 926 611 q 821 635 864 635 q 749 617 783 635 q 690 568 715 600 q 650 494 665 536 q 635 401 635 451 l 635 0 l 549 0 l 549 417 q 381 635 549 635 q 309 618 342 635 q 251 570 276 601 q 213 495 227 538 q 199 398 199 451 l 199 0 l 112 0 l 112 694 l 199 694 l 199 582 l 201 582 q 415 711 275 711 q 484 700 452 711 q 543 668 517 688 q 587 621 568 648 q 615 559 606 593 q 710 672 652 633 q 843 711 769 711 q 1072 429 1072 711 l 1072 0 l 985 0 z "},"n":{"ha":764,"x_min":112,"x_max":667,"o":"m 581 0 l 581 400 q 410 635 581 635 q 326 617 364 635 q 259 568 287 600 q 215 492 231 536 q 199 397 199 448 l 199 0 l 112 0 l 112 694 l 199 694 l 199 574 l 201 574 q 434 711 279 711 q 608 637 548 711 q 667 423 667 563 l 667 0 l 581 0 z "},"o":{"ha":796,"x_min":63,"x_max":733,"o":"m 396 -16 q 257 9 319 -16 q 153 82 196 35 q 86 195 109 130 q 63 341 63 261 q 87 496 63 428 q 157 613 112 565 q 266 686 202 661 q 408 711 330 711 q 544 686 484 711 q 646 614 604 661 q 711 500 688 568 q 733 348 733 433 q 710 200 733 267 q 643 85 686 133 q 537 10 600 37 q 396 -16 475 -16 m 403 635 q 300 616 346 635 q 221 558 254 596 q 170 466 188 521 q 153 342 153 412 q 170 225 153 277 q 220 136 188 173 q 298 78 252 98 q 401 58 345 58 q 505 78 460 58 q 581 134 549 97 q 628 224 612 171 q 644 347 644 278 q 581 561 644 487 q 403 635 519 635 z "},"p":{"ha":797,"x_min":112,"x_max":734,"o":"m 199 112 l 199 -319 l 112 -319 l 112 694 l 199 694 l 199 562 l 201 562 q 305 672 240 634 q 451 711 370 711 q 570 687 517 711 q 659 618 623 663 q 714 511 695 574 q 734 370 734 448 q 712 213 734 283 q 650 91 690 142 q 551 12 609 40 q 420 -16 493 -16 q 201 112 274 -16 l 199 112 m 199 289 q 215 200 199 241 q 259 126 231 158 q 328 77 288 95 q 417 58 368 58 q 511 80 469 58 q 583 143 553 102 q 628 241 612 184 q 644 370 644 299 q 629 480 644 431 q 587 564 614 530 q 520 617 559 599 q 433 635 481 635 q 336 615 379 635 q 262 561 292 595 q 215 480 231 526 q 199 381 199 433 l 199 289 z "},"q":{"ha":798,"x_min":63,"x_max":686,"o":"m 599 -319 l 599 123 l 596 123 q 352 -16 522 -16 q 233 8 286 -16 q 141 78 179 33 q 83 188 104 123 q 63 334 63 253 q 86 490 63 420 q 152 609 110 559 q 253 684 194 658 q 382 711 311 711 q 596 590 531 711 l 599 590 l 599 694 l 686 694 l 686 -319 l 599 -319 m 599 415 q 584 502 599 462 q 541 572 568 543 q 473 618 513 602 q 386 635 434 635 q 292 615 334 635 q 218 557 249 595 q 170 464 187 519 q 153 336 153 408 q 168 220 153 271 q 212 132 184 168 q 280 77 241 96 q 367 58 319 58 q 466 78 422 58 q 538 130 509 97 q 583 208 568 163 q 599 304 599 253 l 599 415 z "},"r":{"ha":471,"x_min":112,"x_max":456,"o":"m 456 606 q 378 628 426 628 q 317 615 343 628 q 270 579 290 602 q 236 527 250 557 q 214 466 222 498 q 202 401 205 434 q 198 340 198 369 l 198 0 l 112 0 l 112 694 l 198 694 l 198 546 l 201 546 q 232 614 213 584 q 275 665 250 644 q 328 696 299 686 q 389 707 357 707 q 426 705 410 707 q 456 696 443 702 l 456 606 z "},"s":{"ha":564,"x_min":73,"x_max":503,"o":"m 73 125 q 115 97 92 109 q 163 76 138 85 q 212 63 187 67 q 259 58 237 58 q 414 174 414 58 q 403 220 414 201 q 372 255 392 239 q 323 285 351 271 q 258 313 294 298 q 176 353 210 333 q 119 398 141 374 q 85 451 96 422 q 75 516 75 479 q 95 598 75 562 q 149 659 115 634 q 227 697 182 684 q 320 711 271 711 q 477 677 410 711 l 477 585 q 309 635 399 635 q 250 627 277 635 q 204 604 223 619 q 175 569 185 589 q 164 523 164 548 q 172 478 164 497 q 198 443 180 458 q 242 413 215 427 q 309 382 270 399 q 396 342 359 362 q 456 299 433 322 q 492 247 480 275 q 503 180 503 218 q 484 96 503 133 q 430 35 465 60 q 350 -3 396 9 q 250 -16 304 -16 q 73 28 144 -16 l 73 125 z "},"t":{"ha":441,"x_min":22,"x_max":410,"o":"m 410 8 q 313 -14 366 -14 q 144 180 144 -14 l 144 618 l 22 618 l 22 694 l 144 694 l 144 869 l 231 898 l 231 694 l 410 694 l 410 618 l 231 618 l 231 193 q 254 92 231 123 q 332 60 277 60 q 410 85 373 60 l 410 8 z "},"u":{"ha":765,"x_min":97,"x_max":653,"o":"m 566 0 l 566 118 l 564 118 q 345 -16 493 -16 q 97 286 97 -16 l 97 694 l 184 694 l 184 302 q 228 118 184 178 q 364 58 273 58 q 446 76 409 58 q 510 124 483 93 q 551 200 536 156 q 566 298 566 244 l 566 694 l 653 694 l 653 0 l 566 0 z "},"v":{"ha":647,"x_min":11,"x_max":636,"o":"m 359 0 l 277 0 l 11 694 l 106 694 l 298 165 q 321 81 316 117 l 323 81 q 345 163 332 130 l 543 694 l 636 694 l 359 0 z "},"w":{"ha":972,"x_min":20,"x_max":951,"o":"m 739 0 l 652 0 l 505 510 q 494 572 498 534 l 492 572 q 487 547 490 562 q 477 511 484 532 l 315 0 l 231 0 l 20 694 l 113 694 l 266 156 q 275 96 273 132 l 281 96 q 285 123 282 108 q 294 157 288 139 l 462 694 l 534 694 l 684 155 q 694 95 690 132 l 700 95 q 703 122 699 106 q 711 155 706 137 l 864 694 l 951 694 l 739 0 z "},"x":{"ha":612,"x_min":20,"x_max":591,"o":"m 357 342 l 585 0 l 480 0 l 339 230 q 322 256 331 243 q 305 286 314 270 l 302 286 q 292 268 299 279 q 275 239 285 256 l 123 0 l 20 0 l 255 340 l 28 694 l 129 694 l 273 451 q 292 418 284 433 q 306 394 300 404 l 309 394 q 325 420 317 407 q 340 447 332 433 l 494 694 l 591 694 l 357 342 z "},"y":{"ha":650,"x_min":12,"x_max":642,"o":"m 313 -126 q 220 -277 273 -228 q 92 -326 167 -326 q 28 -317 54 -326 l 28 -236 q 59 -244 43 -241 q 90 -247 74 -247 q 164 -220 132 -247 q 218 -139 195 -193 l 279 3 l 12 694 l 108 694 l 307 144 q 314 120 311 134 q 321 92 318 106 l 325 92 q 331 116 328 104 q 340 142 334 127 l 551 694 l 642 694 l 313 -126 z "},"z":{"ha":636,"x_min":31,"x_max":601,"o":"m 163 76 l 591 76 l 591 0 l 31 0 l 31 29 l 467 618 l 66 618 l 66 694 l 601 694 l 601 670 l 163 76 z "},"{":{"ha":406,"x_min":63,"x_max":359,"o":"m 359 -221 q 217 -170 264 -218 q 169 -17 169 -121 l 169 185 q 142 300 169 260 q 63 345 115 340 l 63 406 q 169 562 169 418 l 169 767 q 217 921 169 871 q 359 972 264 970 l 359 901 q 277 863 302 897 q 252 753 252 829 l 252 555 q 151 377 252 408 l 151 374 q 252 192 252 343 l 252 1 q 257 -66 252 -39 q 275 -113 262 -94 q 309 -140 288 -131 q 359 -150 329 -149 l 359 -221 z "},"|":{"ha":323,"x_min":121,"x_max":203,"o":"m 121 -326 l 121 1062 l 203 1062 l 203 -326 l 121 -326 z "},"}":{"ha":406,"x_min":47,"x_max":342,"o":"m 342 345 q 237 185 237 334 l 237 -17 q 190 -170 237 -121 q 47 -221 142 -218 l 47 -150 q 95 -141 75 -149 q 129 -116 115 -133 q 148 -70 142 -98 q 155 1 155 -41 l 155 192 q 255 374 155 342 l 255 377 q 155 555 155 409 l 155 753 q 148 821 155 793 q 128 866 141 848 q 94 891 115 883 q 47 901 74 899 l 47 972 q 190 921 142 970 q 237 767 237 872 l 237 562 q 342 406 237 416 l 342 345 z "},"~":{"ha":926,"x_min":154,"x_max":773,"o":"m 773 495 q 723 357 768 406 q 600 308 677 308 q 441 374 530 308 q 328 425 372 425 q 227 311 233 425 l 154 311 q 169 389 156 355 q 204 448 182 424 q 258 486 227 473 q 328 498 290 498 q 474 441 396 498 q 516 413 498 425 q 549 394 534 401 q 577 384 564 387 q 604 380 591 380 q 672 410 647 380 q 701 495 697 440 l 773 495 z "},"Ä":{"ha":884,"x_min":27,"x_max":857,"o":"m 756 0 l 649 288 l 232 288 l 127 0 l 27 0 l 397 972 l 488 972 l 857 0 l 756 0 m 460 802 q 450 832 455 815 q 441 871 445 849 l 439 871 q 430 832 435 849 q 420 802 425 815 l 262 370 l 618 370 l 460 802 m 559 1052 q 520 1068 537 1052 q 503 1109 503 1084 q 519 1151 503 1135 q 558 1166 536 1166 q 600 1150 583 1166 q 618 1109 618 1134 q 601 1068 618 1085 q 559 1052 585 1052 m 317 1052 q 294 1056 304 1052 q 275 1068 283 1061 q 262 1087 267 1076 q 258 1109 258 1097 q 275 1151 258 1135 q 315 1166 292 1166 q 338 1162 327 1166 q 357 1150 349 1158 q 370 1132 365 1143 q 374 1109 374 1122 q 357 1068 374 1085 q 317 1052 340 1052 z "},"Å":{"ha":884,"x_min":27,"x_max":857,"o":"m 756 0 l 649 288 l 232 288 l 127 0 l 27 0 l 382 933 q 303 1048 303 965 q 314 1101 303 1077 q 344 1142 325 1125 q 388 1169 363 1160 q 443 1179 414 1179 q 497 1169 472 1179 q 540 1143 522 1160 q 569 1103 558 1126 q 579 1050 579 1079 q 502 935 579 969 l 857 0 l 756 0 m 441 1128 q 382 1106 404 1128 q 359 1050 359 1085 q 381 993 359 1013 q 441 972 403 972 q 500 994 477 972 q 524 1050 524 1016 q 517 1082 524 1068 q 499 1107 511 1097 q 473 1122 488 1117 q 441 1128 458 1128 m 468 781 q 454 820 460 800 q 441 871 448 840 l 439 871 q 430 832 435 849 q 420 802 425 815 l 262 370 l 618 370 l 468 781 z "},"Ç":{"ha":861,"x_min":68,"x_max":780,"o":"m 780 36 q 523 -17 667 -17 q 336 19 420 -17 q 192 120 252 56 q 101 273 133 184 q 68 467 68 362 q 103 673 68 578 q 201 839 137 768 q 355 949 264 909 q 558 989 446 989 q 780 951 682 989 l 780 854 q 557 907 675 907 q 389 874 463 907 q 266 784 316 842 q 189 647 216 726 q 163 474 163 568 q 186 316 163 390 q 257 186 210 241 q 372 98 303 130 q 533 65 441 65 q 780 124 673 65 l 780 36 m 646 -176 q 466 -294 646 -294 q 417 -292 441 -294 l 417 -236 q 470 -240 449 -240 q 572 -178 572 -240 q 479 -123 572 -123 q 463 -123 471 -123 q 444 -125 454 -124 l 444 0 l 505 0 l 505 -75 q 609 -101 572 -75 q 646 -176 646 -127 z "},"É":{"ha":699,"x_min":126,"x_max":622,"o":"m 126 0 l 126 972 l 600 972 l 600 890 l 216 890 l 216 533 l 572 533 l 572 452 l 216 452 l 216 82 l 622 82 l 622 0 l 126 0 m 355 1052 l 281 1052 l 436 1274 l 528 1274 l 355 1052 z "},"Ñ":{"ha":1012,"x_min":126,"x_max":886,"o":"m 792 0 l 252 781 q 232 811 242 795 q 216 842 222 827 l 213 842 q 215 808 214 829 q 216 753 216 786 l 216 0 l 126 0 l 126 972 l 226 972 l 757 201 q 779 167 769 183 q 797 138 789 151 l 800 138 q 796 188 798 160 q 795 250 795 216 l 795 972 l 886 972 l 886 0 l 792 0 m 751 1213 q 742 1149 751 1178 q 718 1100 734 1121 q 680 1068 703 1080 q 629 1057 658 1057 q 524 1100 583 1057 q 443 1133 476 1133 q 378 1046 378 1133 l 322 1046 q 331 1109 322 1081 q 355 1158 339 1138 q 393 1190 370 1179 q 444 1201 415 1201 q 548 1159 490 1201 q 631 1124 596 1124 q 676 1146 659 1124 q 692 1213 692 1168 l 751 1213 z "},"Ö":{"ha":1052,"x_min":68,"x_max":983,"o":"m 522 -17 q 333 21 417 -17 q 190 126 249 60 q 100 282 132 193 q 68 475 68 372 q 100 684 68 589 q 192 846 132 779 q 340 951 252 913 q 539 989 427 989 q 724 952 642 989 q 864 849 806 915 q 952 694 922 784 q 983 500 983 605 q 953 295 983 389 q 864 131 923 200 q 720 22 806 62 q 522 -17 634 -17 m 530 907 q 373 873 441 907 q 258 782 305 840 q 188 648 212 725 q 163 484 163 571 q 184 326 162 401 q 251 192 206 250 q 363 100 295 134 q 522 65 431 65 q 681 97 612 65 q 796 184 750 128 q 866 317 842 240 q 889 486 889 395 q 868 648 889 572 q 804 782 848 725 q 692 873 760 840 q 530 907 625 907 m 650 1052 q 610 1068 627 1052 q 593 1109 593 1084 q 609 1151 593 1135 q 648 1166 626 1166 q 690 1150 673 1166 q 708 1109 708 1134 q 691 1068 708 1085 q 650 1052 675 1052 m 407 1052 q 384 1056 395 1052 q 366 1068 374 1061 q 353 1087 357 1076 q 348 1109 348 1097 q 365 1151 348 1135 q 405 1166 382 1166 q 428 1162 417 1166 q 447 1150 439 1158 q 460 1132 455 1143 q 465 1109 465 1122 q 448 1068 465 1085 q 407 1052 431 1052 z "},"Ü":{"ha":927,"x_min":114,"x_max":813,"o":"m 813 391 q 455 -17 813 -17 q 114 376 114 -17 l 114 972 l 204 972 l 204 384 q 269 144 204 224 q 468 65 333 65 q 723 374 723 65 l 723 972 l 813 972 l 813 391 m 595 1052 q 555 1068 572 1052 q 538 1109 538 1084 q 554 1151 538 1135 q 593 1166 571 1166 q 635 1150 618 1166 q 653 1109 653 1134 q 636 1068 653 1085 q 595 1052 620 1052 m 352 1052 q 329 1056 340 1052 q 311 1068 319 1061 q 298 1087 302 1076 q 293 1109 293 1097 q 310 1151 293 1135 q 350 1166 327 1166 q 373 1162 362 1166 q 392 1150 384 1158 q 405 1132 400 1143 q 410 1109 410 1122 q 393 1068 410 1085 q 352 1052 376 1052 z "},"á":{"ha":696,"x_min":66,"x_max":599,"o":"m 512 0 l 512 123 l 509 123 q 417 20 475 57 q 284 -16 358 -16 q 194 -2 234 -16 q 125 38 153 12 q 82 101 97 64 q 66 182 66 138 q 125 332 66 276 q 301 405 183 388 l 512 435 q 357 635 512 635 q 132 547 235 635 l 132 642 q 181 670 153 657 q 239 691 208 682 q 301 706 269 701 q 364 711 334 711 q 539 646 480 711 q 599 452 599 581 l 599 0 l 512 0 m 333 337 q 253 320 286 330 q 198 293 220 310 q 166 250 176 275 q 156 187 156 224 q 166 136 156 159 q 194 95 176 112 q 240 68 213 77 q 300 58 267 58 q 385 76 347 58 q 452 125 424 94 q 496 199 480 156 q 512 294 512 243 l 512 362 l 333 337 m 321 816 l 248 816 l 402 1038 l 494 1038 l 321 816 z "},"à":{"ha":696,"x_min":66,"x_max":599,"o":"m 512 0 l 512 123 l 509 123 q 417 20 475 57 q 284 -16 358 -16 q 194 -2 234 -16 q 125 38 153 12 q 82 101 97 64 q 66 182 66 138 q 125 332 66 276 q 301 405 183 388 l 512 435 q 357 635 512 635 q 132 547 235 635 l 132 642 q 181 670 153 657 q 239 691 208 682 q 301 706 269 701 q 364 711 334 711 q 539 646 480 711 q 599 452 599 581 l 599 0 l 512 0 m 333 337 q 253 320 286 330 q 198 293 220 310 q 166 250 176 275 q 156 187 156 224 q 166 136 156 159 q 194 95 176 112 q 240 68 213 77 q 300 58 267 58 q 385 76 347 58 q 452 125 424 94 q 496 199 480 156 q 512 294 512 243 l 512 362 l 333 337 m 361 816 l 189 1038 l 281 1038 l 435 816 l 361 816 z "},"â":{"ha":696,"x_min":66,"x_max":599,"o":"m 512 0 l 512 123 l 509 123 q 417 20 475 57 q 284 -16 358 -16 q 194 -2 234 -16 q 125 38 153 12 q 82 101 97 64 q 66 182 66 138 q 125 332 66 276 q 301 405 183 388 l 512 435 q 357 635 512 635 q 132 547 235 635 l 132 642 q 181 670 153 657 q 239 691 208 682 q 301 706 269 701 q 364 711 334 711 q 539 646 480 711 q 599 452 599 581 l 599 0 l 512 0 m 333 337 q 253 320 286 330 q 198 293 220 310 q 166 250 176 275 q 156 187 156 224 q 166 136 156 159 q 194 95 176 112 q 240 68 213 77 q 300 58 267 58 q 385 76 347 58 q 452 125 424 94 q 496 199 480 156 q 512 294 512 243 l 512 362 l 333 337 m 459 816 l 350 975 l 240 816 l 174 816 l 321 1042 l 382 1042 l 530 816 l 459 816 z "},"ä":{"ha":696,"x_min":66,"x_max":599,"o":"m 512 0 l 512 123 l 509 123 q 417 20 475 57 q 284 -16 358 -16 q 194 -2 234 -16 q 125 38 153 12 q 82 101 97 64 q 66 182 66 138 q 125 332 66 276 q 301 405 183 388 l 512 435 q 357 635 512 635 q 132 547 235 635 l 132 642 q 181 670 153 657 q 239 691 208 682 q 301 706 269 701 q 364 711 334 711 q 539 646 480 711 q 599 452 599 581 l 599 0 l 512 0 m 333 337 q 253 320 286 330 q 198 293 220 310 q 166 250 176 275 q 156 187 156 224 q 166 136 156 159 q 194 95 176 112 q 240 68 213 77 q 300 58 267 58 q 385 76 347 58 q 452 125 424 94 q 496 199 480 156 q 512 294 512 243 l 512 362 l 333 337 m 465 816 q 426 832 443 816 q 408 873 408 848 q 425 915 408 899 q 464 930 441 930 q 506 914 488 930 q 524 873 524 898 q 507 832 524 849 q 465 816 490 816 m 222 816 q 200 820 210 816 q 181 832 189 825 q 168 851 173 840 q 163 873 163 861 q 180 915 163 899 q 220 930 197 930 q 243 926 233 930 q 262 914 254 922 q 275 896 271 907 q 280 873 280 886 q 263 832 280 849 q 222 816 246 816 z "},"ã":{"ha":696,"x_min":66,"x_max":599,"o":"m 512 0 l 512 123 l 509 123 q 417 20 475 57 q 284 -16 358 -16 q 194 -2 234 -16 q 125 38 153 12 q 82 101 97 64 q 66 182 66 138 q 125 332 66 276 q 301 405 183 388 l 512 435 q 357 635 512 635 q 132 547 235 635 l 132 642 q 181 670 153 657 q 239 691 208 682 q 301 706 269 701 q 364 711 334 711 q 539 646 480 711 q 599 452 599 581 l 599 0 l 512 0 m 333 337 q 253 320 286 330 q 198 293 220 310 q 166 250 176 275 q 156 187 156 224 q 166 136 156 159 q 194 95 176 112 q 240 68 213 77 q 300 58 267 58 q 385 76 347 58 q 452 125 424 94 q 496 199 480 156 q 512 294 512 243 l 512 362 l 333 337 m 566 977 q 557 913 566 942 q 533 864 549 885 q 495 832 517 844 q 444 821 473 821 q 338 864 398 821 q 258 897 291 897 q 193 810 193 897 l 137 810 q 145 873 137 845 q 170 922 154 902 q 208 954 185 943 q 258 965 230 965 q 363 923 304 965 q 446 888 411 888 q 491 910 474 888 q 507 977 507 932 l 566 977 z "},"å":{"ha":696,"x_min":66,"x_max":599,"o":"m 512 0 l 512 123 l 509 123 q 417 20 475 57 q 284 -16 358 -16 q 194 -2 234 -16 q 125 38 153 12 q 82 101 97 64 q 66 182 66 138 q 125 332 66 276 q 301 405 183 388 l 512 435 q 357 635 512 635 q 132 547 235 635 l 132 642 q 181 670 153 657 q 239 691 208 682 q 301 706 269 701 q 364 711 334 711 q 539 646 480 711 q 599 452 599 581 l 599 0 l 512 0 m 333 337 q 253 320 286 330 q 198 293 220 310 q 166 250 176 275 q 156 187 156 224 q 166 136 156 159 q 194 95 176 112 q 240 68 213 77 q 300 58 267 58 q 385 76 347 58 q 452 125 424 94 q 496 199 480 156 q 512 294 512 243 l 512 362 l 333 337 m 351 802 q 300 810 324 802 q 256 836 275 819 q 226 876 237 852 q 215 928 215 899 q 226 981 215 957 q 256 1022 237 1004 q 300 1048 275 1039 q 354 1058 325 1058 q 405 1049 380 1058 q 449 1024 430 1040 q 479 983 468 1007 q 491 930 491 960 q 480 879 491 903 q 449 839 469 856 q 405 811 430 821 q 351 802 380 802 m 351 1008 q 293 986 315 1008 q 271 930 271 964 q 292 872 271 892 q 351 852 314 852 q 385 858 370 852 q 411 874 400 863 q 429 899 422 884 q 435 930 435 913 q 411 987 435 966 q 351 1008 387 1008 z "},"ç":{"ha":629,"x_min":64,"x_max":576,"o":"m 574 31 q 387 -17 496 -16 q 252 9 312 -18 q 151 82 193 35 q 86 194 109 130 q 64 333 64 258 q 87 480 64 411 q 157 600 111 549 q 268 681 202 651 q 418 711 334 711 q 576 677 505 711 l 576 585 q 412 635 500 635 q 302 612 350 635 q 221 548 254 589 q 171 454 188 508 q 153 340 153 400 q 168 233 153 284 q 213 143 182 182 q 289 81 243 104 q 397 58 335 58 q 574 117 495 58 l 574 31 m 515 -176 q 335 -294 515 -294 q 286 -292 310 -294 l 286 -236 q 339 -240 318 -240 q 441 -178 441 -240 q 348 -123 441 -123 q 332 -123 340 -123 q 313 -125 323 -124 l 313 0 l 374 0 l 374 -75 q 478 -101 441 -75 q 515 -176 515 -127 z "},"é":{"ha":713,"x_min":63,"x_max":655,"o":"m 153 332 q 170 217 154 268 q 217 131 186 166 q 291 77 248 96 q 390 58 335 58 q 612 140 507 58 l 612 55 q 370 -16 512 -16 q 243 8 300 -16 q 146 79 186 33 q 85 193 106 125 q 63 348 63 261 q 87 492 63 426 q 153 607 111 559 q 252 683 195 656 q 378 711 310 711 q 497 687 446 711 q 584 621 549 664 q 637 515 618 577 q 655 375 655 452 l 655 332 l 153 332 m 566 408 q 514 576 564 516 q 376 635 465 635 q 295 620 332 635 q 229 575 257 604 q 181 503 200 545 q 155 408 163 460 l 566 408 m 346 816 l 273 816 l 427 1038 l 519 1038 l 346 816 z "},"è":{"ha":713,"x_min":63,"x_max":655,"o":"m 153 332 q 170 217 154 268 q 217 131 186 166 q 291 77 248 96 q 390 58 335 58 q 612 140 507 58 l 612 55 q 370 -16 512 -16 q 243 8 300 -16 q 146 79 186 33 q 85 193 106 125 q 63 348 63 261 q 87 492 63 426 q 153 607 111 559 q 252 683 195 656 q 378 711 310 711 q 497 687 446 711 q 584 621 549 664 q 637 515 618 577 q 655 375 655 452 l 655 332 l 153 332 m 566 408 q 514 576 564 516 q 376 635 465 635 q 295 620 332 635 q 229 575 257 604 q 181 503 200 545 q 155 408 163 460 l 566 408 m 395 816 l 222 1038 l 315 1038 l 469 816 l 395 816 z "},"ê":{"ha":713,"x_min":63,"x_max":655,"o":"m 153 332 q 170 217 154 268 q 217 131 186 166 q 291 77 248 96 q 390 58 335 58 q 612 140 507 58 l 612 55 q 370 -16 512 -16 q 243 8 300 -16 q 146 79 186 33 q 85 193 106 125 q 63 348 63 261 q 87 492 63 426 q 153 607 111 559 q 252 683 195 656 q 378 711 310 711 q 497 687 446 711 q 584 621 549 664 q 637 515 618 577 q 655 375 655 452 l 655 332 l 153 332 m 566 408 q 514 576 564 516 q 376 635 465 635 q 295 620 332 635 q 229 575 257 604 q 181 503 200 545 q 155 408 163 460 l 566 408 m 482 816 l 373 975 l 263 816 l 197 816 l 345 1042 l 405 1042 l 553 816 l 482 816 z "},"ë":{"ha":713,"x_min":63,"x_max":655,"o":"m 153 332 q 170 217 154 268 q 217 131 186 166 q 291 77 248 96 q 390 58 335 58 q 612 140 507 58 l 612 55 q 370 -16 512 -16 q 243 8 300 -16 q 146 79 186 33 q 85 193 106 125 q 63 348 63 261 q 87 492 63 426 q 153 607 111 559 q 252 683 195 656 q 378 711 310 711 q 497 687 446 711 q 584 621 549 664 q 637 515 618 577 q 655 375 655 452 l 655 332 l 153 332 m 566 408 q 514 576 564 516 q 376 635 465 635 q 295 620 332 635 q 229 575 257 604 q 181 503 200 545 q 155 408 163 460 l 566 408 m 490 816 q 451 832 468 816 q 433 873 433 848 q 450 915 433 899 q 489 930 467 930 q 531 914 513 930 q 549 873 549 898 q 532 832 549 849 q 490 816 515 816 m 248 816 q 225 820 235 816 q 206 832 214 825 q 193 851 198 840 q 189 873 189 861 q 205 915 189 899 q 245 930 222 930 q 269 926 258 930 q 288 914 279 922 q 300 896 296 907 q 305 873 305 886 q 288 832 305 849 q 248 816 271 816 z "},"í":{"ha":311,"x_min":92,"x_max":338,"o":"m 112 0 l 112 694 l 199 694 l 199 0 l 112 0 m 165 816 l 92 816 l 247 1038 l 338 1038 l 165 816 z "},"ì":{"ha":311,"x_min":-33,"x_max":214,"o":"m 112 0 l 112 694 l 199 694 l 199 0 l 112 0 m 140 816 l -33 1038 l 60 1038 l 214 816 l 140 816 z "},"î":{"ha":311,"x_min":-22,"x_max":334,"o":"m 112 0 l 112 694 l 199 694 l 199 0 l 112 0 m 264 816 l 155 975 l 45 816 l -22 816 l 126 1042 l 186 1042 l 334 816 l 264 816 z "},"ï":{"ha":311,"x_min":-24,"x_max":336,"o":"m 112 0 l 112 694 l 199 694 l 199 0 l 112 0 m 278 816 q 238 832 256 816 q 221 873 221 848 q 238 915 221 899 q 277 930 254 930 q 319 914 301 930 q 336 873 336 898 q 320 832 336 849 q 278 816 303 816 m 35 816 q 13 820 23 816 q -6 832 2 825 q -19 851 -14 840 q -24 873 -24 861 q -7 915 -24 899 q 33 930 10 930 q 56 926 45 930 q 75 914 67 922 q 88 896 83 907 q 93 873 93 886 q 76 832 93 849 q 35 816 59 816 z "},"ñ":{"ha":764,"x_min":112,"x_max":667,"o":"m 581 0 l 581 400 q 410 635 581 635 q 326 617 364 635 q 259 568 287 600 q 215 492 231 536 q 199 397 199 448 l 199 0 l 112 0 l 112 694 l 199 694 l 199 574 l 201 574 q 434 711 279 711 q 608 637 548 711 q 667 423 667 563 l 667 0 l 581 0 m 612 977 q 603 913 612 942 q 579 864 595 885 q 541 832 564 844 q 490 821 519 821 q 385 864 444 821 q 304 897 337 897 q 239 810 239 897 l 183 810 q 192 873 183 845 q 216 922 200 902 q 254 954 231 943 q 304 965 276 965 q 409 923 351 965 q 492 888 457 888 q 537 910 520 888 q 553 977 553 932 l 612 977 z "},"ó":{"ha":796,"x_min":63,"x_max":733,"o":"m 396 -16 q 257 9 319 -16 q 153 82 196 35 q 86 195 109 130 q 63 341 63 261 q 87 496 63 428 q 157 613 112 565 q 266 686 202 661 q 408 711 330 711 q 544 686 484 711 q 646 614 604 661 q 711 500 688 568 q 733 348 733 433 q 710 200 733 267 q 643 85 686 133 q 537 10 600 37 q 396 -16 475 -16 m 403 635 q 300 616 346 635 q 221 558 254 596 q 170 466 188 521 q 153 342 153 412 q 170 225 153 277 q 220 136 188 173 q 298 78 252 98 q 401 58 345 58 q 505 78 460 58 q 581 134 549 97 q 628 224 612 171 q 644 347 644 278 q 581 561 644 487 q 403 635 519 635 m 381 816 l 308 816 l 463 1038 l 554 1038 l 381 816 z "},"ò":{"ha":796,"x_min":63,"x_max":733,"o":"m 396 -16 q 257 9 319 -16 q 153 82 196 35 q 86 195 109 130 q 63 341 63 261 q 87 496 63 428 q 157 613 112 565 q 266 686 202 661 q 408 711 330 711 q 544 686 484 711 q 646 614 604 661 q 711 500 688 568 q 733 348 733 433 q 710 200 733 267 q 643 85 686 133 q 537 10 600 37 q 396 -16 475 -16 m 403 635 q 300 616 346 635 q 221 558 254 596 q 170 466 188 521 q 153 342 153 412 q 170 225 153 277 q 220 136 188 173 q 298 78 252 98 q 401 58 345 58 q 505 78 460 58 q 581 134 549 97 q 628 224 612 171 q 644 347 644 278 q 581 561 644 487 q 403 635 519 635 m 411 816 l 238 1038 l 330 1038 l 484 816 l 411 816 z "},"ô":{"ha":796,"x_min":63,"x_max":733,"o":"m 396 -16 q 257 9 319 -16 q 153 82 196 35 q 86 195 109 130 q 63 341 63 261 q 87 496 63 428 q 157 613 112 565 q 266 686 202 661 q 408 711 330 711 q 544 686 484 711 q 646 614 604 661 q 711 500 688 568 q 733 348 733 433 q 710 200 733 267 q 643 85 686 133 q 537 10 600 37 q 396 -16 475 -16 m 403 635 q 300 616 346 635 q 221 558 254 596 q 170 466 188 521 q 153 342 153 412 q 170 225 153 277 q 220 136 188 173 q 298 78 252 98 q 401 58 345 58 q 505 78 460 58 q 581 134 549 97 q 628 224 612 171 q 644 347 644 278 q 581 561 644 487 q 403 635 519 635 m 512 816 l 403 975 l 293 816 l 227 816 l 374 1042 l 435 1042 l 583 816 l 512 816 z "},"ö":{"ha":796,"x_min":63,"x_max":733,"o":"m 396 -16 q 257 9 319 -16 q 153 82 196 35 q 86 195 109 130 q 63 341 63 261 q 87 496 63 428 q 157 613 112 565 q 266 686 202 661 q 408 711 330 711 q 544 686 484 711 q 646 614 604 661 q 711 500 688 568 q 733 348 733 433 q 710 200 733 267 q 643 85 686 133 q 537 10 600 37 q 396 -16 475 -16 m 403 635 q 300 616 346 635 q 221 558 254 596 q 170 466 188 521 q 153 342 153 412 q 170 225 153 277 q 220 136 188 173 q 298 78 252 98 q 401 58 345 58 q 505 78 460 58 q 581 134 549 97 q 628 224 612 171 q 644 347 644 278 q 581 561 644 487 q 403 635 519 635 m 522 816 q 483 832 500 816 q 465 873 465 848 q 482 915 465 899 q 521 930 498 930 q 563 914 545 930 q 581 873 581 898 q 564 832 581 849 q 522 816 547 816 m 279 816 q 257 820 267 816 q 238 832 246 825 q 225 851 230 840 q 220 873 220 861 q 237 915 220 899 q 277 930 254 930 q 300 926 290 930 q 319 914 311 922 q 332 896 328 907 q 337 873 337 886 q 320 832 337 849 q 279 816 303 816 z "},"õ":{"ha":796,"x_min":63,"x_max":733,"o":"m 396 -16 q 257 9 319 -16 q 153 82 196 35 q 86 195 109 130 q 63 341 63 261 q 87 496 63 428 q 157 613 112 565 q 266 686 202 661 q 408 711 330 711 q 544 686 484 711 q 646 614 604 661 q 711 500 688 568 q 733 348 733 433 q 710 200 733 267 q 643 85 686 133 q 537 10 600 37 q 396 -16 475 -16 m 403 635 q 300 616 346 635 q 221 558 254 596 q 170 466 188 521 q 153 342 153 412 q 170 225 153 277 q 220 136 188 173 q 298 78 252 98 q 401 58 345 58 q 505 78 460 58 q 581 134 549 97 q 628 224 612 171 q 644 347 644 278 q 581 561 644 487 q 403 635 519 635 m 625 977 q 616 913 625 942 q 592 864 608 885 q 554 832 576 844 q 503 821 532 821 q 397 864 457 821 q 317 897 350 897 q 252 810 252 897 l 196 810 q 204 873 196 845 q 229 922 213 902 q 267 954 244 943 q 317 965 289 965 q 422 923 363 965 q 505 888 470 888 q 550 910 533 888 q 566 977 566 932 l 625 977 z "},"ú":{"ha":765,"x_min":97,"x_max":653,"o":"m 566 0 l 566 118 l 564 118 q 345 -16 493 -16 q 97 286 97 -16 l 97 694 l 184 694 l 184 302 q 228 118 184 178 q 364 58 273 58 q 446 76 409 58 q 510 124 483 93 q 551 200 536 156 q 566 298 566 244 l 566 694 l 653 694 l 653 0 l 566 0 m 380 816 l 307 816 l 461 1038 l 553 1038 l 380 816 z "},"ù":{"ha":765,"x_min":97,"x_max":653,"o":"m 566 0 l 566 118 l 564 118 q 345 -16 493 -16 q 97 286 97 -16 l 97 694 l 184 694 l 184 302 q 228 118 184 178 q 364 58 273 58 q 446 76 409 58 q 510 124 483 93 q 551 200 536 156 q 566 298 566 244 l 566 694 l 653 694 l 653 0 l 566 0 m 385 816 l 212 1038 l 304 1038 l 458 816 l 385 816 z "},"û":{"ha":765,"x_min":97,"x_max":653,"o":"m 566 0 l 566 118 l 564 118 q 345 -16 493 -16 q 97 286 97 -16 l 97 694 l 184 694 l 184 302 q 228 118 184 178 q 364 58 273 58 q 446 76 409 58 q 510 124 483 93 q 551 200 536 156 q 566 298 566 244 l 566 694 l 653 694 l 653 0 l 566 0 m 494 816 l 385 975 l 275 816 l 209 816 l 357 1042 l 417 1042 l 565 816 l 494 816 z "},"ü":{"ha":765,"x_min":97,"x_max":653,"o":"m 566 0 l 566 118 l 564 118 q 345 -16 493 -16 q 97 286 97 -16 l 97 694 l 184 694 l 184 302 q 228 118 184 178 q 364 58 273 58 q 446 76 409 58 q 510 124 483 93 q 551 200 536 156 q 566 298 566 244 l 566 694 l 653 694 l 653 0 l 566 0 m 510 816 q 470 832 488 816 q 453 873 453 848 q 470 915 453 899 q 509 930 486 930 q 551 914 533 930 q 568 873 568 898 q 552 832 568 849 q 510 816 535 816 m 267 816 q 244 820 255 816 q 226 832 234 825 q 213 851 218 840 q 208 873 208 861 q 225 915 208 899 q 265 930 242 930 q 288 926 277 930 q 307 914 299 922 q 320 896 315 907 q 325 873 325 886 q 308 832 325 849 q 267 816 291 816 z "},"†":{"ha":517,"x_min":31,"x_max":486,"o":"m 486 619 l 304 640 l 281 155 l 243 155 l 219 640 l 31 619 l 31 707 l 239 694 l 216 972 l 308 972 l 284 694 l 486 707 l 486 619 z "},"°":{"ha":530,"x_min":85,"x_max":444,"o":"m 85 798 q 99 868 85 836 q 138 925 113 901 q 195 964 162 949 q 264 978 227 978 q 334 964 302 978 q 391 925 367 949 q 430 868 416 901 q 444 798 444 836 q 430 728 444 761 q 391 671 416 696 q 334 633 367 647 q 264 619 302 619 q 195 633 227 619 q 138 671 162 647 q 99 728 113 696 q 85 798 85 761 m 154 799 q 162 755 154 776 q 186 719 171 734 q 222 694 201 703 q 265 685 242 685 q 308 694 288 685 q 343 720 328 704 q 367 756 358 736 q 375 799 375 777 q 367 842 375 822 q 345 878 359 863 q 310 903 330 894 q 265 912 290 912 q 221 903 241 912 q 186 878 201 894 q 162 842 171 863 q 154 799 154 822 z "},"¢":{"ha":732,"x_min":119,"x_max":630,"o":"m 629 142 q 479 95 566 103 l 479 -36 l 406 -36 l 406 96 q 284 132 338 103 q 194 207 231 161 q 138 313 157 253 q 119 443 119 374 q 137 572 119 511 q 192 682 155 633 q 281 766 228 732 q 406 816 335 801 l 406 956 l 479 956 l 479 821 q 630 788 562 820 l 630 694 q 479 743 561 739 l 479 171 q 629 227 566 179 l 629 142 m 406 737 q 319 699 356 726 q 257 633 282 671 q 220 549 233 595 q 208 451 208 502 q 219 358 208 404 q 255 275 231 313 q 316 212 279 238 q 406 175 353 185 l 406 737 z "},"£":{"ha":732,"x_min":63,"x_max":663,"o":"m 63 0 l 63 75 q 221 304 221 134 l 221 439 l 77 439 l 77 518 l 221 518 l 221 703 q 240 818 221 766 q 292 909 258 871 q 372 968 326 947 q 476 989 419 989 q 610 963 547 989 l 610 878 q 475 913 545 913 q 351 857 393 913 q 308 692 308 802 l 308 518 l 512 518 l 512 439 l 308 439 l 308 327 q 170 76 308 145 l 663 76 l 663 0 l 63 0 z "},"§":{"ha":623,"x_min":100,"x_max":535,"o":"m 433 277 q 479 220 465 252 q 494 146 494 187 q 477 70 494 104 q 431 9 460 35 q 359 -31 401 -16 q 267 -45 317 -45 q 112 -9 186 -45 l 112 78 q 271 31 197 31 q 371 61 336 31 q 406 140 406 92 q 382 205 406 177 q 356 230 377 216 q 303 262 336 245 l 247 292 q 178 337 205 313 q 133 387 150 361 q 108 440 115 412 q 100 498 100 468 q 205 668 100 612 q 127 818 127 724 q 143 896 127 860 q 188 957 159 931 q 257 997 216 983 q 348 1011 298 1011 q 488 984 430 1011 l 488 898 q 346 935 426 935 q 217 823 217 935 q 223 781 217 800 q 248 745 229 763 q 301 707 267 727 q 391 661 335 687 q 499 578 463 627 q 535 467 535 530 q 433 277 535 355 m 273 627 q 189 505 189 589 q 198 453 189 476 q 227 410 206 431 q 283 369 248 389 q 372 325 319 349 q 427 384 409 353 q 446 461 446 415 q 438 507 446 487 q 412 547 431 528 q 359 585 393 566 q 273 627 326 604 z "},"•":{"ha":557,"x_min":111,"x_max":446,"o":"m 111 467 q 124 532 111 501 q 160 585 138 562 q 213 621 182 608 q 278 634 243 634 q 343 621 313 634 q 396 585 374 608 q 432 532 419 562 q 446 467 446 501 q 432 401 446 432 q 396 349 419 371 q 343 313 374 326 q 278 300 313 300 q 213 313 243 300 q 160 349 182 326 q 124 401 138 371 q 111 467 111 432 z "},"¶":{"ha":647,"x_min":66,"x_max":576,"o":"m 488 908 l 488 0 l 422 0 l 422 908 l 302 908 l 302 0 l 236 0 l 236 612 q 169 626 199 612 q 115 664 138 640 q 79 721 92 688 q 66 792 66 754 q 80 866 66 833 q 118 923 94 899 q 173 960 142 947 q 240 972 205 972 l 576 972 l 576 908 l 488 908 z "},"ß":{"ha":737,"x_min":112,"x_max":684,"o":"m 302 85 q 408 58 353 58 q 485 73 450 58 q 544 114 519 87 q 582 177 568 140 q 595 260 595 214 q 577 354 595 311 q 524 429 559 396 q 440 483 490 461 q 326 513 390 505 l 326 585 q 407 612 371 593 q 469 659 444 631 q 508 722 494 687 q 522 799 522 758 q 481 921 522 877 q 368 965 440 965 q 242 908 286 965 q 199 743 199 852 l 199 1 l 112 1 l 112 756 q 131 874 112 822 q 183 964 149 927 q 267 1021 218 1001 q 375 1041 315 1041 q 471 1024 428 1041 q 546 978 515 1008 q 594 905 576 947 q 611 810 611 863 q 599 728 611 767 q 564 657 587 689 q 507 600 541 625 q 433 558 474 574 l 433 555 q 620 452 555 527 q 684 264 684 377 q 665 153 684 205 q 609 64 645 102 q 523 5 574 26 q 412 -16 473 -16 q 302 -1 353 -16 l 302 85 z "},"­":{"ha":554,"x_min":98,"x_max":469,"o":"m 98 359 l 98 434 l 469 434 l 469 359 l 98 359 z "},"®":{"ha":1230,"x_min":174,"x_max":989,"o":"m 581 173 q 293 292 412 173 q 174 578 174 410 q 293 867 174 749 q 581 986 413 986 q 869 867 749 986 q 989 581 989 748 q 870 292 989 411 q 581 173 751 173 m 578 930 q 335 827 435 930 q 234 578 234 724 q 334 331 234 434 q 578 229 434 229 q 826 331 724 229 q 928 578 928 434 q 826 827 928 724 q 578 930 723 930 m 705 327 l 643 456 q 590 534 616 514 q 533 554 565 554 l 486 554 l 486 327 l 420 327 l 420 850 l 573 850 q 710 813 660 850 q 760 713 760 775 q 623 568 760 593 l 623 566 q 710 471 663 556 l 779 327 l 705 327 m 486 796 l 486 609 l 575 609 q 660 633 628 609 q 692 704 692 656 q 562 796 692 796 l 486 796 z "},"©":{"ha":1230,"x_min":108,"x_max":1122,"o":"m 108 484 q 126 619 108 554 q 177 740 144 684 q 256 843 210 797 q 359 922 302 889 q 480 974 416 956 q 615 991 545 991 q 750 974 685 991 q 871 922 814 956 q 974 843 928 889 q 1053 740 1020 797 q 1104 619 1086 684 q 1122 484 1122 554 q 1104 350 1122 414 q 1053 228 1086 285 q 974 125 1020 172 q 871 46 928 79 q 750 -5 814 13 q 615 -23 685 -23 q 480 -5 545 -23 q 359 46 416 13 q 256 125 302 79 q 177 228 210 172 q 126 350 144 285 q 108 484 108 414 m 163 484 q 198 308 163 391 q 295 164 234 226 q 439 67 357 103 q 615 32 522 32 q 791 67 709 32 q 935 164 873 103 q 1032 308 996 226 q 1067 484 1067 391 q 1032 660 1067 578 q 935 804 996 743 q 791 901 873 865 q 615 937 709 937 q 439 901 522 937 q 295 804 357 865 q 198 660 234 743 q 163 484 163 578 m 812 182 q 636 134 732 134 q 507 159 568 134 q 400 229 446 184 q 328 335 354 273 q 301 469 301 396 q 325 612 301 545 q 394 727 349 678 q 504 805 439 777 q 651 833 569 833 q 809 797 739 833 l 809 717 q 640 761 742 761 q 534 740 581 761 q 452 681 486 718 q 400 592 418 643 q 381 481 381 541 q 400 376 381 426 q 453 288 418 326 q 536 228 487 250 q 646 205 585 205 q 812 255 740 205 l 812 182 z "},"™":{"ha":1074,"x_min":50,"x_max":940,"o":"m 876 524 l 876 866 l 873 866 l 722 524 l 678 524 l 532 866 l 530 866 l 530 524 l 467 524 l 467 972 l 549 972 l 701 619 l 704 619 l 861 972 l 940 972 l 940 524 l 876 524 m 260 913 l 260 524 l 194 524 l 194 913 l 50 913 l 50 972 l 406 972 l 406 913 l 260 913 z "},"´":{"ha":368,"x_min":92,"x_max":338,"o":"m 165 816 l 92 816 l 247 1038 l 338 1038 l 165 816 z "},"¨":{"ha":564,"x_min":100,"x_max":460,"o":"m 401 816 q 362 832 379 816 q 345 873 345 848 q 361 915 345 899 q 400 930 378 930 q 442 914 425 930 q 460 873 460 898 q 443 832 460 849 q 401 816 427 816 m 159 816 q 136 820 146 816 q 117 832 125 825 q 104 851 109 840 q 100 873 100 861 q 117 915 100 899 q 157 930 134 930 q 180 926 169 930 q 199 914 191 922 q 212 896 207 907 q 216 873 216 886 q 199 832 216 849 q 159 816 182 816 z "},"≠":{"ha":927,"x_min":151,"x_max":777,"o":"m 410 231 l 291 0 l 212 0 l 332 231 l 151 231 l 151 304 l 370 304 l 473 507 l 151 507 l 151 580 l 511 580 l 627 806 l 705 806 l 589 580 l 777 580 l 777 507 l 552 507 l 447 304 l 777 304 l 777 231 l 410 231 z "},"Æ":{"ha":1176,"x_min":9,"x_max":1090,"o":"m 595 0 l 595 288 l 252 288 l 112 0 l 9 0 l 482 972 l 1068 972 l 1068 888 l 684 888 l 684 532 l 1040 532 l 1040 451 l 684 451 l 684 82 l 1090 82 l 1090 0 l 595 0 m 595 888 l 536 888 l 289 370 l 595 370 l 595 888 z "},"Ø":{"ha":1052,"x_min":60,"x_max":983,"o":"m 522 -17 q 353 13 429 -17 q 219 96 277 43 l 108 -36 l 60 3 l 176 142 q 96 293 123 208 q 68 475 68 378 q 100 684 68 589 q 192 846 132 779 q 340 951 252 913 q 539 989 427 989 q 688 966 621 989 q 810 900 756 943 l 904 1012 l 952 972 l 856 858 q 950 701 918 792 q 983 500 983 609 q 953 295 983 389 q 864 131 923 200 q 720 22 806 62 q 522 -17 634 -17 m 889 486 q 867 653 889 575 q 798 789 845 731 l 275 163 q 380 91 319 117 q 522 65 441 65 q 681 97 612 65 q 796 184 750 128 q 866 317 842 240 q 889 486 889 395 m 530 907 q 373 873 441 907 q 258 782 305 840 q 188 648 212 725 q 163 484 163 571 q 180 338 162 408 q 235 212 198 269 l 755 833 q 657 887 712 868 q 530 907 602 907 z "},"∞":{"ha":1135,"x_min":59,"x_max":1077,"o":"m 567 337 q 443 193 510 241 q 306 144 376 144 q 205 163 251 144 q 127 216 160 182 q 77 297 95 250 q 59 401 59 345 q 78 502 59 454 q 131 586 98 550 q 210 643 165 622 q 306 664 254 664 q 569 472 466 664 q 691 615 623 567 q 829 664 760 664 q 930 645 884 664 q 1008 592 975 626 q 1059 511 1041 558 q 1077 407 1077 464 q 1058 307 1077 354 q 1006 223 1039 259 q 927 165 972 186 q 829 144 882 144 q 567 337 673 144 m 603 404 q 829 216 694 216 q 901 230 869 216 q 956 270 933 245 q 990 331 978 296 q 1002 407 1002 366 q 989 481 1002 447 q 954 541 977 515 q 899 580 930 566 q 829 594 867 594 q 603 404 705 594 m 533 405 q 306 594 439 594 q 235 580 267 594 q 180 540 203 566 q 144 479 157 515 q 132 401 132 444 q 144 328 132 362 q 181 269 157 294 q 236 230 204 244 q 306 216 268 216 q 533 405 431 216 z "},"±":{"ha":926,"x_min":151,"x_max":777,"o":"m 500 435 l 500 159 l 428 159 l 428 435 l 151 435 l 151 509 l 428 509 l 428 785 l 500 785 l 500 509 l 777 509 l 777 435 l 500 435 m 151 0 l 151 73 l 777 73 l 777 0 l 151 0 z "},"≤":{"ha":927,"x_min":151,"x_max":777,"o":"m 177 461 l 177 487 l 751 808 l 751 726 l 304 477 l 304 474 l 751 255 l 751 171 l 177 461 m 151 21 l 151 95 l 777 95 l 777 21 l 151 21 z "},"≥":{"ha":927,"x_min":151,"x_max":777,"o":"m 177 172 l 177 256 l 625 473 l 625 477 l 177 726 l 177 809 l 751 488 l 751 462 l 177 172 m 151 21 l 151 95 l 777 95 l 777 21 l 151 21 z "},"¥":{"ha":732,"x_min":48,"x_max":687,"o":"m 437 516 l 650 516 l 650 441 l 410 441 l 410 288 l 650 288 l 650 212 l 410 212 l 410 0 l 323 0 l 323 212 l 81 212 l 81 288 l 323 288 l 323 441 l 81 441 l 81 516 l 295 516 l 48 972 l 148 972 l 336 604 q 368 534 359 560 l 372 534 q 385 570 377 552 q 403 608 393 589 l 593 972 l 687 972 l 437 516 z "},"µ":{"ha":779,"x_min":112,"x_max":678,"o":"m 589 0 q 581 120 581 56 l 578 120 q 372 -16 515 -16 q 202 67 255 -16 l 198 67 l 198 -267 l 112 -267 l 112 694 l 198 694 l 198 289 q 243 120 198 178 q 379 61 289 61 q 461 78 425 61 q 525 127 498 96 q 566 202 551 158 q 580 299 580 245 l 580 694 l 667 694 l 667 176 q 670 79 667 123 q 678 0 673 35 l 589 0 z "},"∂":{"ha":732,"x_min":54,"x_max":685,"o":"m 596 574 q 598 607 597 589 q 600 644 600 624 q 553 860 600 789 q 409 932 507 932 q 245 876 326 932 l 267 964 q 427 1008 346 1008 q 620 919 555 1008 q 685 646 685 830 q 642 336 685 500 q 586 190 620 255 q 506 79 551 125 q 406 8 461 33 q 289 -16 351 -16 q 190 2 234 -16 q 116 53 146 20 q 70 135 86 87 q 54 241 54 182 q 153 559 54 419 q 411 700 252 700 q 593 574 536 700 l 596 574 m 585 473 q 415 623 543 623 q 219 508 295 623 q 144 245 144 392 q 154 168 144 202 q 184 109 164 134 q 232 72 203 85 q 296 58 260 58 q 397 89 350 58 q 483 174 445 119 q 546 305 520 229 q 585 473 572 381 z "},"∑":{"ha":852,"x_min":30,"x_max":823,"o":"m 30 -319 l 30 -280 l 503 332 l 63 926 l 63 972 l 787 972 l 787 889 l 198 889 l 612 335 l 171 -236 l 823 -236 l 823 -319 l 30 -319 z "},"∏":{"ha":1042,"x_min":128,"x_max":916,"o":"m 826 -319 l 826 889 l 218 889 l 218 -319 l 128 -319 l 128 972 l 916 972 l 916 -319 l 826 -319 z "},"∫":{"ha":732,"x_min":125,"x_max":607,"o":"m 607 946 q 531 965 578 965 q 410 806 410 965 l 410 -104 q 396 -191 410 -150 q 357 -264 383 -233 q 292 -314 331 -296 q 203 -333 254 -333 q 125 -320 154 -333 l 125 -239 q 201 -257 154 -257 q 323 -98 323 -257 l 323 811 q 336 901 323 859 q 375 974 349 943 q 440 1023 401 1005 q 530 1041 479 1041 q 607 1028 578 1041 l 607 946 z "},"ª":{"ha":525,"x_min":54,"x_max":452,"o":"m 378 486 l 378 568 l 376 568 q 307 498 350 523 q 211 474 264 474 q 146 485 175 474 q 96 514 117 495 q 65 558 76 533 q 54 614 54 584 q 224 774 54 751 l 378 795 q 271 922 378 922 q 98 861 180 922 l 98 937 q 277 987 179 987 q 408 939 363 987 q 452 801 452 892 l 452 486 l 378 486 m 275 722 q 210 710 238 717 q 164 691 182 703 q 137 661 146 679 q 128 618 128 644 q 154 558 128 581 q 227 536 180 536 q 285 549 257 536 q 342 595 313 562 q 370 643 361 617 q 378 698 378 669 l 378 736 l 275 722 z "},"º":{"ha":574,"x_min":51,"x_max":532,"o":"m 290 472 q 191 490 235 472 q 115 542 146 509 q 67 623 84 576 q 51 726 51 669 q 69 836 51 787 q 119 918 87 884 q 197 968 152 951 q 298 986 243 986 q 395 968 352 986 q 469 918 439 951 q 516 838 500 885 q 532 732 532 791 q 515 627 532 675 q 467 545 498 579 q 391 491 435 510 q 290 472 346 472 m 294 922 q 226 908 256 922 q 174 869 195 895 q 140 808 152 844 q 128 727 128 772 q 139 649 128 684 q 172 589 151 614 q 224 551 193 564 q 293 538 254 538 q 361 551 331 538 q 412 589 391 564 q 444 649 433 614 q 455 730 455 685 q 444 810 455 774 q 412 870 433 846 q 362 908 391 895 q 294 922 332 922 z "},"Ω":{"ha":1048,"x_min":68,"x_max":981,"o":"m 643 0 l 643 80 q 735 160 691 116 q 813 260 779 205 q 867 381 847 315 q 887 527 887 448 q 861 686 887 616 q 787 806 834 757 q 674 882 739 855 q 530 908 608 908 q 380 881 448 908 q 264 804 312 854 q 189 684 216 754 q 162 528 162 614 q 181 386 162 451 q 233 265 200 320 q 311 164 267 210 q 408 80 356 118 l 408 0 l 69 0 l 69 80 l 307 80 q 216 158 259 113 q 140 258 173 202 q 88 382 107 314 q 68 530 68 450 q 102 721 68 636 q 196 865 136 806 q 339 957 256 925 q 524 989 423 989 q 709 958 625 989 q 853 869 793 928 q 947 726 913 810 q 981 532 981 641 q 963 390 981 456 q 913 267 945 323 q 838 163 881 210 q 743 81 794 117 l 981 81 l 981 0 l 643 0 z "},"æ":{"ha":1160,"x_min":66,"x_max":1101,"o":"m 598 332 q 615 216 599 267 q 662 131 631 165 q 736 77 692 96 q 835 58 780 58 q 1057 140 954 58 l 1057 55 q 816 -16 959 -16 q 656 28 724 -16 q 553 157 589 73 l 551 157 q 287 -16 456 -16 q 194 -2 235 -16 q 125 38 153 12 q 81 100 96 64 q 66 182 66 137 q 132 336 66 281 q 327 399 197 392 l 512 408 q 358 635 512 635 q 132 549 236 635 l 132 642 q 368 711 237 711 q 570 557 525 711 l 572 557 q 823 711 654 711 q 942 687 890 711 q 1029 620 994 664 q 1083 514 1065 576 q 1101 374 1101 452 l 1101 332 l 598 332 m 1012 408 q 960 576 1008 517 q 823 635 911 635 q 741 620 779 635 q 674 575 703 604 q 627 503 646 545 q 600 408 608 461 l 1012 408 m 512 332 l 389 327 q 288 317 332 324 q 214 295 243 311 q 170 253 185 280 q 155 184 155 227 q 165 132 155 155 q 195 92 176 109 q 241 67 214 76 q 302 58 269 58 q 383 76 345 58 q 450 124 421 94 q 495 196 479 155 q 512 283 512 237 l 512 332 z "},"ø":{"ha":796,"x_min":26,"x_max":785,"o":"m 667 589 q 733 350 733 494 q 709 199 733 267 q 642 84 686 132 q 536 10 598 36 q 396 -16 473 -16 q 180 56 265 -16 l 75 -60 l 26 -14 l 134 105 q 63 341 63 201 q 87 496 63 428 q 157 612 112 565 q 267 685 203 660 q 409 711 330 711 q 622 639 539 711 l 735 763 l 785 718 l 667 589 m 565 577 q 403 635 505 635 q 299 615 345 635 q 220 558 252 595 q 170 466 187 520 q 153 342 153 411 q 195 170 153 241 l 565 577 m 237 117 q 401 58 301 58 q 505 78 459 58 q 581 135 550 98 q 628 225 612 172 q 644 347 644 279 q 606 522 644 450 l 237 117 z "},"¿":{"ha":610,"x_min":97,"x_max":557,"o":"m 401 426 q 412 381 407 408 q 417 326 417 353 q 406 262 417 291 q 377 209 395 234 q 336 161 359 184 q 288 114 313 138 q 249 75 268 95 q 216 33 231 55 q 193 -14 202 11 q 184 -68 184 -39 q 197 -131 184 -104 q 232 -177 210 -158 q 284 -205 254 -195 q 349 -215 314 -215 q 461 -193 410 -215 q 557 -128 513 -171 l 557 -224 q 454 -276 507 -259 q 340 -293 400 -293 q 245 -279 289 -293 q 168 -238 201 -265 q 116 -171 135 -211 q 97 -79 97 -132 q 107 -10 97 -41 q 135 49 118 22 q 174 99 153 76 q 219 145 196 123 q 270 195 248 173 q 307 238 292 217 q 330 279 322 258 q 338 326 338 300 q 332 383 338 357 q 319 426 326 408 l 401 426 m 358 708 q 383 703 372 708 q 404 689 395 698 q 417 668 412 680 q 422 643 422 656 q 417 617 422 629 q 404 597 412 606 q 383 584 395 589 q 358 578 372 578 q 311 597 330 578 q 293 643 293 616 q 298 668 293 656 q 312 689 303 680 q 333 703 321 698 q 358 708 345 708 z "}," ":{"ha":380,"x_min":0,"x_max":0,"o":""},"¡":{"ha":395,"x_min":132,"x_max":262,"o":"m 198 578 q 152 597 171 578 q 132 643 132 615 q 137 668 132 656 q 152 689 142 680 q 173 703 161 698 q 198 708 184 708 q 223 703 212 708 q 243 689 235 698 q 257 668 252 680 q 262 643 262 656 q 244 597 262 616 q 198 578 225 578 m 152 -276 l 162 422 l 237 422 l 246 -276 l 152 -276 z "},"¬":{"ha":926,"x_min":151,"x_max":777,"o":"m 703 136 l 703 420 l 151 420 l 151 494 l 777 494 l 777 136 l 703 136 z "},"√":{"ha":903,"x_min":89,"x_max":743,"o":"m 483 -1 l 418 -1 l 202 517 l 89 517 l 89 586 l 256 586 l 446 120 l 675 1028 l 743 1028 l 483 -1 z "},"ƒ":{"ha":732,"x_min":70,"x_max":631,"o":"m 631 883 q 572 897 605 897 q 444 774 462 897 l 422 626 l 536 626 l 536 551 l 411 551 l 347 92 q 270 -121 327 -53 q 125 -189 213 -189 q 100 -186 113 -189 q 70 -179 86 -184 l 70 -102 q 122 -114 95 -114 q 260 94 231 -114 l 324 551 l 254 551 l 254 626 l 336 626 l 363 806 q 387 877 369 846 q 432 929 406 908 q 493 962 459 951 q 564 972 527 972 q 631 962 601 972 l 631 883 z "},"≈":{"ha":927,"x_min":154,"x_max":773,"o":"m 773 633 q 723 495 768 544 q 600 447 677 447 q 441 512 529 447 q 328 564 372 564 q 227 450 233 564 l 154 450 q 169 528 156 493 q 203 586 181 562 q 257 624 226 610 q 328 637 289 637 q 474 580 397 637 q 516 551 498 563 q 549 532 534 539 q 577 522 564 525 q 604 519 590 519 q 672 549 647 519 q 701 633 698 578 l 773 633 m 773 361 q 723 223 768 272 q 600 175 677 175 q 441 240 529 175 q 328 292 372 292 q 227 178 233 292 l 154 178 q 169 256 156 221 q 203 314 181 290 q 257 352 226 338 q 328 365 289 365 q 474 308 397 365 q 516 279 498 291 q 549 260 534 267 q 577 250 564 253 q 604 247 590 247 q 672 277 647 247 q 701 361 698 307 l 773 361 z "},"Δ":{"ha":884,"x_min":45,"x_max":840,"o":"m 45 0 l 45 45 l 397 972 l 488 972 l 840 45 l 840 0 l 45 0 m 466 787 q 451 833 456 813 q 441 871 445 854 l 439 871 q 430 834 435 856 q 414 787 424 812 l 157 82 l 726 82 l 466 787 z "},"«":{"ha":674,"x_min":75,"x_max":600,"o":"m 270 136 l 75 363 l 270 597 l 361 597 l 166 363 l 361 136 l 270 136 m 509 136 l 313 363 l 509 597 l 600 597 l 405 363 l 600 136 l 509 136 z "},"»":{"ha":674,"x_min":75,"x_max":600,"o":"m 404 597 l 600 369 l 404 136 l 313 136 l 508 369 l 313 597 l 404 597 m 165 597 l 361 369 l 165 136 l 75 136 l 269 369 l 75 597 l 165 597 z "},"…":{"ha":971,"x_min":95,"x_max":876,"o":"m 810 -12 q 765 7 783 -12 q 747 54 747 26 q 765 100 747 81 q 810 119 783 119 q 836 114 824 119 q 856 99 847 109 q 870 79 865 90 q 876 54 876 67 q 857 7 876 25 q 810 -12 838 -12 m 484 -12 q 438 7 457 -12 q 419 54 419 26 q 424 79 419 67 q 438 99 429 90 q 459 114 448 109 q 484 119 471 119 q 509 113 497 119 q 530 99 521 108 q 544 78 538 90 q 549 54 549 66 q 530 7 549 26 q 484 -12 511 -12 m 159 -12 q 113 7 132 -12 q 95 54 95 26 q 113 100 95 81 q 159 119 132 119 q 184 114 172 119 q 204 99 195 109 q 219 79 214 90 q 224 54 224 67 q 205 7 224 26 q 159 -12 186 -12 z "},"À":{"ha":884,"x_min":27,"x_max":857,"o":"m 756 0 l 649 288 l 232 288 l 127 0 l 27 0 l 397 972 l 488 972 l 857 0 l 756 0 m 460 802 q 450 832 455 815 q 441 871 445 849 l 439 871 q 430 832 435 849 q 420 802 425 815 l 262 370 l 618 370 l 460 802 m 458 1052 l 285 1274 l 377 1274 l 531 1052 l 458 1052 z "},"Ã":{"ha":884,"x_min":27,"x_max":857,"o":"m 756 0 l 649 288 l 232 288 l 127 0 l 27 0 l 397 972 l 488 972 l 857 0 l 756 0 m 460 802 q 450 832 455 815 q 441 871 445 849 l 439 871 q 430 832 435 849 q 420 802 425 815 l 262 370 l 618 370 l 460 802 m 659 1213 q 650 1149 659 1178 q 626 1100 642 1121 q 588 1068 610 1080 q 537 1057 566 1057 q 431 1100 491 1057 q 351 1133 384 1133 q 286 1046 286 1133 l 230 1046 q 238 1109 230 1081 q 262 1158 247 1138 q 300 1190 278 1179 q 351 1201 323 1201 q 456 1159 397 1201 q 539 1124 504 1124 q 584 1146 567 1124 q 600 1213 600 1168 l 659 1213 z "},"Õ":{"ha":1052,"x_min":68,"x_max":983,"o":"m 522 -17 q 333 21 417 -17 q 190 126 249 60 q 100 282 132 193 q 68 475 68 372 q 100 684 68 589 q 192 846 132 779 q 340 951 252 913 q 539 989 427 989 q 724 952 642 989 q 864 849 806 915 q 952 694 922 784 q 983 500 983 605 q 953 295 983 389 q 864 131 923 200 q 720 22 806 62 q 522 -17 634 -17 m 530 907 q 373 873 441 907 q 258 782 305 840 q 188 648 212 725 q 163 484 163 571 q 184 326 162 401 q 251 192 206 250 q 363 100 295 134 q 522 65 431 65 q 681 97 612 65 q 796 184 750 128 q 866 317 842 240 q 889 486 889 395 q 868 648 889 572 q 804 782 848 725 q 692 873 760 840 q 530 907 625 907 m 744 1213 q 735 1149 744 1178 q 711 1100 727 1121 q 673 1068 696 1080 q 623 1057 651 1057 q 517 1100 576 1057 q 436 1133 469 1133 q 372 1046 372 1133 l 315 1046 q 324 1109 315 1081 q 348 1158 332 1138 q 386 1190 363 1179 q 437 1201 408 1201 q 541 1159 483 1201 q 625 1124 589 1124 q 669 1146 652 1124 q 686 1213 686 1168 l 744 1213 z "},"Œ":{"ha":1302,"x_min":68,"x_max":1217,"o":"m 734 0 q 651 -10 702 -3 q 530 -16 601 -16 q 336 20 422 -16 q 191 121 251 56 q 100 277 132 186 q 68 475 68 367 q 101 687 68 592 q 196 848 134 781 q 346 952 258 916 q 545 989 435 989 q 603 987 573 989 q 659 982 633 985 q 706 977 686 979 q 734 972 726 974 l 1195 972 l 1195 890 l 812 890 l 812 533 l 1167 533 l 1167 452 l 812 452 l 812 82 l 1217 82 l 1217 0 l 734 0 m 721 888 q 538 907 624 907 q 384 875 453 907 q 266 788 315 844 q 190 654 216 732 q 163 484 163 576 q 188 315 163 392 q 261 182 214 238 q 377 96 309 127 q 532 65 446 65 q 721 87 616 65 l 721 888 z "},"œ":{"ha":1284,"x_min":63,"x_max":1234,"o":"m 731 332 q 748 216 732 267 q 795 131 765 165 q 869 77 826 96 q 968 58 913 58 q 1190 140 1087 58 l 1190 55 q 950 -16 1090 -16 q 687 164 759 -16 l 684 164 q 396 -16 601 -16 q 257 9 319 -16 q 152 82 195 35 q 86 195 109 130 q 63 340 63 261 q 88 497 63 428 q 158 613 113 566 q 267 686 203 661 q 409 711 331 711 q 584 664 512 711 q 689 530 656 618 l 692 530 q 960 711 771 711 q 1077 687 1026 711 q 1163 621 1128 664 q 1216 515 1198 577 q 1234 376 1234 453 l 1234 332 l 731 332 m 1144 408 q 1092 575 1141 515 q 956 635 1043 635 q 873 619 911 635 q 806 573 835 603 q 758 501 777 543 q 733 408 739 459 l 1144 408 m 403 635 q 299 615 345 635 q 220 557 253 595 q 170 465 188 519 q 153 341 153 410 q 170 224 153 277 q 219 135 187 172 q 297 78 252 98 q 401 58 343 58 q 504 78 459 58 q 581 134 549 97 q 628 224 612 171 q 644 346 644 278 q 628 470 644 416 q 581 561 612 524 q 505 616 550 597 q 403 635 460 635 z "},"–":{"ha":694,"x_min":0,"x_max":694,"o":"m 0 359 l 0 434 l 694 434 l 694 359 l 0 359 z "},"—":{"ha":1389,"x_min":0,"x_max":1389,"o":"m 0 359 l 0 434 l 1389 434 l 1389 359 l 0 359 z "},"“":{"ha":494,"x_min":74,"x_max":427,"o":"m 347 677 l 261 677 l 361 981 l 427 981 l 347 677 m 161 677 l 74 677 l 174 981 l 239 981 l 161 677 z "},"”":{"ha":494,"x_min":75,"x_max":428,"o":"m 328 677 l 262 677 l 340 981 l 428 981 l 328 677 m 140 677 l 75 677 l 155 981 l 241 981 l 140 677 z "},"‘":{"ha":307,"x_min":74,"x_max":239,"o":"m 161 677 l 74 677 l 174 981 l 239 981 l 161 677 z "},"’":{"ha":307,"x_min":75,"x_max":241,"o":"m 140 677 l 75 677 l 155 981 l 241 981 l 140 677 z "},"÷":{"ha":926,"x_min":151,"x_max":777,"o":"m 467 588 q 423 606 441 588 q 405 650 405 624 q 422 694 405 676 q 467 713 440 713 q 511 696 495 713 q 527 650 527 680 q 509 606 527 623 q 467 588 492 588 m 151 368 l 151 441 l 777 441 l 777 368 l 151 368 m 465 97 q 441 102 452 97 q 421 115 429 106 q 408 134 412 123 q 403 158 403 145 q 421 203 403 184 q 465 222 439 222 q 509 205 494 222 q 525 159 525 189 q 520 135 525 146 q 508 115 516 123 q 489 102 500 106 q 465 97 478 97 z "},"◊":{"ha":790,"x_min":70,"x_max":722,"o":"m 418 0 l 372 0 l 70 485 l 372 972 l 418 972 l 722 486 l 418 0 m 395 890 l 148 486 l 395 80 l 644 486 l 395 890 z "},"ÿ":{"ha":650,"x_min":12,"x_max":642,"o":"m 313 -126 q 220 -277 273 -228 q 92 -326 167 -326 q 28 -317 54 -326 l 28 -236 q 59 -244 43 -241 q 90 -247 74 -247 q 164 -220 132 -247 q 218 -139 195 -193 l 279 3 l 12 694 l 108 694 l 307 144 q 314 120 311 134 q 321 92 318 106 l 325 92 q 331 116 328 104 q 340 142 334 127 l 551 694 l 642 694 l 313 -126 m 449 816 q 409 832 427 816 q 392 873 392 848 q 409 915 392 899 q 448 930 425 930 q 490 914 472 930 q 507 873 507 898 q 491 832 507 849 q 449 816 474 816 m 206 816 q 183 820 194 816 q 165 832 173 825 q 152 851 157 840 q 147 873 147 861 q 164 915 147 899 q 204 930 181 930 q 227 926 216 930 q 246 914 238 922 q 259 896 254 907 q 264 873 264 886 q 247 832 264 849 q 206 816 230 816 z "},"Ÿ":{"ha":759,"x_min":23,"x_max":736,"o":"m 418 364 l 418 0 l 328 0 l 328 362 l 23 972 l 125 972 l 348 518 q 359 494 352 510 q 375 452 366 477 l 377 452 q 389 481 381 465 q 407 517 396 497 l 640 972 l 736 972 l 418 364 m 496 1052 q 457 1068 474 1052 q 439 1109 439 1084 q 456 1151 439 1135 q 495 1166 473 1166 q 537 1150 519 1166 q 555 1109 555 1134 q 538 1068 555 1085 q 496 1052 522 1052 m 254 1052 q 231 1056 241 1052 q 212 1068 220 1061 q 199 1087 204 1076 q 195 1109 195 1097 q 212 1151 195 1135 q 252 1166 229 1166 q 275 1162 264 1166 q 294 1150 286 1158 q 307 1132 302 1143 q 311 1109 311 1122 q 294 1068 311 1085 q 254 1052 277 1052 z "},"⁄":{"ha":203,"x_min":-222,"x_max":443,"o":"m -140 0 l -222 0 l 361 972 l 443 972 l -140 0 z "},"€":{"ha":732,"x_min":61,"x_max":670,"o":"m 670 35 q 481 -16 581 -16 q 360 6 415 -16 q 263 72 305 28 q 193 181 221 116 q 151 333 165 247 l 61 333 l 61 409 l 144 409 q 142 437 142 422 q 141 469 141 452 q 145 552 141 509 l 61 552 l 61 628 l 156 628 q 204 780 172 713 q 281 893 236 847 q 385 964 327 940 q 508 989 442 989 q 670 951 597 989 l 670 862 q 501 913 592 913 q 415 893 456 913 q 340 838 374 874 q 282 748 307 801 q 244 628 258 695 l 597 628 l 597 552 l 233 552 q 231 521 232 538 q 231 485 231 505 q 231 447 231 466 q 233 409 231 427 l 597 409 l 597 333 l 242 333 q 329 128 264 197 q 489 59 393 59 q 670 120 576 59 l 670 35 z "},"‹":{"ha":435,"x_min":74,"x_max":360,"o":"m 269 136 l 74 363 l 269 597 l 360 597 l 165 363 l 360 136 l 269 136 z "},"›":{"ha":435,"x_min":75,"x_max":361,"o":"m 75 136 l 269 363 l 75 597 l 165 597 l 361 363 l 165 136 l 75 136 z "},"ﬁ":{"ha":639,"x_min":22,"x_max":522,"o":"m 435 0 l 435 618 l 230 618 l 230 0 l 143 0 l 143 618 l 22 618 l 22 694 l 143 694 l 143 719 q 153 844 143 785 q 189 946 163 903 q 262 1016 216 990 q 382 1042 309 1042 q 414 1041 398 1042 q 446 1038 431 1040 q 473 1035 460 1037 q 492 1030 485 1033 l 492 954 q 469 959 480 957 q 445 963 457 961 q 416 965 432 964 q 378 966 400 966 q 306 950 334 966 q 260 904 277 935 q 236 827 243 873 q 230 719 230 781 l 230 694 l 522 694 l 522 0 l 435 0 z "},"ﬂ":{"ha":663,"x_min":30,"x_max":551,"o":"m 464 0 l 464 965 q 444 966 458 966 q 423 966 431 966 q 345 955 379 966 q 286 918 310 943 q 250 850 262 892 q 238 746 238 808 l 238 694 l 390 694 l 390 618 l 238 618 l 238 0 l 151 0 l 151 618 l 30 618 l 30 694 l 151 694 l 151 746 q 167 866 151 812 q 216 960 182 921 q 301 1020 250 999 q 427 1042 353 1042 q 461 1041 443 1042 q 497 1038 480 1040 q 529 1035 515 1037 q 551 1030 543 1033 l 551 0 l 464 0 z "},"‡":{"ha":517,"x_min":31,"x_max":486,"o":"m 486 352 l 284 369 l 308 155 l 216 155 l 239 369 l 31 352 l 31 440 l 219 423 l 252 564 l 219 704 l 31 687 l 31 775 l 239 758 l 216 972 l 308 972 l 284 758 l 486 775 l 486 687 l 304 704 l 272 564 l 304 423 l 486 440 l 486 352 z "},"·":{"ha":304,"x_min":87,"x_max":218,"o":"m 152 412 q 106 431 125 412 q 87 477 87 450 q 105 524 87 505 q 152 543 124 543 q 177 538 165 543 q 198 525 189 533 q 212 504 207 516 q 218 477 218 492 q 212 452 218 464 q 198 431 207 440 q 177 417 189 422 q 152 412 165 412 z "},"‚":{"ha":307,"x_min":56,"x_max":221,"o":"m 121 -153 l 56 -153 l 136 148 l 221 148 l 121 -153 z "},"„":{"ha":494,"x_min":56,"x_max":408,"o":"m 309 -155 l 243 -155 l 321 148 l 408 148 l 309 -155 m 121 -155 l 56 -155 l 136 148 l 221 148 l 121 -155 z "},"‰":{"ha":1662,"x_min":56,"x_max":1613,"o":"m 278 490 q 185 507 227 490 q 115 557 144 525 q 71 634 86 589 q 56 734 56 679 q 73 842 56 794 q 120 922 90 889 q 193 972 151 955 q 288 989 236 989 q 380 972 339 989 q 449 924 420 956 q 493 846 477 892 q 508 742 508 800 q 491 641 508 687 q 445 561 475 595 q 373 509 415 528 q 278 490 330 490 m 286 924 q 221 911 250 924 q 173 874 193 899 q 142 815 153 850 q 132 736 132 781 q 171 603 132 652 q 282 554 211 554 q 346 567 318 554 q 393 605 374 581 q 422 664 412 629 q 432 741 432 699 q 393 877 432 830 q 286 924 353 924 m 292 -14 l 210 -14 l 815 972 l 897 972 l 292 -14 m 1383 -16 q 1290 2 1331 -16 q 1220 52 1249 20 q 1176 129 1192 84 q 1161 229 1161 174 q 1178 336 1161 288 q 1225 416 1195 383 q 1299 467 1256 450 q 1394 485 1342 485 q 1485 468 1444 485 q 1554 418 1526 450 q 1597 340 1582 387 q 1613 236 1613 294 q 1596 135 1613 181 q 1550 55 1580 89 q 1478 3 1520 22 q 1383 -16 1435 -16 m 1391 418 q 1278 369 1319 418 q 1238 231 1238 320 q 1277 97 1238 144 q 1387 49 1317 49 q 1498 99 1459 49 q 1538 236 1538 149 q 1498 372 1538 326 q 1391 418 1459 418 m 833 -16 q 741 2 783 -16 q 671 52 700 20 q 627 129 642 83 q 611 229 611 174 q 628 336 611 288 q 675 416 645 383 q 749 467 706 450 q 844 485 792 485 q 935 468 895 485 q 1004 419 976 451 q 1048 341 1033 387 q 1063 236 1063 294 q 1047 135 1063 181 q 1000 55 1030 89 q 928 3 970 22 q 833 -16 886 -16 m 841 418 q 777 406 806 418 q 729 369 749 393 q 698 310 709 345 q 687 231 687 275 q 697 155 687 189 q 727 97 708 121 q 774 61 747 74 q 838 49 802 49 q 901 62 873 49 q 948 99 928 75 q 978 158 967 123 q 988 236 988 193 q 949 372 988 326 q 841 418 909 418 z "},"Â":{"ha":884,"x_min":27,"x_max":857,"o":"m 756 0 l 649 288 l 232 288 l 127 0 l 27 0 l 397 972 l 488 972 l 857 0 l 756 0 m 460 802 q 450 832 455 815 q 441 871 445 849 l 439 871 q 430 832 435 849 q 420 802 425 815 l 262 370 l 618 370 l 460 802 m 544 1052 l 435 1211 l 325 1052 l 258 1052 l 406 1278 l 467 1278 l 614 1052 l 544 1052 z "},"Ê":{"ha":699,"x_min":126,"x_max":622,"o":"m 126 0 l 126 972 l 600 972 l 600 890 l 216 890 l 216 533 l 572 533 l 572 452 l 216 452 l 216 82 l 622 82 l 622 0 l 126 0 m 476 1052 l 367 1211 l 257 1052 l 191 1052 l 338 1278 l 399 1278 l 547 1052 l 476 1052 z "},"Á":{"ha":884,"x_min":27,"x_max":857,"o":"m 756 0 l 649 288 l 232 288 l 127 0 l 27 0 l 397 972 l 488 972 l 857 0 l 756 0 m 460 802 q 450 832 455 815 q 441 871 445 849 l 439 871 q 430 832 435 849 q 420 802 425 815 l 262 370 l 618 370 l 460 802 m 396 1052 l 323 1052 l 477 1274 l 569 1274 l 396 1052 z "},"Ë":{"ha":699,"x_min":126,"x_max":622,"o":"m 126 0 l 126 972 l 600 972 l 600 890 l 216 890 l 216 533 l 572 533 l 572 452 l 216 452 l 216 82 l 622 82 l 622 0 l 126 0 m 496 1052 q 456 1068 473 1052 q 439 1109 439 1084 q 455 1151 439 1135 q 494 1166 472 1166 q 536 1150 519 1166 q 554 1109 554 1134 q 537 1068 554 1085 q 496 1052 521 1052 m 253 1052 q 230 1056 241 1052 q 212 1068 220 1061 q 199 1087 203 1076 q 194 1109 194 1097 q 211 1151 194 1135 q 251 1166 228 1166 q 274 1162 263 1166 q 293 1150 285 1158 q 306 1132 301 1143 q 311 1109 311 1122 q 294 1068 311 1085 q 253 1052 277 1052 z "},"È":{"ha":699,"x_min":126,"x_max":622,"o":"m 126 0 l 126 972 l 600 972 l 600 890 l 216 890 l 216 533 l 572 533 l 572 452 l 216 452 l 216 82 l 622 82 l 622 0 l 126 0 m 384 1052 l 211 1274 l 303 1274 l 457 1052 l 384 1052 z "},"Í":{"ha":343,"x_min":98,"x_max":345,"o":"m 216 0 l 126 0 l 126 972 l 216 972 l 216 0 m 172 1052 l 98 1052 l 253 1274 l 345 1274 l 172 1052 z "},"Î":{"ha":343,"x_min":-5,"x_max":351,"o":"m 216 0 l 126 0 l 126 972 l 216 972 l 216 0 m 281 1052 l 172 1211 l 62 1052 l -5 1052 l 143 1278 l 203 1278 l 351 1052 l 281 1052 z "},"Ï":{"ha":343,"x_min":-7,"x_max":353,"o":"m 216 0 l 126 0 l 126 972 l 216 972 l 216 0 m 294 1052 q 255 1068 272 1052 q 237 1109 237 1084 q 254 1151 237 1135 q 293 1166 271 1166 q 335 1150 317 1166 q 353 1109 353 1134 q 336 1068 353 1085 q 294 1052 319 1052 m 52 1052 q 29 1056 39 1052 q 10 1068 18 1061 q -3 1087 2 1076 q -7 1109 -7 1097 q 9 1151 -7 1135 q 50 1166 26 1166 q 73 1162 62 1166 q 92 1150 83 1158 q 104 1132 100 1143 q 109 1109 109 1122 q 92 1068 109 1085 q 52 1052 75 1052 z "},"Ì":{"ha":343,"x_min":-3,"x_max":243,"o":"m 216 0 l 126 0 l 126 972 l 216 972 l 216 0 m 170 1052 l -3 1274 l 90 1274 l 243 1052 l 170 1052 z "},"Ó":{"ha":1052,"x_min":68,"x_max":983,"o":"m 522 -17 q 333 21 417 -17 q 190 126 249 60 q 100 282 132 193 q 68 475 68 372 q 100 684 68 589 q 192 846 132 779 q 340 951 252 913 q 539 989 427 989 q 724 952 642 989 q 864 849 806 915 q 952 694 922 784 q 983 500 983 605 q 953 295 983 389 q 864 131 923 200 q 720 22 806 62 q 522 -17 634 -17 m 530 907 q 373 873 441 907 q 258 782 305 840 q 188 648 212 725 q 163 484 163 571 q 184 326 162 401 q 251 192 206 250 q 363 100 295 134 q 522 65 431 65 q 681 97 612 65 q 796 184 750 128 q 866 317 842 240 q 889 486 889 395 q 868 648 889 572 q 804 782 848 725 q 692 873 760 840 q 530 907 625 907 m 507 1052 l 434 1052 l 589 1274 l 680 1274 l 507 1052 z "},"Ô":{"ha":1052,"x_min":68,"x_max":983,"o":"m 522 -17 q 333 21 417 -17 q 190 126 249 60 q 100 282 132 193 q 68 475 68 372 q 100 684 68 589 q 192 846 132 779 q 340 951 252 913 q 539 989 427 989 q 724 952 642 989 q 864 849 806 915 q 952 694 922 784 q 983 500 983 605 q 953 295 983 389 q 864 131 923 200 q 720 22 806 62 q 522 -17 634 -17 m 530 907 q 373 873 441 907 q 258 782 305 840 q 188 648 212 725 q 163 484 163 571 q 184 326 162 401 q 251 192 206 250 q 363 100 295 134 q 522 65 431 65 q 681 97 612 65 q 796 184 750 128 q 866 317 842 240 q 889 486 889 395 q 868 648 889 572 q 804 782 848 725 q 692 873 760 840 q 530 907 625 907 m 636 1052 l 527 1211 l 417 1052 l 351 1052 l 498 1278 l 559 1278 l 707 1052 l 636 1052 z "},"Ò":{"ha":1052,"x_min":68,"x_max":983,"o":"m 522 -17 q 333 21 417 -17 q 190 126 249 60 q 100 282 132 193 q 68 475 68 372 q 100 684 68 589 q 192 846 132 779 q 340 951 252 913 q 539 989 427 989 q 724 952 642 989 q 864 849 806 915 q 952 694 922 784 q 983 500 983 605 q 953 295 983 389 q 864 131 923 200 q 720 22 806 62 q 522 -17 634 -17 m 530 907 q 373 873 441 907 q 258 782 305 840 q 188 648 212 725 q 163 484 163 571 q 184 326 162 401 q 251 192 206 250 q 363 100 295 134 q 522 65 431 65 q 681 97 612 65 q 796 184 750 128 q 866 317 842 240 q 889 486 889 395 q 868 648 889 572 q 804 782 848 725 q 692 873 760 840 q 530 907 625 907 m 549 1052 l 376 1274 l 468 1274 l 622 1052 l 549 1052 z "},"Ú":{"ha":927,"x_min":114,"x_max":813,"o":"m 813 391 q 455 -17 813 -17 q 114 376 114 -17 l 114 972 l 204 972 l 204 384 q 269 144 204 224 q 468 65 333 65 q 723 374 723 65 l 723 972 l 813 972 l 813 391 m 461 1052 l 388 1052 l 543 1274 l 634 1274 l 461 1052 z "},"Û":{"ha":927,"x_min":114,"x_max":813,"o":"m 813 391 q 455 -17 813 -17 q 114 376 114 -17 l 114 972 l 204 972 l 204 384 q 269 144 204 224 q 468 65 333 65 q 723 374 723 65 l 723 972 l 813 972 l 813 391 m 585 1052 l 475 1211 l 366 1052 l 299 1052 l 447 1278 l 507 1278 l 655 1052 l 585 1052 z "},"Ù":{"ha":927,"x_min":114,"x_max":813,"o":"m 813 391 q 455 -17 813 -17 q 114 376 114 -17 l 114 972 l 204 972 l 204 384 q 269 144 204 224 q 468 65 333 65 q 723 374 723 65 l 723 972 l 813 972 l 813 391 m 470 1052 l 297 1274 l 389 1274 l 543 1052 l 470 1052 z "},"ı":{"ha":311,"x_min":112,"x_max":199,"o":"m 112 0 l 112 694 l 199 694 l 199 0 l 112 0 z "},"ˆ":{"ha":517,"x_min":75,"x_max":431,"o":"m 360 816 l 251 975 l 141 816 l 75 816 l 222 1042 l 283 1042 l 431 816 l 360 816 z "},"˜":{"ha":454,"x_min":26,"x_max":454,"o":"m 454 977 q 446 913 454 942 q 422 864 437 885 q 384 832 406 844 q 333 821 361 821 q 227 864 287 821 q 146 897 180 897 q 82 810 82 897 l 26 810 q 34 873 26 845 q 58 922 43 902 q 96 954 74 943 q 147 965 119 965 q 252 923 193 965 q 335 888 300 888 q 379 910 363 888 q 396 977 396 932 l 454 977 z "},"ˉ":{"ha":431,"x_min":42,"x_max":387,"o":"m 42 816 l 42 881 l 387 881 l 387 816 l 42 816 z "},"˘":{"ha":418,"x_min":25,"x_max":393,"o":"m 393 981 q 372 913 388 943 q 332 861 357 883 q 276 828 308 840 q 206 816 243 816 q 135 827 168 816 q 79 860 103 839 q 41 912 56 882 q 25 981 27 943 l 87 981 q 123 902 92 929 q 208 874 154 874 q 251 882 231 874 q 288 904 271 890 q 314 937 304 918 q 328 981 325 957 l 393 981 z "},"˙":{"ha":263,"x_min":72,"x_max":191,"o":"m 132 816 q 109 820 119 816 q 90 833 98 825 q 77 852 81 841 q 72 876 72 863 q 77 899 72 888 q 90 917 81 909 q 108 929 98 924 q 131 933 119 933 q 173 917 155 933 q 191 876 191 901 q 174 833 191 850 q 132 816 157 816 z "},"˚":{"ha":396,"x_min":60,"x_max":336,"o":"m 197 802 q 145 810 170 802 q 102 836 121 819 q 72 876 83 852 q 60 928 60 899 q 71 981 60 957 q 101 1022 82 1004 q 145 1048 120 1039 q 199 1058 170 1058 q 251 1049 226 1058 q 294 1024 275 1040 q 325 983 313 1007 q 336 930 336 960 q 325 879 336 903 q 295 839 314 856 q 250 811 275 821 q 197 802 225 802 m 197 1008 q 138 986 161 1008 q 116 930 116 964 q 138 872 116 892 q 197 852 159 852 q 230 858 215 852 q 257 874 245 863 q 274 899 268 884 q 280 930 280 913 q 256 987 280 966 q 197 1008 233 1008 z "},"¸":{"ha":282,"x_min":37,"x_max":265,"o":"m 265 -176 q 85 -294 265 -294 q 37 -292 60 -294 l 37 -236 q 90 -240 68 -240 q 191 -178 191 -240 q 98 -123 191 -123 q 82 -123 91 -123 q 63 -125 74 -124 l 63 0 l 124 0 l 124 -75 q 229 -101 192 -75 q 265 -176 265 -127 z "},"˝":{"ha":439,"x_min":45,"x_max":427,"o":"m 260 816 l 202 816 l 345 1031 l 427 1031 l 260 816 m 102 816 l 45 816 l 186 1031 l 268 1031 l 102 816 z "},"˛":{"ha":251,"x_min":37,"x_max":218,"o":"m 218 0 q 109 -157 109 -94 q 161 -211 109 -211 q 207 -201 184 -211 l 207 -260 q 147 -271 181 -271 q 67 -244 98 -271 q 37 -168 37 -217 q 65 -85 37 -129 q 148 0 93 -41 l 218 0 z "},"ˇ":{"ha":517,"x_min":84,"x_max":439,"o":"m 292 816 l 232 816 l 84 1042 l 153 1042 l 262 882 l 372 1042 l 439 1042 l 292 816 z "},"Ł":{"ha":645,"x_min":35,"x_max":607,"o":"m 126 0 l 126 378 l 35 322 l 35 406 l 126 463 l 126 972 l 216 972 l 216 518 l 452 663 l 452 578 l 216 434 l 216 82 l 607 82 l 607 0 l 126 0 z "},"ł":{"ha":360,"x_min":16,"x_max":342,"o":"m 221 471 l 221 0 l 134 0 l 134 410 l 16 323 l 16 409 l 134 496 l 134 1028 l 221 1028 l 221 557 l 342 644 l 342 558 l 221 471 z "},"Š":{"ha":714,"x_min":88,"x_max":639,"o":"m 88 142 q 142 110 113 124 q 202 85 172 95 q 264 70 233 75 q 324 65 296 65 q 490 108 435 65 q 545 231 545 151 q 532 298 545 269 q 492 352 519 327 q 423 402 465 377 q 326 458 382 427 q 219 522 263 492 q 146 584 174 552 q 105 652 118 615 q 92 735 92 688 q 117 841 92 794 q 184 921 142 888 q 284 971 227 954 q 407 989 342 989 q 599 957 522 989 l 599 857 q 397 907 513 907 q 315 896 353 907 q 248 865 277 886 q 202 815 219 845 q 186 745 186 785 q 197 679 186 707 q 233 627 208 652 q 298 579 258 603 q 397 524 338 555 q 503 460 458 491 q 579 396 549 429 q 624 325 609 362 q 639 241 639 287 q 615 129 639 177 q 549 48 591 80 q 447 0 506 16 q 317 -16 388 -16 q 262 -13 294 -16 q 198 -2 231 -9 q 136 15 165 5 q 88 37 106 25 l 88 142 m 399 1052 l 339 1052 l 191 1278 l 260 1278 l 369 1118 l 479 1278 l 547 1278 l 399 1052 z "},"š":{"ha":564,"x_min":73,"x_max":503,"o":"m 73 125 q 115 97 92 109 q 163 76 138 85 q 212 63 187 67 q 259 58 237 58 q 414 174 414 58 q 403 220 414 201 q 372 255 392 239 q 323 285 351 271 q 258 313 294 298 q 176 353 210 333 q 119 398 141 374 q 85 451 96 422 q 75 516 75 479 q 95 598 75 562 q 149 659 115 634 q 227 697 182 684 q 320 711 271 711 q 477 677 410 711 l 477 585 q 309 635 399 635 q 250 627 277 635 q 204 604 223 619 q 175 569 185 589 q 164 523 164 548 q 172 478 164 497 q 198 443 180 458 q 242 413 215 427 q 309 382 270 399 q 396 342 359 362 q 456 299 433 322 q 492 247 480 275 q 503 180 503 218 q 484 96 503 133 q 430 35 465 60 q 350 -3 396 9 q 250 -16 304 -16 q 73 28 144 -16 l 73 125 m 309 816 l 249 816 l 101 1042 l 170 1042 l 279 882 l 389 1042 l 456 1042 l 309 816 z "},"Ž":{"ha":791,"x_min":33,"x_max":749,"o":"m 169 82 l 738 82 l 738 0 l 33 0 l 33 26 l 610 890 l 79 890 l 79 972 l 749 972 l 749 949 l 169 82 m 452 1052 l 392 1052 l 244 1278 l 313 1278 l 422 1118 l 532 1278 l 600 1278 l 452 1052 z "},"ž":{"ha":636,"x_min":31,"x_max":601,"o":"m 163 76 l 591 76 l 591 0 l 31 0 l 31 29 l 467 618 l 66 618 l 66 694 l 601 694 l 601 670 l 163 76 m 372 816 l 312 816 l 164 1042 l 233 1042 l 342 882 l 452 1042 l 519 1042 l 372 816 z "},"¦":{"ha":323,"x_min":121,"x_max":203,"o":"m 121 485 l 121 1062 l 203 1062 l 203 485 l 121 485 m 121 -326 l 121 251 l 203 251 l 203 -326 l 121 -326 z "},"Ð":{"ha":955,"x_min":21,"x_max":886,"o":"m 21 526 l 126 526 l 126 972 l 382 972 q 759 853 631 972 q 886 499 886 733 q 851 294 886 387 q 748 137 815 202 q 585 36 681 71 q 370 0 490 0 l 126 0 l 126 444 l 21 444 l 21 526 m 216 890 l 216 526 l 467 526 l 467 444 l 216 444 l 216 82 l 366 82 q 545 109 466 82 q 679 189 624 136 q 763 319 734 241 q 791 496 791 396 q 376 890 791 890 l 216 890 z "},"ð":{"ha":758,"x_min":63,"x_max":694,"o":"m 541 655 q 399 846 475 772 l 197 744 l 168 801 l 353 890 q 178 1027 269 965 l 303 1027 q 360 983 330 1008 q 425 928 390 959 l 625 1027 l 655 972 l 471 882 q 568 765 526 827 q 637 636 610 703 q 680 497 665 568 q 694 351 694 425 q 672 205 694 272 q 610 89 650 138 q 510 12 569 39 q 378 -16 452 -16 q 244 9 302 -16 q 145 81 185 35 q 84 194 104 127 q 63 341 63 260 q 86 490 63 422 q 151 607 109 558 q 252 683 193 656 q 384 710 311 710 q 538 652 476 710 l 541 655 m 386 635 q 290 615 333 635 q 216 556 247 594 q 169 463 186 517 q 153 342 153 409 q 168 224 153 277 q 213 135 184 172 q 285 78 243 98 q 382 58 328 58 q 475 79 434 58 q 545 138 516 100 q 589 229 574 176 q 604 347 604 281 q 386 635 604 635 z "},"Ý":{"ha":759,"x_min":23,"x_max":736,"o":"m 418 364 l 418 0 l 328 0 l 328 362 l 23 972 l 125 972 l 348 518 q 359 494 352 510 q 375 452 366 477 l 377 452 q 389 481 381 465 q 407 517 396 497 l 640 972 l 736 972 l 418 364 m 370 1052 l 296 1052 l 451 1274 l 543 1274 l 370 1052 z "},"ý":{"ha":650,"x_min":12,"x_max":642,"o":"m 313 -126 q 220 -277 273 -228 q 92 -326 167 -326 q 28 -317 54 -326 l 28 -236 q 59 -244 43 -241 q 90 -247 74 -247 q 164 -220 132 -247 q 218 -139 195 -193 l 279 3 l 12 694 l 108 694 l 307 144 q 314 120 311 134 q 321 92 318 106 l 325 92 q 331 116 328 104 q 340 142 334 127 l 551 694 l 642 694 l 313 -126 m 321 816 l 248 816 l 402 1038 l 494 1038 l 321 816 z "},"Þ":{"ha":766,"x_min":126,"x_max":695,"o":"m 216 221 l 216 0 l 126 0 l 126 972 l 216 972 l 216 815 l 377 815 q 614 743 534 815 q 695 533 695 671 q 668 400 695 458 q 595 302 642 342 q 485 242 548 262 q 348 221 421 221 l 216 221 m 216 732 l 216 304 l 345 304 q 535 361 469 304 q 601 526 601 418 q 361 732 601 732 l 216 732 z "},"þ":{"ha":797,"x_min":112,"x_max":734,"o":"m 199 112 l 199 -319 l 112 -319 l 112 1028 l 199 1028 l 199 562 l 201 562 q 305 672 240 634 q 451 711 370 711 q 570 687 517 711 q 659 618 623 663 q 714 511 695 574 q 734 370 734 448 q 712 213 734 283 q 650 91 690 142 q 551 12 609 40 q 420 -16 493 -16 q 201 112 274 -16 l 199 112 m 199 289 q 215 200 199 241 q 259 126 231 158 q 328 77 288 95 q 417 58 368 58 q 511 80 469 58 q 583 143 553 102 q 628 241 612 184 q 644 370 644 299 q 629 480 644 431 q 587 564 614 530 q 520 617 559 599 q 433 635 481 635 q 336 615 379 635 q 262 561 292 595 q 215 480 231 526 q 199 381 199 433 l 199 289 z "},"−":{"ha":926,"x_min":151,"x_max":777,"o":"m 151 368 l 151 441 l 777 441 l 777 368 l 151 368 z "},"×":{"ha":926,"x_min":183,"x_max":743,"o":"m 691 124 l 463 353 l 235 124 l 183 176 l 412 404 l 183 633 l 235 685 l 463 456 l 691 685 l 743 633 l 515 404 l 743 176 l 691 124 z "},"½":{"ha":1117,"x_min":52,"x_max":1049,"o":"m 215 396 l 215 888 q 170 855 193 870 q 124 829 146 840 q 83 809 102 817 q 52 798 64 802 l 52 863 q 106 887 78 872 q 162 920 135 902 q 214 956 190 937 q 256 989 239 974 l 288 989 l 288 396 l 215 396 m 301 0 l 219 0 l 802 972 l 884 972 l 301 0 m 1049 1 l 686 1 l 686 66 q 706 137 686 105 q 758 196 727 168 q 825 249 789 223 q 892 301 861 275 q 944 358 924 328 q 965 425 965 388 q 939 496 965 471 q 865 521 913 521 q 716 453 786 521 l 716 538 q 873 591 783 591 q 944 579 912 591 q 997 547 975 568 q 1031 497 1019 526 q 1042 433 1042 468 q 1022 347 1042 385 q 970 278 1001 309 q 903 222 939 248 q 837 174 867 197 q 785 130 806 151 q 764 86 764 109 l 764 73 l 1049 73 l 1049 1 z "},"¼":{"ha":1026,"x_min":52,"x_max":1000,"o":"m 215 396 l 215 888 q 170 855 193 870 q 124 829 146 840 q 83 809 102 817 q 52 798 64 802 l 52 863 q 106 887 78 872 q 162 920 135 902 q 214 956 190 937 q 256 989 239 974 l 288 989 l 288 396 l 215 396 m 301 0 l 219 0 l 802 972 l 884 972 l 301 0 m 926 144 l 926 1 l 853 1 l 853 144 l 587 144 l 587 203 q 647 276 617 237 q 709 361 677 315 q 773 460 741 406 q 842 577 806 513 l 926 577 l 926 208 l 1000 208 l 1000 144 l 926 144 m 853 477 q 807 397 829 434 q 762 327 784 359 q 718 264 740 294 q 673 208 696 235 l 853 208 l 853 477 z "},"¾":{"ha":1026,"x_min":60,"x_max":1000,"o":"m 399 555 q 385 485 399 517 q 344 430 370 453 q 281 393 318 406 q 198 380 244 380 q 60 414 116 380 l 60 495 q 200 448 130 448 q 291 476 258 448 q 323 553 323 505 q 170 658 323 658 l 117 658 l 117 725 l 165 725 q 305 829 305 725 q 204 916 305 916 q 83 874 147 916 l 83 952 q 220 985 146 985 q 285 975 256 985 q 336 945 315 964 q 368 900 357 926 q 379 842 379 873 q 280 699 379 735 l 280 696 q 369 646 339 683 q 399 555 399 610 m 301 0 l 219 0 l 802 972 l 884 972 l 301 0 m 926 144 l 926 1 l 853 1 l 853 144 l 587 144 l 587 203 q 647 276 617 237 q 709 361 677 315 q 773 460 741 406 q 842 577 806 513 l 926 577 l 926 208 l 1000 208 l 1000 144 l 926 144 m 853 477 q 807 397 829 434 q 762 327 784 359 q 718 264 740 294 q 673 208 696 235 l 853 208 l 853 477 z "},"₣":{"ha":662,"x_min":18,"x_max":600,"o":"m 391 203 l 216 203 l 216 0 l 126 0 l 126 203 l 18 203 l 18 287 l 126 287 l 126 972 l 600 972 l 600 890 l 216 890 l 216 524 l 572 524 l 572 441 l 216 441 l 216 287 l 391 287 l 391 203 z "},"Ğ":{"ha":940,"x_min":68,"x_max":841,"o":"m 841 67 q 524 -17 691 -17 q 334 19 418 -17 q 191 120 250 56 q 100 275 132 185 q 68 473 68 365 q 84 610 68 544 q 129 733 99 675 q 201 838 158 791 q 299 918 243 884 q 420 970 354 952 q 564 989 487 989 q 821 937 708 989 l 821 838 q 553 907 696 907 q 392 874 464 907 q 270 785 320 842 q 191 650 219 728 q 163 481 163 572 q 186 315 162 391 q 258 183 210 239 q 375 96 305 127 q 536 65 445 65 q 751 117 660 65 l 751 413 l 530 413 l 530 495 l 841 495 l 841 67 m 719 1217 q 699 1149 714 1179 q 659 1097 683 1119 q 602 1064 634 1076 q 532 1052 570 1052 q 461 1063 494 1052 q 406 1096 429 1075 q 368 1148 382 1118 q 351 1217 353 1179 l 414 1217 q 449 1138 418 1165 q 534 1110 480 1110 q 577 1118 557 1110 q 614 1140 597 1126 q 641 1173 630 1154 q 654 1217 651 1193 l 719 1217 z "},"ğ":{"ha":798,"x_min":63,"x_max":686,"o":"m 686 54 q 598 -233 686 -140 q 327 -326 510 -326 q 111 -275 213 -326 l 111 -187 q 327 -250 224 -250 q 599 37 599 -250 l 599 121 l 596 121 q 352 -16 516 -16 q 234 7 288 -16 q 143 76 181 31 q 84 185 105 121 q 63 330 63 249 q 85 485 63 415 q 149 606 108 555 q 249 683 191 656 q 381 711 308 711 q 596 591 528 711 l 599 591 l 599 694 l 686 694 l 686 54 m 599 422 q 583 504 599 465 q 540 572 568 543 q 474 618 512 601 q 389 635 435 635 q 291 614 335 635 q 217 555 248 593 q 169 461 186 516 q 153 336 153 406 q 168 221 153 273 q 212 134 184 170 q 281 78 241 98 q 371 58 321 58 q 465 77 422 58 q 536 129 507 96 q 583 206 566 161 q 599 302 599 250 l 599 422 m 581 981 q 560 913 576 943 q 520 861 545 883 q 464 828 496 840 q 394 816 431 816 q 323 827 355 816 q 267 860 291 839 q 229 912 243 882 q 213 981 215 943 l 275 981 q 311 902 279 929 q 395 874 342 874 q 439 882 418 874 q 475 904 459 890 q 502 937 492 918 q 516 981 513 957 l 581 981 z "},"İ":{"ha":343,"x_min":112,"x_max":231,"o":"m 216 0 l 126 0 l 126 972 l 216 972 l 216 0 m 172 1052 q 149 1056 159 1052 q 130 1069 138 1061 q 117 1088 121 1077 q 112 1112 112 1099 q 117 1135 112 1124 q 130 1153 121 1145 q 148 1165 138 1160 q 171 1169 159 1169 q 213 1153 195 1169 q 231 1112 231 1137 q 214 1069 231 1086 q 172 1052 197 1052 z "},"Ş":{"ha":714,"x_min":88,"x_max":639,"o":"m 88 142 q 142 110 113 124 q 202 85 172 95 q 264 70 233 75 q 324 65 296 65 q 490 108 435 65 q 545 231 545 151 q 532 298 545 269 q 492 352 519 327 q 423 402 465 377 q 326 458 382 427 q 219 522 263 492 q 146 584 174 552 q 105 652 118 615 q 92 735 92 688 q 117 841 92 794 q 184 921 142 888 q 284 971 227 954 q 407 989 342 989 q 599 957 522 989 l 599 857 q 397 907 513 907 q 315 896 353 907 q 248 865 277 886 q 202 815 219 845 q 186 745 186 785 q 197 679 186 707 q 233 627 208 652 q 298 579 258 603 q 397 524 338 555 q 503 460 458 491 q 579 396 549 429 q 624 325 609 362 q 639 241 639 287 q 615 129 639 177 q 549 48 591 80 q 447 0 506 16 q 317 -16 388 -16 q 262 -13 294 -16 q 198 -2 231 -9 q 136 15 165 5 q 88 37 106 25 l 88 142 m 511 -176 q 331 -294 511 -294 q 282 -292 306 -294 l 282 -236 q 335 -240 314 -240 q 437 -178 437 -240 q 344 -123 437 -123 q 328 -123 336 -123 q 309 -125 319 -124 l 309 0 l 370 0 l 370 -75 q 474 -101 437 -75 q 511 -176 511 -127 z "},"ş":{"ha":564,"x_min":73,"x_max":503,"o":"m 73 125 q 115 97 92 109 q 163 76 138 85 q 212 63 187 67 q 259 58 237 58 q 414 174 414 58 q 403 220 414 201 q 372 255 392 239 q 323 285 351 271 q 258 313 294 298 q 176 353 210 333 q 119 398 141 374 q 85 451 96 422 q 75 516 75 479 q 95 598 75 562 q 149 659 115 634 q 227 697 182 684 q 320 711 271 711 q 477 677 410 711 l 477 585 q 309 635 399 635 q 250 627 277 635 q 204 604 223 619 q 175 569 185 589 q 164 523 164 548 q 172 478 164 497 q 198 443 180 458 q 242 413 215 427 q 309 382 270 399 q 396 342 359 362 q 456 299 433 322 q 492 247 480 275 q 503 180 503 218 q 484 96 503 133 q 430 35 465 60 q 350 -3 396 9 q 250 -16 304 -16 q 73 28 144 -16 l 73 125 m 430 -176 q 250 -294 430 -294 q 201 -292 225 -294 l 201 -236 q 254 -240 233 -240 q 356 -178 356 -240 q 263 -123 356 -123 q 247 -123 256 -123 q 228 -125 239 -124 l 228 0 l 289 0 l 289 -75 q 393 -101 357 -75 q 430 -176 430 -127 z "},"Ć":{"ha":861,"x_min":68,"x_max":780,"o":"m 780 36 q 523 -17 667 -17 q 336 19 420 -17 q 192 120 252 56 q 101 273 133 184 q 68 467 68 362 q 103 673 68 578 q 201 839 137 768 q 355 949 264 909 q 558 989 446 989 q 780 951 682 989 l 780 854 q 557 907 675 907 q 389 874 463 907 q 266 784 316 842 q 189 647 216 726 q 163 474 163 568 q 186 316 163 390 q 257 186 210 241 q 372 98 303 130 q 533 65 441 65 q 780 124 673 65 l 780 36 m 484 1052 l 410 1052 l 565 1274 l 656 1274 l 484 1052 z "},"ć":{"ha":629,"x_min":64,"x_max":576,"o":"m 574 31 q 387 -17 496 -16 q 252 9 312 -18 q 151 82 193 35 q 86 194 109 130 q 64 333 64 258 q 87 480 64 411 q 157 600 111 549 q 268 681 202 651 q 418 711 334 711 q 576 677 505 711 l 576 585 q 412 635 500 635 q 302 612 350 635 q 221 548 254 589 q 171 454 188 508 q 153 340 153 400 q 168 233 153 284 q 213 143 182 182 q 289 81 243 104 q 397 58 335 58 q 574 117 495 58 l 574 31 m 360 816 l 287 816 l 441 1038 l 533 1038 l 360 816 z "},"Č":{"ha":861,"x_min":68,"x_max":780,"o":"m 780 36 q 523 -17 667 -17 q 336 19 420 -17 q 192 120 252 56 q 101 273 133 184 q 68 467 68 362 q 103 673 68 578 q 201 839 137 768 q 355 949 264 909 q 558 989 446 989 q 780 951 682 989 l 780 854 q 557 907 675 907 q 389 874 463 907 q 266 784 316 842 q 189 647 216 726 q 163 474 163 568 q 186 316 163 390 q 257 186 210 241 q 372 98 303 130 q 533 65 441 65 q 780 124 673 65 l 780 36 m 557 1052 l 496 1052 l 349 1278 l 417 1278 l 526 1118 l 636 1278 l 704 1278 l 557 1052 z "},"č":{"ha":629,"x_min":64,"x_max":576,"o":"m 574 31 q 387 -17 496 -16 q 252 9 312 -18 q 151 82 193 35 q 86 194 109 130 q 64 333 64 258 q 87 480 64 411 q 157 600 111 549 q 268 681 202 651 q 418 711 334 711 q 576 677 505 711 l 576 585 q 412 635 500 635 q 302 612 350 635 q 221 548 254 589 q 171 454 188 508 q 153 340 153 400 q 168 233 153 284 q 213 143 182 182 q 289 81 243 104 q 397 58 335 58 q 574 117 495 58 l 574 31 m 421 816 l 361 816 l 213 1042 l 281 1042 l 391 882 l 500 1042 l 568 1042 l 421 816 z "},"đ":{"ha":798,"x_min":63,"x_max":778,"o":"m 374 899 l 599 899 l 599 1028 l 686 1028 l 686 899 l 778 899 l 778 825 l 686 825 l 686 0 l 599 0 l 599 122 l 596 122 q 497 20 562 56 q 352 -16 433 -16 q 234 8 287 -16 q 142 77 180 32 q 84 187 104 123 q 63 333 63 252 q 86 487 63 417 q 150 606 109 556 q 251 683 192 656 q 381 711 309 711 q 596 591 531 711 l 599 591 l 599 825 l 374 825 l 374 899 m 599 419 q 583 504 599 465 q 540 572 568 543 q 473 618 512 602 q 387 635 434 635 q 292 615 336 635 q 218 556 249 595 q 170 463 187 518 q 153 338 153 408 q 168 220 153 273 q 213 132 184 168 q 281 77 241 96 q 370 58 321 58 q 466 77 423 58 q 537 130 508 96 q 583 208 567 163 q 599 303 599 252 l 599 419 z "},"¯":{"ha":576,"x_min":0,"x_max":576,"o":"m 0 957 l 0 1028 l 576 1028 l 576 957 l 0 957 z "},"∙":{"ha":302,"x_min":85,"x_max":216,"o":"m 151 385 q 125 390 137 385 q 104 404 113 395 q 91 425 96 413 q 85 450 85 437 q 104 496 85 477 q 151 515 123 515 q 175 510 163 515 q 196 497 187 505 q 211 476 205 488 q 216 450 216 465 q 211 424 216 436 q 196 404 205 412 q 175 390 187 395 q 151 385 163 385 z "},"Ă":{"ha":884,"x_min":27,"x_max":857,"o":"m 756 0 l 649 288 l 232 288 l 127 0 l 27 0 l 397 972 l 488 972 l 857 0 l 756 0 m 460 802 q 450 832 455 815 q 441 871 445 849 l 439 871 q 430 832 435 849 q 420 802 425 815 l 262 370 l 618 370 l 460 802 m 627 1217 q 607 1149 623 1179 q 567 1097 591 1119 q 510 1064 543 1076 q 441 1052 478 1052 q 370 1063 402 1052 q 314 1096 338 1075 q 276 1148 290 1118 q 260 1217 262 1179 l 322 1217 q 357 1138 326 1165 q 442 1110 389 1110 q 486 1118 465 1110 q 522 1140 506 1126 q 549 1173 538 1154 q 563 1217 559 1193 l 627 1217 z "},"ă":{"ha":696,"x_min":66,"x_max":599,"o":"m 512 0 l 512 123 l 509 123 q 417 20 475 57 q 284 -16 358 -16 q 194 -2 234 -16 q 125 38 153 12 q 82 101 97 64 q 66 182 66 138 q 125 332 66 276 q 301 405 183 388 l 512 435 q 357 635 512 635 q 132 547 235 635 l 132 642 q 181 670 153 657 q 239 691 208 682 q 301 706 269 701 q 364 711 334 711 q 539 646 480 711 q 599 452 599 581 l 599 0 l 512 0 m 333 337 q 253 320 286 330 q 198 293 220 310 q 166 250 176 275 q 156 187 156 224 q 166 136 156 159 q 194 95 176 112 q 240 68 213 77 q 300 58 267 58 q 385 76 347 58 q 452 125 424 94 q 496 199 480 156 q 512 294 512 243 l 512 362 l 333 337 m 538 981 q 518 913 534 943 q 478 861 503 883 q 421 828 454 840 q 352 816 389 816 q 281 827 313 816 q 225 860 249 839 q 187 912 201 882 q 171 981 173 943 l 233 981 q 269 902 237 929 q 353 874 300 874 q 397 882 376 874 q 433 904 417 890 q 460 937 450 918 q 474 981 471 957 l 538 981 z "},"Ą":{"ha":884,"x_min":27,"x_max":857,"o":"m 756 0 l 649 288 l 232 288 l 127 0 l 27 0 l 397 972 l 488 972 l 857 0 l 756 0 m 460 802 q 450 832 455 815 q 441 871 445 849 l 439 871 q 430 832 435 849 q 420 802 425 815 l 262 370 l 618 370 l 460 802 m 826 0 q 718 -157 718 -94 q 769 -211 718 -211 q 815 -201 793 -211 l 815 -260 q 755 -271 789 -271 q 676 -244 706 -271 q 646 -168 646 -217 q 673 -85 646 -129 q 756 0 701 -41 l 826 0 z "},"ą":{"ha":696,"x_min":66,"x_max":599,"o":"m 512 0 l 512 123 l 509 123 q 417 20 475 57 q 284 -16 358 -16 q 194 -2 234 -16 q 125 38 153 12 q 82 101 97 64 q 66 182 66 138 q 125 332 66 276 q 301 405 183 388 l 512 435 q 357 635 512 635 q 132 547 235 635 l 132 642 q 181 670 153 657 q 239 691 208 682 q 301 706 269 701 q 364 711 334 711 q 539 646 480 711 q 599 452 599 581 l 599 0 l 512 0 m 333 337 q 253 320 286 330 q 198 293 220 310 q 166 250 176 275 q 156 187 156 224 q 166 136 156 159 q 194 95 176 112 q 240 68 213 77 q 300 58 267 58 q 385 76 347 58 q 452 125 424 94 q 496 199 480 156 q 512 294 512 243 l 512 362 l 333 337 m 582 0 q 473 -157 473 -94 q 525 -211 473 -211 q 571 -201 549 -211 l 571 -260 q 511 -271 545 -271 q 432 -244 462 -271 q 401 -168 401 -217 q 429 -85 401 -129 q 512 0 457 -41 l 582 0 z "},"Ď":{"ha":955,"x_min":126,"x_max":886,"o":"m 126 0 l 126 972 l 382 972 q 759 853 631 972 q 886 499 886 733 q 851 294 886 387 q 748 137 815 202 q 585 36 681 71 q 370 0 490 0 l 126 0 m 216 890 l 216 82 l 366 82 q 545 109 466 82 q 679 189 624 136 q 763 319 734 241 q 791 496 791 396 q 376 890 791 890 l 216 890 m 488 1052 l 427 1052 l 279 1278 l 348 1278 l 457 1118 l 567 1278 l 635 1278 l 488 1052 z "},"ď":{"ha":893,"x_min":63,"x_max":935,"o":"m 599 0 l 599 122 l 596 122 q 497 20 562 56 q 352 -16 433 -16 q 234 8 287 -16 q 142 77 180 32 q 84 187 104 123 q 63 333 63 252 q 86 487 63 417 q 150 606 109 556 q 251 683 192 656 q 381 711 309 711 q 596 591 531 711 l 599 591 l 599 1028 l 686 1028 l 686 0 l 599 0 m 599 419 q 583 504 599 465 q 540 572 568 543 q 473 618 512 602 q 387 635 434 635 q 292 615 336 635 q 218 556 249 595 q 170 463 187 518 q 153 338 153 408 q 168 220 153 273 q 213 132 184 168 q 281 77 241 96 q 370 58 321 58 q 466 77 423 58 q 537 130 508 96 q 583 208 567 163 q 599 303 599 252 l 599 419 m 935 1027 l 836 851 l 768 851 l 839 1027 l 935 1027 z "},"Đ":{"ha":955,"x_min":21,"x_max":886,"o":"m 21 526 l 126 526 l 126 972 l 382 972 q 759 853 631 972 q 886 499 886 733 q 851 294 886 387 q 748 137 815 202 q 585 36 681 71 q 370 0 490 0 l 126 0 l 126 444 l 21 444 l 21 526 m 216 890 l 216 526 l 467 526 l 467 444 l 216 444 l 216 82 l 366 82 q 545 109 466 82 q 679 189 624 136 q 763 319 734 241 q 791 496 791 396 q 376 890 791 890 l 216 890 z "},"Ę":{"ha":699,"x_min":126,"x_max":622,"o":"m 126 0 l 126 972 l 600 972 l 600 890 l 216 890 l 216 533 l 572 533 l 572 452 l 216 452 l 216 82 l 622 82 l 622 0 l 126 0 m 578 0 q 469 -157 469 -94 q 521 -211 469 -211 q 567 -201 545 -211 l 567 -260 q 507 -271 541 -271 q 428 -244 458 -271 q 397 -168 397 -217 q 425 -85 397 -129 q 508 0 453 -41 l 578 0 z "},"ę":{"ha":713,"x_min":63,"x_max":655,"o":"m 153 332 q 170 217 154 268 q 217 131 186 166 q 291 77 248 96 q 390 58 335 58 q 612 140 507 58 l 612 55 q 370 -16 512 -16 q 243 8 300 -16 q 146 79 186 33 q 85 193 106 125 q 63 348 63 261 q 87 492 63 426 q 153 607 111 559 q 252 683 195 656 q 378 711 310 711 q 497 687 446 711 q 584 621 549 664 q 637 515 618 577 q 655 375 655 452 l 655 332 l 153 332 m 566 408 q 514 576 564 516 q 376 635 465 635 q 295 620 332 635 q 229 575 257 604 q 181 503 200 545 q 155 408 163 460 l 566 408 m 458 0 q 350 -157 350 -94 q 401 -211 350 -211 q 448 -201 425 -211 l 448 -260 q 388 -271 422 -271 q 308 -244 338 -271 q 278 -168 278 -217 q 306 -85 278 -129 q 389 0 334 -41 l 458 0 z "},"Ě":{"ha":699,"x_min":126,"x_max":622,"o":"m 126 0 l 126 972 l 600 972 l 600 890 l 216 890 l 216 533 l 572 533 l 572 452 l 216 452 l 216 82 l 622 82 l 622 0 l 126 0 m 396 1052 l 336 1052 l 188 1278 l 256 1278 l 366 1118 l 475 1278 l 543 1278 l 396 1052 z "},"ě":{"ha":713,"x_min":63,"x_max":655,"o":"m 153 332 q 170 217 154 268 q 217 131 186 166 q 291 77 248 96 q 390 58 335 58 q 612 140 507 58 l 612 55 q 370 -16 512 -16 q 243 8 300 -16 q 146 79 186 33 q 85 193 106 125 q 63 348 63 261 q 87 492 63 426 q 153 607 111 559 q 252 683 195 656 q 378 711 310 711 q 497 687 446 711 q 584 621 549 664 q 637 515 618 577 q 655 375 655 452 l 655 332 l 153 332 m 566 408 q 514 576 564 516 q 376 635 465 635 q 295 620 332 635 q 229 575 257 604 q 181 503 200 545 q 155 408 163 460 l 566 408 m 402 816 l 342 816 l 194 1042 l 262 1042 l 372 882 l 481 1042 l 549 1042 l 402 816 z "},"Ĺ":{"ha":645,"x_min":126,"x_max":607,"o":"m 126 0 l 126 972 l 216 972 l 216 82 l 607 82 l 607 0 l 126 0 m 391 1052 l 317 1052 l 472 1274 l 564 1274 l 391 1052 z "},"ĺ":{"ha":311,"x_min":98,"x_max":345,"o":"m 112 0 l 112 1028 l 199 1028 l 199 0 l 112 0 m 172 1109 l 98 1109 l 253 1332 l 345 1332 l 172 1109 z "},"Ľ":{"ha":645,"x_min":126,"x_max":607,"o":"m 126 0 l 126 972 l 216 972 l 216 82 l 607 82 l 607 0 l 126 0 m 586 972 l 487 795 l 418 795 l 490 972 l 586 972 z "},"ľ":{"ha":392,"x_min":112,"x_max":434,"o":"m 112 0 l 112 1028 l 199 1028 l 199 0 l 112 0 m 434 1025 l 335 849 l 267 849 l 338 1025 l 434 1025 z "},"Ŀ":{"ha":645,"x_min":126,"x_max":607,"o":"m 126 0 l 126 972 l 216 972 l 216 82 l 607 82 l 607 0 l 126 0 m 471 437 q 448 442 459 437 q 429 455 437 447 q 416 475 420 464 q 411 499 411 486 q 428 541 411 524 q 471 558 446 558 q 515 542 497 558 q 532 499 532 525 q 515 455 532 473 q 471 437 497 437 z "},"ŀ":{"ha":401,"x_min":112,"x_max":401,"o":"m 112 0 l 112 1028 l 199 1028 l 199 0 l 112 0 m 340 437 q 317 442 328 437 q 297 455 306 447 q 284 475 289 464 q 279 499 279 486 q 297 541 279 524 q 340 558 315 558 q 384 542 366 558 q 401 499 401 525 q 384 455 401 473 q 340 437 366 437 z "},"Ń":{"ha":1012,"x_min":126,"x_max":886,"o":"m 792 0 l 252 781 q 232 811 242 795 q 216 842 222 827 l 213 842 q 215 808 214 829 q 216 753 216 786 l 216 0 l 126 0 l 126 972 l 226 972 l 757 201 q 779 167 769 183 q 797 138 789 151 l 800 138 q 796 188 798 160 q 795 250 795 216 l 795 972 l 886 972 l 886 0 l 792 0 m 492 1052 l 419 1052 l 574 1274 l 665 1274 l 492 1052 z "},"ń":{"ha":764,"x_min":112,"x_max":667,"o":"m 581 0 l 581 400 q 410 635 581 635 q 326 617 364 635 q 259 568 287 600 q 215 492 231 536 q 199 397 199 448 l 199 0 l 112 0 l 112 694 l 199 694 l 199 574 l 201 574 q 434 711 279 711 q 608 637 548 711 q 667 423 667 563 l 667 0 l 581 0 m 377 816 l 304 816 l 458 1038 l 550 1038 l 377 816 z "},"Ň":{"ha":1012,"x_min":126,"x_max":886,"o":"m 792 0 l 252 781 q 232 811 242 795 q 216 842 222 827 l 213 842 q 215 808 214 829 q 216 753 216 786 l 216 0 l 126 0 l 126 972 l 226 972 l 757 201 q 779 167 769 183 q 797 138 789 151 l 800 138 q 796 188 798 160 q 795 250 795 216 l 795 972 l 886 972 l 886 0 l 792 0 m 541 1052 l 480 1052 l 332 1278 l 401 1278 l 510 1118 l 620 1278 l 688 1278 l 541 1052 z "},"ň":{"ha":764,"x_min":112,"x_max":667,"o":"m 581 0 l 581 400 q 410 635 581 635 q 326 617 364 635 q 259 568 287 600 q 215 492 231 536 q 199 397 199 448 l 199 0 l 112 0 l 112 694 l 199 694 l 199 574 l 201 574 q 434 711 279 711 q 608 637 548 711 q 667 423 667 563 l 667 0 l 581 0 m 428 816 l 368 816 l 220 1042 l 288 1042 l 397 882 l 507 1042 l 575 1042 l 428 816 z "},"Ő":{"ha":1052,"x_min":68,"x_max":983,"o":"m 522 -17 q 333 21 417 -17 q 190 126 249 60 q 100 282 132 193 q 68 475 68 372 q 100 684 68 589 q 192 846 132 779 q 340 951 252 913 q 539 989 427 989 q 724 952 642 989 q 864 849 806 915 q 952 694 922 784 q 983 500 983 605 q 953 295 983 389 q 864 131 923 200 q 720 22 806 62 q 522 -17 634 -17 m 530 907 q 373 873 441 907 q 258 782 305 840 q 188 648 212 725 q 163 484 163 571 q 184 326 162 401 q 251 192 206 250 q 363 100 295 134 q 522 65 431 65 q 681 97 612 65 q 796 184 750 128 q 866 317 842 240 q 889 486 889 395 q 868 648 889 572 q 804 782 848 725 q 692 873 760 840 q 530 907 625 907 m 592 1052 l 534 1052 l 677 1267 l 759 1267 l 592 1052 m 435 1052 l 378 1052 l 519 1267 l 600 1267 l 435 1052 z "},"ő":{"ha":796,"x_min":63,"x_max":733,"o":"m 396 -16 q 257 9 319 -16 q 153 82 196 35 q 86 195 109 130 q 63 341 63 261 q 87 496 63 428 q 157 613 112 565 q 266 686 202 661 q 408 711 330 711 q 544 686 484 711 q 646 614 604 661 q 711 500 688 568 q 733 348 733 433 q 710 200 733 267 q 643 85 686 133 q 537 10 600 37 q 396 -16 475 -16 m 403 635 q 300 616 346 635 q 221 558 254 596 q 170 466 188 521 q 153 342 153 412 q 170 225 153 277 q 220 136 188 173 q 298 78 252 98 q 401 58 345 58 q 505 78 460 58 q 581 134 549 97 q 628 224 612 171 q 644 347 644 278 q 581 561 644 487 q 403 635 519 635 m 473 816 l 416 816 l 558 1031 l 640 1031 l 473 816 m 316 816 l 259 816 l 400 1031 l 481 1031 l 316 816 z "},"Ŕ":{"ha":801,"x_min":126,"x_max":762,"o":"m 656 0 l 509 279 q 467 348 488 320 q 425 392 447 376 q 379 416 404 409 q 323 423 354 423 l 216 423 l 216 0 l 126 0 l 126 972 l 406 972 q 512 956 461 972 q 604 908 564 940 q 668 828 644 876 q 692 716 692 780 q 676 621 692 665 q 632 544 661 578 q 562 487 603 511 q 469 452 521 464 l 469 450 q 505 429 489 441 q 537 397 522 416 q 567 355 552 379 q 598 301 582 332 l 762 0 l 656 0 m 216 890 l 216 505 l 378 505 q 467 519 427 505 q 537 560 508 534 q 582 624 566 587 q 597 708 597 661 q 543 841 597 793 q 385 890 488 890 l 216 890 m 395 1052 l 322 1052 l 477 1274 l 568 1274 l 395 1052 z "},"ŕ":{"ha":471,"x_min":112,"x_max":456,"o":"m 456 606 q 378 628 426 628 q 317 615 343 628 q 270 579 290 602 q 236 527 250 557 q 214 466 222 498 q 202 401 205 434 q 198 340 198 369 l 198 0 l 112 0 l 112 694 l 198 694 l 198 546 l 201 546 q 232 614 213 584 q 275 665 250 644 q 328 696 299 686 q 389 707 357 707 q 426 705 410 707 q 456 696 443 702 l 456 606 m 277 816 l 203 816 l 358 1038 l 450 1038 l 277 816 z "},"Ř":{"ha":801,"x_min":126,"x_max":762,"o":"m 656 0 l 509 279 q 467 348 488 320 q 425 392 447 376 q 379 416 404 409 q 323 423 354 423 l 216 423 l 216 0 l 126 0 l 126 972 l 406 972 q 512 956 461 972 q 604 908 564 940 q 668 828 644 876 q 692 716 692 780 q 676 621 692 665 q 632 544 661 578 q 562 487 603 511 q 469 452 521 464 l 469 450 q 505 429 489 441 q 537 397 522 416 q 567 355 552 379 q 598 301 582 332 l 762 0 l 656 0 m 216 890 l 216 505 l 378 505 q 467 519 427 505 q 537 560 508 534 q 582 624 566 587 q 597 708 597 661 q 543 841 597 793 q 385 890 488 890 l 216 890 m 425 1052 l 364 1052 l 216 1278 l 285 1278 l 394 1118 l 504 1278 l 572 1278 l 425 1052 z "},"ř":{"ha":471,"x_min":100,"x_max":456,"o":"m 456 606 q 378 628 426 628 q 317 615 343 628 q 270 579 290 602 q 236 527 250 557 q 214 466 222 498 q 202 401 205 434 q 198 340 198 369 l 198 0 l 112 0 l 112 694 l 198 694 l 198 546 l 201 546 q 232 614 213 584 q 275 665 250 644 q 328 696 299 686 q 389 707 357 707 q 426 705 410 707 q 456 696 443 702 l 456 606 m 309 816 l 248 816 l 100 1042 l 169 1042 l 278 882 l 388 1042 l 456 1042 l 309 816 z "},"Ś":{"ha":714,"x_min":88,"x_max":639,"o":"m 88 142 q 142 110 113 124 q 202 85 172 95 q 264 70 233 75 q 324 65 296 65 q 490 108 435 65 q 545 231 545 151 q 532 298 545 269 q 492 352 519 327 q 423 402 465 377 q 326 458 382 427 q 219 522 263 492 q 146 584 174 552 q 105 652 118 615 q 92 735 92 688 q 117 841 92 794 q 184 921 142 888 q 284 971 227 954 q 407 989 342 989 q 599 957 522 989 l 599 857 q 397 907 513 907 q 315 896 353 907 q 248 865 277 886 q 202 815 219 845 q 186 745 186 785 q 197 679 186 707 q 233 627 208 652 q 298 579 258 603 q 397 524 338 555 q 503 460 458 491 q 579 396 549 429 q 624 325 609 362 q 639 241 639 287 q 615 129 639 177 q 549 48 591 80 q 447 0 506 16 q 317 -16 388 -16 q 262 -13 294 -16 q 198 -2 231 -9 q 136 15 165 5 q 88 37 106 25 l 88 142 m 358 1052 l 285 1052 l 439 1274 l 531 1274 l 358 1052 z "},"ś":{"ha":564,"x_min":73,"x_max":503,"o":"m 73 125 q 115 97 92 109 q 163 76 138 85 q 212 63 187 67 q 259 58 237 58 q 414 174 414 58 q 403 220 414 201 q 372 255 392 239 q 323 285 351 271 q 258 313 294 298 q 176 353 210 333 q 119 398 141 374 q 85 451 96 422 q 75 516 75 479 q 95 598 75 562 q 149 659 115 634 q 227 697 182 684 q 320 711 271 711 q 477 677 410 711 l 477 585 q 309 635 399 635 q 250 627 277 635 q 204 604 223 619 q 175 569 185 589 q 164 523 164 548 q 172 478 164 497 q 198 443 180 458 q 242 413 215 427 q 309 382 270 399 q 396 342 359 362 q 456 299 433 322 q 492 247 480 275 q 503 180 503 218 q 484 96 503 133 q 430 35 465 60 q 350 -3 396 9 q 250 -16 304 -16 q 73 28 144 -16 l 73 125 m 282 816 l 209 816 l 363 1038 l 455 1038 l 282 816 z "},"Ţ":{"ha":719,"x_min":34,"x_max":685,"o":"m 404 890 l 404 0 l 314 0 l 314 890 l 34 890 l 34 972 l 685 972 l 685 890 l 404 890 m 523 -176 q 343 -294 523 -294 q 294 -292 318 -294 l 294 -236 q 347 -240 326 -240 q 449 -178 449 -240 q 356 -123 449 -123 q 340 -123 349 -123 q 321 -125 332 -124 l 321 0 l 382 0 l 382 -75 q 486 -101 450 -75 q 523 -176 523 -127 z "},"ţ":{"ha":441,"x_min":22,"x_max":450,"o":"m 410 8 q 313 -14 366 -14 q 144 180 144 -14 l 144 618 l 22 618 l 22 694 l 144 694 l 144 869 l 231 898 l 231 694 l 410 694 l 410 618 l 231 618 l 231 193 q 254 92 231 123 q 332 60 277 60 q 410 85 373 60 l 410 8 m 450 -176 q 271 -294 450 -294 q 222 -292 245 -294 l 222 -236 q 275 -240 254 -240 q 376 -178 376 -240 q 283 -123 376 -123 q 268 -123 276 -123 q 248 -125 259 -124 l 248 0 l 309 0 l 309 -75 q 414 -101 377 -75 q 450 -176 450 -127 z "},"Ť":{"ha":719,"x_min":34,"x_max":685,"o":"m 404 890 l 404 0 l 314 0 l 314 890 l 34 890 l 34 972 l 685 972 l 685 890 l 404 890 m 391 1052 l 330 1052 l 182 1278 l 251 1278 l 360 1118 l 470 1278 l 538 1278 l 391 1052 z "},"ť":{"ha":551,"x_min":22,"x_max":593,"o":"m 410 8 q 313 -14 366 -14 q 144 180 144 -14 l 144 618 l 22 618 l 22 694 l 144 694 l 144 869 l 231 898 l 231 694 l 410 694 l 410 618 l 231 618 l 231 193 q 254 92 231 123 q 332 60 277 60 q 410 85 373 60 l 410 8 m 593 945 l 494 769 l 426 769 l 497 945 l 593 945 z "},"Ů":{"ha":927,"x_min":114,"x_max":813,"o":"m 813 391 q 455 -17 813 -17 q 114 376 114 -17 l 114 972 l 204 972 l 204 384 q 269 144 204 224 q 468 65 333 65 q 723 374 723 65 l 723 972 l 813 972 l 813 391 m 459 1038 q 408 1046 432 1038 q 364 1072 383 1055 q 334 1112 345 1088 q 323 1164 323 1135 q 334 1217 323 1193 q 363 1258 345 1240 q 408 1284 382 1275 q 462 1294 433 1294 q 513 1285 488 1294 q 557 1260 538 1276 q 587 1219 576 1243 q 599 1166 599 1196 q 588 1115 599 1139 q 557 1075 576 1092 q 513 1047 538 1057 q 459 1038 488 1038 m 459 1244 q 401 1222 423 1244 q 378 1166 378 1200 q 400 1108 378 1128 q 459 1088 422 1088 q 493 1094 477 1088 q 519 1110 508 1099 q 536 1135 530 1120 q 543 1166 543 1149 q 519 1223 543 1202 q 459 1244 495 1244 z "},"ů":{"ha":765,"x_min":97,"x_max":653,"o":"m 566 0 l 566 118 l 564 118 q 345 -16 493 -16 q 97 286 97 -16 l 97 694 l 184 694 l 184 302 q 228 118 184 178 q 364 58 273 58 q 446 76 409 58 q 510 124 483 93 q 551 200 536 156 q 566 298 566 244 l 566 694 l 653 694 l 653 0 l 566 0 m 373 802 q 321 810 346 802 q 278 836 297 819 q 248 876 259 852 q 237 928 237 899 q 248 981 237 957 q 277 1022 258 1004 q 321 1048 296 1039 q 376 1058 347 1058 q 427 1049 402 1058 q 471 1024 452 1040 q 501 983 490 1007 q 513 930 513 960 q 502 879 513 903 q 471 839 490 856 q 427 811 452 821 q 373 802 401 802 m 373 1008 q 315 986 337 1008 q 292 930 292 964 q 314 872 292 892 q 373 852 336 852 q 407 858 391 852 q 433 874 422 863 q 450 899 444 884 q 456 930 456 913 q 433 987 456 966 q 373 1008 409 1008 z "},"Ű":{"ha":927,"x_min":114,"x_max":813,"o":"m 813 391 q 455 -17 813 -17 q 114 376 114 -17 l 114 972 l 204 972 l 204 384 q 269 144 204 224 q 468 65 333 65 q 723 374 723 65 l 723 972 l 813 972 l 813 391 m 530 1052 l 472 1052 l 614 1267 l 696 1267 l 530 1052 m 372 1052 l 315 1052 l 456 1267 l 538 1267 l 372 1052 z "},"ű":{"ha":765,"x_min":97,"x_max":653,"o":"m 566 0 l 566 118 l 564 118 q 345 -16 493 -16 q 97 286 97 -16 l 97 694 l 184 694 l 184 302 q 228 118 184 178 q 364 58 273 58 q 446 76 409 58 q 510 124 483 93 q 551 200 536 156 q 566 298 566 244 l 566 694 l 653 694 l 653 0 l 566 0 m 442 816 l 385 816 l 527 1031 l 609 1031 l 442 816 m 285 816 l 228 816 l 369 1031 l 450 1031 l 285 816 z "},"Ź":{"ha":791,"x_min":33,"x_max":749,"o":"m 169 82 l 738 82 l 738 0 l 33 0 l 33 26 l 610 890 l 79 890 l 79 972 l 749 972 l 749 949 l 169 82 m 407 1052 l 334 1052 l 488 1274 l 580 1274 l 407 1052 z "},"ź":{"ha":636,"x_min":31,"x_max":601,"o":"m 163 76 l 591 76 l 591 0 l 31 0 l 31 29 l 467 618 l 66 618 l 66 694 l 601 694 l 601 670 l 163 76 m 319 816 l 245 816 l 400 1038 l 492 1038 l 319 816 z "},"Ż":{"ha":791,"x_min":33,"x_max":749,"o":"m 169 82 l 738 82 l 738 0 l 33 0 l 33 26 l 610 890 l 79 890 l 79 972 l 749 972 l 749 949 l 169 82 m 409 1052 q 386 1056 397 1052 q 367 1069 375 1061 q 354 1088 359 1077 q 349 1112 349 1099 q 354 1135 349 1124 q 367 1153 359 1145 q 386 1165 375 1160 q 408 1169 396 1169 q 451 1153 433 1169 q 469 1112 469 1137 q 451 1069 469 1086 q 409 1052 434 1052 z "},"ż":{"ha":636,"x_min":31,"x_max":601,"o":"m 163 76 l 591 76 l 591 0 l 31 0 l 31 29 l 467 618 l 66 618 l 66 694 l 601 694 l 601 670 l 163 76 m 334 816 q 311 820 321 816 q 292 833 300 825 q 279 852 283 841 q 274 876 274 863 q 279 899 274 888 q 292 917 283 909 q 310 929 300 924 q 333 933 321 933 q 375 917 357 933 q 393 876 393 901 q 376 833 393 850 q 334 816 359 816 z "},"Γ":{"ha":645,"x_min":126,"x_max":607,"o":"m 217 888 l 217 0 l 126 0 l 126 972 l 607 972 l 607 888 l 217 888 z "},"Θ":{"ha":1052,"x_min":68,"x_max":983,"o":"m 350 444 l 350 528 l 702 528 l 702 444 l 350 444 m 522 -17 q 333 21 417 -17 q 190 126 249 60 q 100 282 132 193 q 68 475 68 372 q 100 684 68 589 q 192 846 132 779 q 340 951 252 913 q 539 989 427 989 q 724 952 642 989 q 864 849 806 915 q 952 694 922 784 q 983 500 983 605 q 953 295 983 389 q 864 131 923 200 q 720 22 806 62 q 522 -17 634 -17 m 530 907 q 373 873 441 907 q 258 782 305 840 q 187 648 212 725 q 163 484 163 571 q 184 326 163 401 q 251 192 206 250 q 362 100 295 134 q 522 65 430 65 q 681 97 612 65 q 796 184 750 128 q 866 317 842 240 q 889 486 889 395 q 868 648 889 572 q 804 782 848 725 q 692 873 760 840 q 530 907 625 907 z "},"Φ":{"ha":1057,"x_min":69,"x_max":987,"o":"m 987 510 q 957 345 987 416 q 876 225 927 273 q 757 154 825 178 q 613 130 689 130 l 572 130 l 572 -10 l 485 -10 l 485 130 l 444 130 q 290 157 359 130 q 172 234 221 184 q 96 353 123 283 q 69 509 69 423 q 98 665 69 597 q 177 781 126 734 q 296 853 227 828 q 446 878 365 878 l 485 878 l 485 982 l 572 982 l 572 878 l 611 878 q 766 851 696 878 q 885 775 836 824 q 960 659 934 727 q 987 510 987 591 m 897 509 q 877 629 897 575 q 820 721 857 683 q 730 779 783 758 q 611 799 677 799 l 572 799 l 572 211 l 613 211 q 732 231 680 211 q 821 289 785 251 q 877 383 858 328 q 897 509 897 438 m 485 799 l 446 799 q 332 781 385 799 q 241 726 280 762 q 181 634 203 689 q 159 507 159 580 q 180 376 159 432 q 239 284 201 321 q 330 229 277 247 q 444 211 382 211 l 485 211 l 485 799 z "},"α":{"ha":841,"x_min":61,"x_max":817,"o":"m 595 347 q 561 464 580 410 q 516 555 542 517 q 456 615 490 593 q 376 636 422 636 q 282 613 324 636 q 211 549 240 590 q 166 452 182 508 q 151 329 151 395 q 164 220 151 269 q 204 135 178 170 q 266 80 229 100 q 347 60 302 60 q 471 115 417 60 q 565 267 524 170 l 595 347 m 756 -7 q 712 7 731 -7 q 676 48 692 20 q 647 119 661 76 q 622 219 634 161 l 619 219 q 562 114 592 158 q 496 40 531 69 q 420 -2 460 12 q 332 -16 379 -16 q 221 9 271 -16 q 135 79 171 34 q 80 186 100 123 q 61 323 61 248 q 82 479 61 408 q 144 602 104 551 q 242 682 184 653 q 375 711 301 711 q 469 692 428 711 q 542 640 511 673 q 596 565 574 608 q 635 473 618 522 l 637 473 l 711 694 l 805 694 l 671 348 q 704 206 690 260 q 730 122 718 152 q 756 83 743 93 q 785 74 769 74 q 802 75 794 74 q 817 79 810 77 l 817 2 q 789 -4 802 -2 q 756 -7 777 -7 z "},"δ":{"ha":807,"x_min":62,"x_max":746,"o":"m 746 319 q 721 181 746 243 q 651 75 696 119 q 541 7 606 31 q 397 -17 477 -17 q 262 7 323 -17 q 156 74 200 31 q 86 175 111 117 q 62 303 62 234 q 84 420 62 367 q 147 517 107 473 q 241 594 186 560 q 358 652 295 627 q 294 696 325 673 q 240 746 263 720 q 202 804 216 773 q 189 870 189 834 q 208 944 189 912 q 260 998 227 977 q 342 1031 294 1020 q 448 1042 391 1042 q 564 1030 509 1042 q 672 996 620 1017 l 672 898 q 563 947 620 929 q 449 964 506 964 q 391 960 421 964 q 336 944 361 956 q 295 913 311 932 q 279 865 279 895 q 287 827 279 845 q 312 790 295 808 q 356 751 330 771 q 420 709 383 731 q 557 620 496 663 q 659 532 617 577 q 724 435 701 486 q 746 319 746 383 m 657 309 q 641 400 657 359 q 595 477 625 441 q 523 545 565 513 q 431 608 481 577 q 329 563 378 589 q 240 500 279 536 q 178 417 201 465 q 154 307 154 369 q 173 202 154 248 q 226 124 193 156 q 306 76 260 92 q 405 59 351 59 q 505 76 459 59 q 585 126 551 94 q 638 204 619 158 q 657 309 657 251 z "},"ε":{"ha":608,"x_min":56,"x_max":561,"o":"m 561 17 q 515 3 541 9 q 461 -7 490 -3 q 401 -15 432 -12 q 341 -17 371 -17 q 217 -2 271 -17 q 127 40 163 14 q 74 104 92 67 q 56 186 56 142 q 69 251 56 222 q 106 303 83 281 q 162 340 130 326 q 231 361 195 355 l 231 364 q 176 383 203 370 q 129 417 149 397 q 95 464 108 437 q 82 520 82 490 q 103 606 82 570 q 160 666 124 642 q 244 700 196 689 q 345 711 292 711 q 394 709 369 711 q 443 702 418 706 q 489 691 467 697 q 530 679 511 686 l 530 591 q 438 623 488 611 q 341 635 388 635 q 213 606 254 635 q 171 520 171 577 q 191 462 171 486 q 242 424 210 438 q 312 402 273 409 q 389 396 351 396 q 432 396 409 396 q 469 398 455 397 l 469 319 q 431 320 456 320 q 374 321 406 321 q 202 288 260 321 q 144 187 144 256 q 157 136 144 159 q 195 95 170 113 q 260 68 221 78 q 351 58 299 58 q 461 72 406 58 q 561 106 516 85 l 561 17 l 561 17 z "},"σ":{"ha":789,"x_min":63,"x_max":775,"o":"m 601 623 q 640 563 622 594 q 671 495 658 531 q 691 419 684 460 q 699 331 699 378 q 677 194 699 258 q 616 84 656 131 q 518 11 576 37 q 385 -16 460 -16 q 252 9 311 -16 q 150 82 192 35 q 85 195 108 130 q 63 340 63 261 q 84 492 63 426 q 148 603 105 557 q 257 671 191 648 q 412 694 323 694 l 775 694 l 775 623 l 601 623 m 609 339 q 602 425 609 385 q 582 499 594 465 q 553 565 570 534 q 519 623 537 595 l 422 623 q 218 550 283 623 q 153 336 153 477 q 171 222 153 273 q 218 135 188 171 q 292 79 249 98 q 385 59 334 59 q 477 79 436 59 q 548 137 519 100 q 593 226 577 174 q 609 339 609 277 z "},"τ":{"ha":676,"x_min":26,"x_max":651,"o":"m 374 623 l 374 178 q 398 95 374 120 q 463 69 422 69 q 495 72 477 69 q 530 80 513 75 l 530 4 q 489 -5 509 -2 q 450 -8 470 -8 q 327 42 366 -8 q 288 189 288 92 l 288 623 l 182 623 q 101 608 141 623 q 26 571 60 594 l 26 651 q 92 683 52 671 q 184 694 131 694 l 651 694 l 651 623 l 374 623 z "},"φ":{"ha":965,"x_min":62,"x_max":903,"o":"m 903 342 q 879 200 903 265 q 808 86 854 134 q 694 11 762 38 q 541 -16 627 -16 l 522 -16 l 522 -326 l 440 -326 l 440 -16 l 423 -16 q 276 7 342 -16 q 162 77 210 31 q 89 191 115 123 q 62 346 62 258 q 73 450 62 400 q 101 544 83 500 q 146 625 120 587 q 203 694 172 663 l 304 694 q 242 620 271 659 q 194 538 214 581 q 163 446 174 494 q 152 343 152 397 q 173 220 152 273 q 229 131 194 167 q 311 77 264 95 q 408 59 357 59 l 440 59 l 440 532 q 485 665 440 619 q 620 711 530 711 q 736 684 684 711 q 825 608 788 657 q 882 492 862 559 q 903 342 903 424 m 813 347 q 797 465 813 412 q 755 556 781 518 q 694 614 728 593 q 623 635 660 635 q 547 608 571 635 q 522 534 522 581 l 522 59 l 556 59 q 660 80 613 59 q 741 139 707 101 q 794 230 775 176 q 813 347 813 283 z "},"‗":{"ha":576,"x_min":0,"x_max":576,"o":"m 0 -185 l 0 -114 l 576 -114 l 576 -185 l 0 -185 m 0 -349 l 0 -278 l 576 -278 l 576 -349 l 0 -349 z "},"‼":{"ha":625,"x_min":132,"x_max":493,"o":"m 233 273 l 158 273 l 149 972 l 243 972 l 233 273 m 197 -12 q 151 6 170 -12 q 132 52 132 25 q 151 99 132 80 q 197 117 170 117 q 222 113 210 117 q 242 99 233 108 q 257 78 252 90 q 262 52 262 66 q 257 27 262 39 q 242 6 252 15 q 222 -7 233 -3 q 197 -12 210 -12 m 464 273 l 389 273 l 379 972 l 473 972 l 464 273 m 428 -12 q 382 6 401 -12 q 363 52 363 25 q 382 99 363 80 q 428 117 401 117 q 452 113 441 117 q 473 99 464 108 q 488 78 482 90 q 493 52 493 66 q 488 27 493 39 q 473 6 482 15 q 452 -7 464 -3 q 428 -12 441 -12 z "},"ⁿ":{"ha":545,"x_min":79,"x_max":473,"o":"m 398 486 l 398 746 q 393 823 398 790 q 376 878 388 856 q 343 910 363 899 q 291 922 322 922 q 238 909 263 922 q 194 876 213 897 q 165 826 176 854 q 154 764 154 797 l 154 486 l 79 486 l 79 973 l 152 973 l 152 890 l 154 890 q 304 986 201 986 q 430 935 386 986 q 473 790 473 884 l 473 486 l 398 486 z "},"₧":{"ha":1523,"x_min":126,"x_max":1469,"o":"m 216 378 l 216 0 l 126 0 l 126 972 l 332 972 q 565 902 486 972 q 643 691 643 831 q 620 564 643 622 q 554 465 597 507 q 448 401 511 424 q 306 378 385 378 l 216 378 m 216 890 l 216 461 l 300 461 q 487 518 425 461 q 549 684 549 575 q 316 890 549 890 l 216 890 m 1031 8 q 933 -14 986 -14 q 811 33 850 -14 q 772 180 772 79 l 772 503 l 667 503 l 667 578 l 772 578 l 772 753 l 859 782 l 859 578 l 1031 578 l 1031 503 l 859 503 l 859 193 q 881 94 859 127 q 953 60 903 60 q 1031 85 992 60 l 1031 8 m 1084 125 q 1122 97 1101 110 q 1164 76 1143 85 q 1208 63 1186 68 q 1251 58 1231 58 q 1348 82 1314 58 q 1381 151 1381 105 q 1376 184 1381 170 q 1355 213 1371 199 q 1312 240 1340 227 q 1240 272 1284 254 q 1176 300 1204 286 q 1127 332 1147 314 q 1097 374 1107 350 q 1086 431 1086 397 q 1103 501 1086 470 q 1147 554 1119 532 q 1214 588 1176 576 q 1295 600 1252 600 q 1374 592 1337 600 q 1440 568 1412 584 l 1440 480 q 1370 513 1408 502 q 1295 525 1331 525 q 1246 519 1269 525 q 1208 502 1224 513 q 1182 474 1192 491 q 1173 435 1173 457 q 1199 382 1173 403 q 1274 343 1224 361 q 1354 311 1318 327 q 1415 273 1390 294 q 1455 224 1440 252 q 1469 157 1469 197 q 1453 82 1469 115 q 1409 28 1437 50 q 1340 -5 1380 6 q 1254 -16 1301 -16 q 1160 -5 1203 -16 q 1084 28 1116 5 l 1084 125 z "},"Ĳ":{"ha":823,"x_min":126,"x_max":704,"o":"m 216 0 l 126 0 l 126 972 l 216 972 l 216 0 m 704 342 q 637 72 704 160 q 447 -16 570 -16 q 402 -13 423 -16 q 363 -3 381 -10 l 363 85 q 448 65 401 65 q 574 133 534 65 q 614 342 614 201 l 614 972 l 704 972 l 704 342 z "},"ĳ":{"ha":629,"x_min":93,"x_max":536,"o":"m 155 870 q 111 888 130 870 q 93 932 93 905 q 111 976 93 959 q 155 994 130 994 q 179 989 168 994 q 199 977 191 985 q 213 957 208 968 q 218 932 218 946 q 213 908 218 920 q 199 888 208 897 q 179 875 191 880 q 155 870 168 870 m 112 0 l 112 694 l 199 694 l 199 0 l 112 0 m 517 24 q 456 -237 517 -148 q 261 -327 395 -327 q 165 -304 214 -327 l 165 -220 q 266 -251 218 -251 q 430 9 430 -251 l 430 694 l 517 694 l 517 24 m 473 870 q 429 888 448 870 q 411 932 411 905 q 429 976 411 959 q 473 994 448 994 q 497 989 486 994 q 517 977 509 985 q 531 957 526 968 q 536 932 536 946 q 531 908 536 920 q 517 888 526 897 q 497 875 509 880 q 473 870 486 870 z "},"ŉ":{"ha":819,"x_min":-22,"x_max":722,"o":"m 635 0 l 635 400 q 465 635 635 635 q 380 617 419 635 q 314 568 342 600 q 270 492 286 536 q 254 397 254 448 l 254 0 l 167 0 l 167 694 l 254 694 l 254 574 l 256 574 q 489 711 334 711 q 663 637 603 711 q 722 423 722 563 l 722 0 l 635 0 m 43 677 l -22 677 l 58 981 l 143 981 l 43 677 z "},"′":{"ha":328,"x_min":98,"x_max":234,"o":"m 234 972 l 166 666 l 98 666 l 149 972 l 234 972 z "},"″":{"ha":536,"x_min":102,"x_max":439,"o":"m 439 972 l 370 666 l 302 666 l 353 972 l 439 972 m 237 972 l 170 666 l 102 666 l 153 972 l 237 972 z "},"℅":{"ha":1115,"x_min":97,"x_max":1036,"o":"m 503 877 q 385 918 448 918 q 307 899 342 918 q 247 849 272 880 q 207 775 221 817 q 193 689 193 734 q 313 551 193 551 q 447 597 370 551 l 427 515 q 298 484 361 484 q 221 498 255 484 q 163 538 186 512 q 127 601 140 564 q 115 683 115 637 q 136 803 115 747 q 193 899 156 858 q 281 963 230 939 q 395 986 333 986 q 524 954 474 986 l 503 877 m 1009 972 l 183 0 l 97 0 l 923 972 l 1009 972 m 774 -14 q 690 1 727 -14 q 629 42 654 16 q 590 105 604 68 q 577 187 577 142 q 598 301 577 247 q 654 397 618 356 q 739 464 690 439 q 844 488 788 488 q 924 475 888 488 q 984 436 959 461 q 1023 373 1009 410 q 1036 290 1036 336 q 1016 174 1036 229 q 960 78 996 119 q 877 11 925 36 q 774 -14 829 -14 m 842 424 q 768 403 803 424 q 708 349 734 382 q 668 273 683 315 q 654 186 654 231 q 777 51 654 51 q 848 70 815 51 q 906 122 882 90 q 945 197 931 155 q 959 287 959 240 q 842 424 959 424 z "},"ℓ":{"ha":449,"x_min":5,"x_max":437,"o":"m 5 296 l 130 452 l 130 754 q 138 865 130 817 q 165 946 146 913 q 215 995 184 978 q 290 1011 245 1011 q 351 1000 323 1011 q 397 968 378 989 q 427 920 416 948 q 437 858 437 892 q 424 780 437 822 q 383 688 410 738 q 314 579 355 638 q 218 450 273 520 l 218 174 q 233 87 218 113 q 283 60 247 60 q 340 79 307 60 q 418 132 374 98 l 418 44 q 345 -1 381 14 q 265 -16 308 -16 q 164 27 197 -16 q 130 163 130 70 l 130 338 l 59 252 l 5 296 m 218 571 q 286 670 259 628 q 330 744 313 711 q 353 804 346 777 q 359 857 359 831 q 340 922 359 902 q 292 943 321 943 q 256 933 271 943 q 234 903 242 924 q 222 846 225 881 q 218 758 218 810 l 218 571 z "},"□":{"ha":839,"x_min":99,"x_max":740,"o":"m 99 640 l 740 640 l 740 0 l 99 0 l 99 640 m 151 589 l 151 52 l 688 52 l 688 589 l 151 589 z "},"▪":{"ha":492,"x_min":89,"x_max":403,"o":"m 403 615 l 403 301 l 89 301 l 89 615 l 403 615 z "},"▫":{"ha":492,"x_min":89,"x_max":403,"o":"m 403 615 l 403 301 l 89 301 l 89 615 l 403 615 m 351 564 l 140 564 l 140 353 l 351 353 l 351 564 z "},"●":{"ha":839,"x_min":121,"x_max":718,"o":"m 419 690 q 543 664 488 690 q 637 595 598 637 q 697 499 676 553 q 718 392 718 446 q 695 276 718 330 q 631 181 671 222 q 536 117 591 140 q 420 93 482 93 q 303 116 358 93 q 208 180 249 140 q 144 276 168 221 q 121 392 121 330 q 146 515 121 460 q 214 609 172 570 q 310 669 256 648 q 419 690 363 690 z "},"◦":{"ha":492,"x_min":76,"x_max":416,"o":"m 416 460 q 403 393 416 424 q 367 338 390 361 q 313 302 344 315 q 246 289 281 289 q 180 302 211 289 q 126 339 149 316 q 90 394 103 363 q 76 460 76 425 q 89 525 76 494 q 125 579 102 555 q 180 616 149 602 q 246 629 211 629 q 312 616 281 629 q 366 579 342 602 q 403 525 389 555 q 416 460 416 494 m 127 460 q 137 413 127 435 q 162 375 146 391 q 200 350 178 359 q 247 340 222 340 q 293 350 272 340 q 331 376 315 359 q 356 414 347 392 q 365 460 365 435 q 355 506 365 484 q 330 543 346 527 q 292 569 313 559 q 245 578 270 578 q 200 568 222 578 q 163 543 179 559 q 137 505 146 526 q 127 460 127 484 z "},"Ā":{"ha":884,"x_min":27,"x_max":857,"o":"m 756 0 l 649 288 l 232 288 l 127 0 l 27 0 l 397 972 l 488 972 l 857 0 l 756 0 m 460 802 q 450 832 455 815 q 441 871 445 849 l 439 871 q 430 832 435 849 q 420 802 425 815 l 262 370 l 618 370 l 460 802 m 269 1052 l 269 1117 l 613 1117 l 613 1052 l 269 1052 z "},"ā":{"ha":696,"x_min":66,"x_max":599,"o":"m 512 0 l 512 123 l 509 123 q 417 20 475 57 q 284 -16 358 -16 q 194 -2 234 -16 q 125 38 153 12 q 82 101 97 64 q 66 182 66 138 q 125 332 66 276 q 301 405 183 388 l 512 435 q 357 635 512 635 q 132 547 235 635 l 132 642 q 181 670 153 657 q 239 691 208 682 q 301 706 269 701 q 364 711 334 711 q 539 646 480 711 q 599 452 599 581 l 599 0 l 512 0 m 333 337 q 253 320 286 330 q 198 293 220 310 q 166 250 176 275 q 156 187 156 224 q 166 136 156 159 q 194 95 176 112 q 240 68 213 77 q 300 58 267 58 q 385 76 347 58 q 452 125 424 94 q 496 199 480 156 q 512 294 512 243 l 512 362 l 333 337 m 189 816 l 189 881 l 534 881 l 534 816 l 189 816 z "},"Ĉ":{"ha":861,"x_min":68,"x_max":780,"o":"m 780 36 q 523 -17 667 -17 q 336 19 420 -17 q 192 120 252 56 q 101 273 133 184 q 68 467 68 362 q 103 673 68 578 q 201 839 137 768 q 355 949 264 909 q 558 989 446 989 q 780 951 682 989 l 780 854 q 557 907 675 907 q 389 874 463 907 q 266 784 316 842 q 189 647 216 726 q 163 474 163 568 q 186 316 163 390 q 257 186 210 241 q 372 98 303 130 q 533 65 441 65 q 780 124 673 65 l 780 36 m 625 1052 l 516 1211 l 406 1052 l 340 1052 l 488 1278 l 548 1278 l 696 1052 l 625 1052 z "},"ĉ":{"ha":629,"x_min":64,"x_max":576,"o":"m 574 31 q 387 -17 496 -16 q 252 9 312 -18 q 151 82 193 35 q 86 194 109 130 q 64 333 64 258 q 87 480 64 411 q 157 600 111 549 q 268 681 202 651 q 418 711 334 711 q 576 677 505 711 l 576 585 q 412 635 500 635 q 302 612 350 635 q 221 548 254 589 q 171 454 188 508 q 153 340 153 400 q 168 233 153 284 q 213 143 182 182 q 289 81 243 104 q 397 58 335 58 q 574 117 495 58 l 574 31 m 483 816 l 374 975 l 264 816 l 197 816 l 345 1042 l 406 1042 l 553 816 l 483 816 z "},"Ċ":{"ha":861,"x_min":68,"x_max":780,"o":"m 780 36 q 523 -17 667 -17 q 336 19 420 -17 q 192 120 252 56 q 101 273 133 184 q 68 467 68 362 q 103 673 68 578 q 201 839 137 768 q 355 949 264 909 q 558 989 446 989 q 780 951 682 989 l 780 854 q 557 907 675 907 q 389 874 463 907 q 266 784 316 842 q 189 647 216 726 q 163 474 163 568 q 186 316 163 390 q 257 186 210 241 q 372 98 303 130 q 533 65 441 65 q 780 124 673 65 l 780 36 m 520 1052 q 497 1056 508 1052 q 478 1069 486 1061 q 465 1088 470 1077 q 460 1112 460 1099 q 465 1135 460 1124 q 478 1153 470 1145 q 497 1165 486 1160 q 519 1169 507 1169 q 562 1153 544 1169 q 580 1112 580 1137 q 563 1069 580 1086 q 520 1052 545 1052 z "},"ċ":{"ha":629,"x_min":64,"x_max":576,"o":"m 574 31 q 387 -17 496 -16 q 252 9 312 -18 q 151 82 193 35 q 86 194 109 130 q 64 333 64 258 q 87 480 64 411 q 157 600 111 549 q 268 681 202 651 q 418 711 334 711 q 576 677 505 711 l 576 585 q 412 635 500 635 q 302 612 350 635 q 221 548 254 589 q 171 454 188 508 q 153 340 153 400 q 168 233 153 284 q 213 143 182 182 q 289 81 243 104 q 397 58 335 58 q 574 117 495 58 l 574 31 m 392 816 q 369 820 380 816 q 350 833 358 825 q 337 852 342 841 q 332 876 332 863 q 337 899 332 888 q 350 917 342 909 q 369 929 358 924 q 391 933 379 933 q 434 917 416 933 q 452 876 452 901 q 434 833 452 850 q 392 816 417 816 z "},"Ē":{"ha":699,"x_min":126,"x_max":622,"o":"m 126 0 l 126 972 l 600 972 l 600 890 l 216 890 l 216 533 l 572 533 l 572 452 l 216 452 l 216 82 l 622 82 l 622 0 l 126 0 m 199 1052 l 199 1117 l 544 1117 l 544 1052 l 199 1052 z "},"ē":{"ha":713,"x_min":63,"x_max":655,"o":"m 153 332 q 170 217 154 268 q 217 131 186 166 q 291 77 248 96 q 390 58 335 58 q 612 140 507 58 l 612 55 q 370 -16 512 -16 q 243 8 300 -16 q 146 79 186 33 q 85 193 106 125 q 63 348 63 261 q 87 492 63 426 q 153 607 111 559 q 252 683 195 656 q 378 711 310 711 q 497 687 446 711 q 584 621 549 664 q 637 515 618 577 q 655 375 655 452 l 655 332 l 153 332 m 566 408 q 514 576 564 516 q 376 635 465 635 q 295 620 332 635 q 229 575 257 604 q 181 503 200 545 q 155 408 163 460 l 566 408 m 202 816 l 202 881 l 547 881 l 547 816 l 202 816 z "},"Ĕ":{"ha":699,"x_min":126,"x_max":622,"o":"m 126 0 l 126 972 l 600 972 l 600 890 l 216 890 l 216 533 l 572 533 l 572 452 l 216 452 l 216 82 l 622 82 l 622 0 l 126 0 m 553 1217 q 533 1149 549 1179 q 493 1097 517 1119 q 436 1064 469 1076 q 367 1052 404 1052 q 296 1063 328 1052 q 240 1096 264 1075 q 202 1148 216 1118 q 186 1217 188 1179 l 248 1217 q 283 1138 252 1165 q 368 1110 315 1110 q 412 1118 391 1110 q 448 1140 432 1126 q 475 1173 465 1154 q 489 1217 486 1193 l 553 1217 z "},"ĕ":{"ha":713,"x_min":63,"x_max":655,"o":"m 153 332 q 170 217 154 268 q 217 131 186 166 q 291 77 248 96 q 390 58 335 58 q 612 140 507 58 l 612 55 q 370 -16 512 -16 q 243 8 300 -16 q 146 79 186 33 q 85 193 106 125 q 63 348 63 261 q 87 492 63 426 q 153 607 111 559 q 252 683 195 656 q 378 711 310 711 q 497 687 446 711 q 584 621 549 664 q 637 515 618 577 q 655 375 655 452 l 655 332 l 153 332 m 566 408 q 514 576 564 516 q 376 635 465 635 q 295 620 332 635 q 229 575 257 604 q 181 503 200 545 q 155 408 163 460 l 566 408 m 556 981 q 536 913 551 943 q 496 861 520 883 q 439 828 471 840 q 370 816 407 816 q 299 827 331 816 q 243 860 267 839 q 205 912 219 882 q 189 981 191 943 l 251 981 q 286 902 255 929 q 371 874 317 874 q 414 882 394 874 q 451 904 435 890 q 478 937 467 918 q 492 981 488 957 l 556 981 z "},"Ė":{"ha":699,"x_min":126,"x_max":622,"o":"m 126 0 l 126 972 l 600 972 l 600 890 l 216 890 l 216 533 l 572 533 l 572 452 l 216 452 l 216 82 l 622 82 l 622 0 l 126 0 m 363 1052 q 340 1056 351 1052 q 321 1069 330 1061 q 309 1088 313 1077 q 304 1112 304 1099 q 309 1135 304 1124 q 321 1153 313 1145 q 340 1165 330 1160 q 363 1169 351 1169 q 405 1153 387 1169 q 423 1112 423 1137 q 406 1069 423 1086 q 363 1052 389 1052 z "},"ė":{"ha":713,"x_min":63,"x_max":655,"o":"m 153 332 q 170 217 154 268 q 217 131 186 166 q 291 77 248 96 q 390 58 335 58 q 612 140 507 58 l 612 55 q 370 -16 512 -16 q 243 8 300 -16 q 146 79 186 33 q 85 193 106 125 q 63 348 63 261 q 87 492 63 426 q 153 607 111 559 q 252 683 195 656 q 378 711 310 711 q 497 687 446 711 q 584 621 549 664 q 637 515 618 577 q 655 375 655 452 l 655 332 l 153 332 m 566 408 q 514 576 564 516 q 376 635 465 635 q 295 620 332 635 q 229 575 257 604 q 181 503 200 545 q 155 408 163 460 l 566 408 m 378 816 q 355 820 366 816 q 336 833 345 825 q 323 852 328 841 q 319 876 319 863 q 323 899 319 888 q 336 917 328 909 q 355 929 345 924 q 378 933 366 933 q 420 917 402 933 q 438 876 438 901 q 421 833 438 850 q 378 816 404 816 z "},"Ĝ":{"ha":940,"x_min":68,"x_max":841,"o":"m 841 67 q 524 -17 691 -17 q 334 19 418 -17 q 191 120 250 56 q 100 275 132 185 q 68 473 68 365 q 84 610 68 544 q 129 733 99 675 q 201 838 158 791 q 299 918 243 884 q 420 970 354 952 q 564 989 487 989 q 821 937 708 989 l 821 838 q 553 907 696 907 q 392 874 464 907 q 270 785 320 842 q 191 650 219 728 q 163 481 163 572 q 186 315 162 391 q 258 183 210 239 q 375 96 305 127 q 536 65 445 65 q 751 117 660 65 l 751 413 l 530 413 l 530 495 l 841 495 l 841 67 m 635 1052 l 526 1211 l 416 1052 l 349 1052 l 497 1278 l 557 1278 l 705 1052 l 635 1052 z "},"ĝ":{"ha":798,"x_min":63,"x_max":686,"o":"m 686 54 q 598 -233 686 -140 q 327 -326 510 -326 q 111 -275 213 -326 l 111 -187 q 327 -250 224 -250 q 599 37 599 -250 l 599 121 l 596 121 q 352 -16 516 -16 q 234 7 288 -16 q 143 76 181 31 q 84 185 105 121 q 63 330 63 249 q 85 485 63 415 q 149 606 108 555 q 249 683 191 656 q 381 711 308 711 q 596 591 528 711 l 599 591 l 599 694 l 686 694 l 686 54 m 599 422 q 583 504 599 465 q 540 572 568 543 q 474 618 512 601 q 389 635 435 635 q 291 614 335 635 q 217 555 248 593 q 169 461 186 516 q 153 336 153 406 q 168 221 153 273 q 212 134 184 170 q 281 78 241 98 q 371 58 321 58 q 465 77 422 58 q 536 129 507 96 q 583 206 566 161 q 599 302 599 250 l 599 422 m 499 816 l 390 975 l 280 816 l 214 816 l 361 1042 l 422 1042 l 570 816 l 499 816 z "},"Ġ":{"ha":940,"x_min":68,"x_max":841,"o":"m 841 67 q 524 -17 691 -17 q 334 19 418 -17 q 191 120 250 56 q 100 275 132 185 q 68 473 68 365 q 84 610 68 544 q 129 733 99 675 q 201 838 158 791 q 299 918 243 884 q 420 970 354 952 q 564 989 487 989 q 821 937 708 989 l 821 838 q 553 907 696 907 q 392 874 464 907 q 270 785 320 842 q 191 650 219 728 q 163 481 163 572 q 186 315 162 391 q 258 183 210 239 q 375 96 305 127 q 536 65 445 65 q 751 117 660 65 l 751 413 l 530 413 l 530 495 l 841 495 l 841 67 m 532 1052 q 509 1056 519 1052 q 490 1069 498 1061 q 477 1088 481 1077 q 472 1112 472 1099 q 477 1135 472 1124 q 490 1153 481 1145 q 508 1165 498 1160 q 531 1169 519 1169 q 573 1153 555 1169 q 591 1112 591 1137 q 574 1069 591 1086 q 532 1052 557 1052 z "},"ġ":{"ha":798,"x_min":63,"x_max":686,"o":"m 686 54 q 598 -233 686 -140 q 327 -326 510 -326 q 111 -275 213 -326 l 111 -187 q 327 -250 224 -250 q 599 37 599 -250 l 599 121 l 596 121 q 352 -16 516 -16 q 234 7 288 -16 q 143 76 181 31 q 84 185 105 121 q 63 330 63 249 q 85 485 63 415 q 149 606 108 555 q 249 683 191 656 q 381 711 308 711 q 596 591 528 711 l 599 591 l 599 694 l 686 694 l 686 54 m 599 422 q 583 504 599 465 q 540 572 568 543 q 474 618 512 601 q 389 635 435 635 q 291 614 335 635 q 217 555 248 593 q 169 461 186 516 q 153 336 153 406 q 168 221 153 273 q 212 134 184 170 q 281 78 241 98 q 371 58 321 58 q 465 77 422 58 q 536 129 507 96 q 583 206 566 161 q 599 302 599 250 l 599 422 m 384 816 q 361 820 372 816 q 342 833 350 825 q 329 852 334 841 q 324 876 324 863 q 329 899 324 888 q 342 917 334 909 q 360 929 350 924 q 383 933 371 933 q 426 917 408 933 q 444 876 444 901 q 426 833 444 850 q 384 816 409 816 z "},"Ģ":{"ha":940,"x_min":68,"x_max":841,"o":"m 841 67 q 524 -17 691 -17 q 334 19 418 -17 q 191 120 250 56 q 100 275 132 185 q 68 473 68 365 q 84 610 68 544 q 129 733 99 675 q 201 838 158 791 q 299 918 243 884 q 420 970 354 952 q 564 989 487 989 q 821 937 708 989 l 821 838 q 553 907 696 907 q 392 874 464 907 q 270 785 320 842 q 191 650 219 728 q 163 481 163 572 q 186 315 162 391 q 258 183 210 239 q 375 96 305 127 q 536 65 445 65 q 751 117 660 65 l 751 413 l 530 413 l 530 495 l 841 495 l 841 67 m 582 -81 l 483 -257 l 414 -257 l 486 -81 l 582 -81 z "},"ģ":{"ha":798,"x_min":63,"x_max":686,"o":"m 686 54 q 598 -233 686 -140 q 327 -326 510 -326 q 111 -275 213 -326 l 111 -187 q 327 -250 224 -250 q 599 37 599 -250 l 599 121 l 596 121 q 352 -16 516 -16 q 234 7 288 -16 q 143 76 181 31 q 84 185 105 121 q 63 330 63 249 q 85 485 63 415 q 149 606 108 555 q 249 683 191 656 q 381 711 308 711 q 596 591 528 711 l 599 591 l 599 694 l 686 694 l 686 54 m 599 422 q 583 504 599 465 q 540 572 568 543 q 474 618 512 601 q 389 635 435 635 q 291 614 335 635 q 217 555 248 593 q 169 461 186 516 q 153 336 153 406 q 168 221 153 273 q 212 134 184 170 q 281 78 241 98 q 371 58 321 58 q 465 77 422 58 q 536 129 507 96 q 583 206 566 161 q 599 302 599 250 l 599 422 m 325 826 l 424 1002 l 492 1002 l 421 826 l 325 826 z "},"Ĥ":{"ha":963,"x_min":126,"x_max":837,"o":"m 747 0 l 747 455 l 216 455 l 216 0 l 126 0 l 126 972 l 216 972 l 216 536 l 747 536 l 747 972 l 837 972 l 837 0 l 747 0 m 587 1052 l 478 1211 l 368 1052 l 302 1052 l 450 1278 l 510 1278 l 658 1052 l 587 1052 z "},"ĥ":{"ha":764,"x_min":112,"x_max":667,"o":"m 581 0 l 581 408 q 538 580 581 525 q 408 635 496 635 q 328 618 366 635 q 261 570 290 602 q 216 492 233 538 q 199 389 199 446 l 199 0 l 112 0 l 112 1028 l 199 1028 l 199 574 l 201 574 q 435 711 283 711 q 609 640 551 711 q 667 429 667 568 l 667 0 l 581 0 m 515 1107 l 406 1265 l 296 1107 l 230 1107 l 378 1333 l 438 1333 l 586 1107 l 515 1107 z "},"Ħ":{"ha":963,"x_min":30,"x_max":932,"o":"m 30 703 l 30 785 l 126 785 l 126 972 l 216 972 l 216 785 l 747 785 l 747 972 l 837 972 l 837 785 l 932 785 l 932 703 l 837 703 l 837 0 l 747 0 l 747 455 l 216 455 l 216 0 l 126 0 l 126 703 l 30 703 m 747 536 l 747 703 l 216 703 l 216 536 l 747 536 z "},"ħ":{"ha":764,"x_min":27,"x_max":675,"o":"m 588 0 l 588 400 q 546 572 588 516 q 415 627 504 627 q 345 613 382 627 q 277 569 308 599 q 226 492 246 538 q 206 380 206 446 l 206 0 l 119 0 l 119 825 l 27 825 l 27 899 l 119 899 l 119 1028 l 206 1028 l 206 899 l 451 899 l 451 825 l 206 825 l 206 566 l 209 566 q 304 666 246 629 q 442 703 362 703 q 616 629 557 703 q 675 420 675 555 l 675 0 l 588 0 z "},"Ĩ":{"ha":343,"x_min":-42,"x_max":387,"o":"m 216 0 l 126 0 l 126 972 l 216 972 l 216 0 m 387 1213 q 378 1149 387 1178 q 354 1100 370 1121 q 316 1068 338 1080 q 265 1057 294 1057 q 159 1100 219 1057 q 79 1133 112 1133 q 14 1046 14 1133 l -42 1046 q -34 1109 -42 1081 q -9 1158 -25 1138 q 28 1190 6 1179 q 79 1201 51 1201 q 184 1159 125 1201 q 267 1124 232 1124 q 312 1146 295 1124 q 328 1213 328 1168 l 387 1213 z "},"ĩ":{"ha":311,"x_min":-61,"x_max":368,"o":"m 112 0 l 112 694 l 199 694 l 199 0 l 112 0 m 368 977 q 359 913 368 942 q 335 864 351 885 q 297 832 319 844 q 246 821 275 821 q 140 864 200 821 q 60 897 93 897 q -5 810 -5 897 l -61 810 q -53 873 -61 845 q -28 922 -44 902 q 9 954 -13 943 q 60 965 32 965 q 165 923 106 965 q 248 888 213 888 q 293 910 276 888 q 309 977 309 932 l 368 977 z "},"Ī":{"ha":343,"x_min":-1,"x_max":344,"o":"m 216 0 l 126 0 l 126 972 l 216 972 l 216 0 m -1 1052 l -1 1117 l 344 1117 l 344 1052 l -1 1052 z "},"ī":{"ha":311,"x_min":-16,"x_max":328,"o":"m 112 0 l 112 694 l 199 694 l 199 0 l 112 0 m -16 816 l -16 881 l 328 881 l 328 816 l -16 816 z "},"Ĭ":{"ha":343,"x_min":-13,"x_max":355,"o":"m 216 0 l 126 0 l 126 972 l 216 972 l 216 0 m 355 1217 q 334 1149 350 1179 q 294 1097 319 1119 q 238 1064 270 1076 q 168 1052 205 1052 q 97 1063 130 1052 q 41 1096 65 1075 q 3 1148 18 1118 q -13 1217 -11 1179 l 50 1217 q 85 1138 54 1165 q 170 1110 116 1110 q 213 1118 193 1110 q 250 1140 233 1126 q 276 1173 266 1154 q 290 1217 287 1193 l 355 1217 z "},"ĭ":{"ha":311,"x_min":-32,"x_max":336,"o":"m 112 0 l 112 694 l 199 694 l 199 0 l 112 0 m 336 981 q 315 913 331 943 q 275 861 300 883 q 219 828 251 840 q 149 816 186 816 q 78 827 111 816 q 22 860 46 839 q -16 912 -1 882 q -32 981 -30 943 l 31 981 q 66 902 35 929 q 151 874 97 874 q 194 882 174 874 q 231 904 214 890 q 257 937 247 918 q 271 981 268 957 l 336 981 z "},"Į":{"ha":343,"x_min":78,"x_max":258,"o":"m 216 0 l 126 0 l 126 972 l 216 972 l 216 0 m 258 0 q 150 -157 150 -94 q 201 -211 150 -211 q 248 -201 225 -211 l 248 -260 q 188 -271 222 -271 q 108 -244 138 -271 q 78 -168 78 -217 q 106 -85 78 -129 q 189 0 134 -41 l 258 0 z "},"į":{"ha":311,"x_min":14,"x_max":218,"o":"m 155 870 q 111 888 130 870 q 93 932 93 905 q 111 976 93 959 q 155 994 130 994 q 179 989 168 994 q 199 977 191 985 q 213 957 208 968 q 218 932 218 946 q 213 908 218 920 q 199 888 208 897 q 179 875 191 880 q 155 870 168 870 m 112 0 l 112 694 l 199 694 l 199 0 l 112 0 m 194 0 q 85 -157 85 -94 q 137 -211 85 -211 q 183 -201 161 -211 l 183 -260 q 123 -271 157 -271 q 44 -244 74 -271 q 14 -168 14 -217 q 41 -85 14 -129 q 124 0 69 -41 l 194 0 z "},"Ĵ":{"ha":473,"x_min":13,"x_max":485,"o":"m 353 342 q 286 72 353 160 q 96 -16 219 -16 q 52 -13 73 -16 q 13 -3 31 -10 l 13 85 q 98 65 51 65 q 223 133 184 65 q 263 342 263 201 l 263 972 l 353 972 l 353 342 m 414 1052 l 305 1211 l 195 1052 l 129 1052 l 277 1278 l 337 1278 l 485 1052 l 414 1052 z "},"ĵ":{"ha":311,"x_min":-153,"x_max":333,"o":"m 199 24 q 138 -237 199 -148 q -57 -327 77 -327 q -153 -304 -104 -327 l -153 -220 q -52 -251 -100 -251 q 112 9 112 -251 l 112 694 l 199 694 l 199 24 m 262 816 l 153 975 l 43 816 l -23 816 l 125 1042 l 185 1042 l 333 816 l 262 816 z "},"Ķ":{"ha":768,"x_min":126,"x_max":762,"o":"m 635 0 l 240 455 q 219 483 224 475 l 216 483 l 216 0 l 126 0 l 126 972 l 216 972 l 216 515 l 219 515 q 229 529 224 522 q 241 543 235 536 l 619 972 l 734 972 l 312 503 l 762 0 l 635 0 m 478 -81 l 379 -257 l 311 -257 l 382 -81 l 478 -81 z "},"ķ":{"ha":653,"x_min":112,"x_max":644,"o":"m 521 0 l 201 338 l 199 338 l 199 0 l 112 0 l 112 1028 l 199 1028 l 199 371 l 201 371 l 505 694 l 618 694 l 292 359 l 644 0 l 521 0 m 408 -81 l 309 -257 l 240 -257 l 311 -81 l 408 -81 z "},"ĸ":{"ha":653,"x_min":112,"x_max":644,"o":"m 521 0 l 201 338 l 199 338 l 199 0 l 112 0 l 112 694 l 199 694 l 199 371 l 201 371 l 505 694 l 618 694 l 292 359 l 644 0 l 521 0 z "},"Ļ":{"ha":645,"x_min":126,"x_max":607,"o":"m 126 0 l 126 972 l 216 972 l 216 82 l 607 82 l 607 0 l 126 0 m 418 -81 l 319 -257 l 250 -257 l 321 -81 l 418 -81 z "},"ļ":{"ha":311,"x_min":26,"x_max":199,"o":"m 112 0 l 112 1028 l 199 1028 l 199 0 l 112 0 m 194 -81 l 95 -257 l 26 -257 l 98 -81 l 194 -81 z "},"Ņ":{"ha":1012,"x_min":126,"x_max":886,"o":"m 792 0 l 252 781 q 232 811 242 795 q 216 842 222 827 l 213 842 q 215 808 214 829 q 216 753 216 786 l 216 0 l 126 0 l 126 972 l 226 972 l 757 201 q 779 167 769 183 q 797 138 789 151 l 800 138 q 796 188 798 160 q 795 250 795 216 l 795 972 l 886 972 l 886 0 l 792 0 m 566 -81 l 467 -257 l 398 -257 l 469 -81 l 566 -81 z "},"ņ":{"ha":764,"x_min":112,"x_max":667,"o":"m 581 0 l 581 400 q 410 635 581 635 q 326 617 364 635 q 259 568 287 600 q 215 492 231 536 q 199 397 199 448 l 199 0 l 112 0 l 112 694 l 199 694 l 199 574 l 201 574 q 434 711 279 711 q 608 637 548 711 q 667 423 667 563 l 667 0 l 581 0 m 448 -81 l 349 -257 l 280 -257 l 351 -81 l 448 -81 z "},"Ŋ":{"ha":1012,"x_min":126,"x_max":886,"o":"m 886 22 q 650 -286 886 -286 q 567 -271 604 -286 l 567 -182 q 652 -204 614 -204 q 720 -189 692 -204 q 763 -145 747 -173 q 788 -81 780 -118 q 798 0 795 -43 l 252 781 q 233 809 243 794 q 216 842 224 824 l 213 842 q 215 806 214 828 q 216 753 216 784 l 216 0 l 126 0 l 126 972 l 226 972 l 757 214 q 773 188 764 203 q 797 147 782 174 l 800 147 q 796 200 798 171 q 795 262 795 229 l 795 972 l 886 972 l 886 22 z "},"ŋ":{"ha":764,"x_min":112,"x_max":667,"o":"m 667 9 q 612 -213 667 -140 q 446 -286 557 -286 q 398 -281 422 -286 q 354 -264 374 -275 l 354 -176 q 401 -199 378 -191 q 447 -206 425 -206 q 548 -155 515 -206 q 581 1 581 -104 l 581 400 q 410 635 581 635 q 322 616 361 635 q 256 564 283 597 q 214 488 229 531 q 199 397 199 445 l 199 0 l 112 0 l 112 694 l 199 694 l 199 574 l 201 574 q 434 711 279 711 q 609 638 550 711 q 667 423 667 565 l 667 9 z "},"Ō":{"ha":1052,"x_min":68,"x_max":983,"o":"m 522 -17 q 333 21 417 -17 q 190 126 249 60 q 100 282 132 193 q 68 475 68 372 q 100 684 68 589 q 192 846 132 779 q 340 951 252 913 q 539 989 427 989 q 724 952 642 989 q 864 849 806 915 q 952 694 922 784 q 983 500 983 605 q 953 295 983 389 q 864 131 923 200 q 720 22 806 62 q 522 -17 634 -17 m 530 907 q 373 873 441 907 q 258 782 305 840 q 188 648 212 725 q 163 484 163 571 q 184 326 162 401 q 251 192 206 250 q 363 100 295 134 q 522 65 431 65 q 681 97 612 65 q 796 184 750 128 q 866 317 842 240 q 889 486 889 395 q 868 648 889 572 q 804 782 848 725 q 692 873 760 840 q 530 907 625 907 m 353 1052 l 353 1117 l 698 1117 l 698 1052 l 353 1052 z "},"ō":{"ha":796,"x_min":63,"x_max":733,"o":"m 396 -16 q 257 9 319 -16 q 153 82 196 35 q 86 195 109 130 q 63 341 63 261 q 87 496 63 428 q 157 613 112 565 q 266 686 202 661 q 408 711 330 711 q 544 686 484 711 q 646 614 604 661 q 711 500 688 568 q 733 348 733 433 q 710 200 733 267 q 643 85 686 133 q 537 10 600 37 q 396 -16 475 -16 m 403 635 q 300 616 346 635 q 221 558 254 596 q 170 466 188 521 q 153 342 153 412 q 170 225 153 277 q 220 136 188 173 q 298 78 252 98 q 401 58 345 58 q 505 78 460 58 q 581 134 549 97 q 628 224 612 171 q 644 347 644 278 q 581 561 644 487 q 403 635 519 635 m 226 816 l 226 881 l 570 881 l 570 816 l 226 816 z "},"Ŏ":{"ha":1052,"x_min":68,"x_max":983,"o":"m 522 -17 q 333 21 417 -17 q 190 126 249 60 q 100 282 132 193 q 68 475 68 372 q 100 684 68 589 q 192 846 132 779 q 340 951 252 913 q 539 989 427 989 q 724 952 642 989 q 864 849 806 915 q 952 694 922 784 q 983 500 983 605 q 953 295 983 389 q 864 131 923 200 q 720 22 806 62 q 522 -17 634 -17 m 530 907 q 373 873 441 907 q 258 782 305 840 q 188 648 212 725 q 163 484 163 571 q 184 326 162 401 q 251 192 206 250 q 363 100 295 134 q 522 65 431 65 q 681 97 612 65 q 796 184 750 128 q 866 317 842 240 q 889 486 889 395 q 868 648 889 572 q 804 782 848 725 q 692 873 760 840 q 530 907 625 907 m 717 1217 q 696 1149 712 1179 q 656 1097 681 1119 q 600 1064 632 1076 q 530 1052 568 1052 q 459 1063 492 1052 q 404 1096 427 1075 q 366 1148 380 1118 q 349 1217 351 1179 l 412 1217 q 447 1138 416 1165 q 532 1110 478 1110 q 575 1118 555 1110 q 612 1140 595 1126 q 638 1173 628 1154 q 652 1217 649 1193 l 717 1217 z "},"ŏ":{"ha":796,"x_min":63,"x_max":733,"o":"m 396 -16 q 257 9 319 -16 q 153 82 196 35 q 86 195 109 130 q 63 341 63 261 q 87 496 63 428 q 157 613 112 565 q 266 686 202 661 q 408 711 330 711 q 544 686 484 711 q 646 614 604 661 q 711 500 688 568 q 733 348 733 433 q 710 200 733 267 q 643 85 686 133 q 537 10 600 37 q 396 -16 475 -16 m 403 635 q 300 616 346 635 q 221 558 254 596 q 170 466 188 521 q 153 342 153 412 q 170 225 153 277 q 220 136 188 173 q 298 78 252 98 q 401 58 345 58 q 505 78 460 58 q 581 134 549 97 q 628 224 612 171 q 644 347 644 278 q 581 561 644 487 q 403 635 519 635 m 592 981 q 572 913 587 943 q 532 861 556 883 q 475 828 507 840 q 406 816 443 816 q 335 827 367 816 q 279 860 302 839 q 241 912 255 882 q 224 981 227 943 l 287 981 q 322 902 291 929 q 407 874 353 874 q 450 882 430 874 q 487 904 471 890 q 514 937 503 918 q 528 981 524 957 l 592 981 z "},"Ŗ":{"ha":801,"x_min":126,"x_max":762,"o":"m 656 0 l 509 279 q 467 348 488 320 q 425 392 447 376 q 379 416 404 409 q 323 423 354 423 l 216 423 l 216 0 l 126 0 l 126 972 l 406 972 q 512 956 461 972 q 604 908 564 940 q 668 828 644 876 q 692 716 692 780 q 676 621 692 665 q 632 544 661 578 q 562 487 603 511 q 469 452 521 464 l 469 450 q 505 429 489 441 q 537 397 522 416 q 567 355 552 379 q 598 301 582 332 l 762 0 l 656 0 m 216 890 l 216 505 l 378 505 q 467 519 427 505 q 537 560 508 534 q 582 624 566 587 q 597 708 597 661 q 543 841 597 793 q 385 890 488 890 l 216 890 m 467 -81 l 368 -257 l 300 -257 l 371 -81 l 467 -81 z "},"ŗ":{"ha":471,"x_min":112,"x_max":456,"o":"m 456 606 q 378 628 426 628 q 317 615 343 628 q 270 579 290 602 q 236 527 250 557 q 214 466 222 498 q 202 401 205 434 q 198 340 198 369 l 198 0 l 112 0 l 112 694 l 198 694 l 198 546 l 201 546 q 232 614 213 584 q 275 665 250 644 q 328 696 299 686 q 389 707 357 707 q 426 705 410 707 q 456 696 443 702 l 456 606 m 343 -81 l 244 -257 l 176 -257 l 247 -81 l 343 -81 z "},"Ŝ":{"ha":714,"x_min":88,"x_max":639,"o":"m 88 142 q 142 110 113 124 q 202 85 172 95 q 264 70 233 75 q 324 65 296 65 q 490 108 435 65 q 545 231 545 151 q 532 298 545 269 q 492 352 519 327 q 423 402 465 377 q 326 458 382 427 q 219 522 263 492 q 146 584 174 552 q 105 652 118 615 q 92 735 92 688 q 117 841 92 794 q 184 921 142 888 q 284 971 227 954 q 407 989 342 989 q 599 957 522 989 l 599 857 q 397 907 513 907 q 315 896 353 907 q 248 865 277 886 q 202 815 219 845 q 186 745 186 785 q 197 679 186 707 q 233 627 208 652 q 298 579 258 603 q 397 524 338 555 q 503 460 458 491 q 579 396 549 429 q 624 325 609 362 q 639 241 639 287 q 615 129 639 177 q 549 48 591 80 q 447 0 506 16 q 317 -16 388 -16 q 262 -13 294 -16 q 198 -2 231 -9 q 136 15 165 5 q 88 37 106 25 l 88 142 m 472 1052 l 363 1211 l 253 1052 l 186 1052 l 334 1278 l 395 1278 l 543 1052 l 472 1052 z "},"ŝ":{"ha":564,"x_min":73,"x_max":503,"o":"m 73 125 q 115 97 92 109 q 163 76 138 85 q 212 63 187 67 q 259 58 237 58 q 414 174 414 58 q 403 220 414 201 q 372 255 392 239 q 323 285 351 271 q 258 313 294 298 q 176 353 210 333 q 119 398 141 374 q 85 451 96 422 q 75 516 75 479 q 95 598 75 562 q 149 659 115 634 q 227 697 182 684 q 320 711 271 711 q 477 677 410 711 l 477 585 q 309 635 399 635 q 250 627 277 635 q 204 604 223 619 q 175 569 185 589 q 164 523 164 548 q 172 478 164 497 q 198 443 180 458 q 242 413 215 427 q 309 382 270 399 q 396 342 359 362 q 456 299 433 322 q 492 247 480 275 q 503 180 503 218 q 484 96 503 133 q 430 35 465 60 q 350 -3 396 9 q 250 -16 304 -16 q 73 28 144 -16 l 73 125 m 395 816 l 286 975 l 176 816 l 109 816 l 257 1042 l 317 1042 l 465 816 l 395 816 z "},"Ŧ":{"ha":719,"x_min":34,"x_max":685,"o":"m 404 890 l 404 530 l 597 530 l 597 446 l 404 446 l 404 0 l 314 0 l 314 446 l 120 446 l 120 530 l 314 530 l 314 890 l 34 890 l 34 972 l 685 972 l 685 890 l 404 890 z "},"ŧ":{"ha":441,"x_min":22,"x_max":410,"o":"m 410 8 q 313 -14 366 -14 q 144 180 144 -14 l 144 379 l 33 379 l 33 453 l 144 453 l 144 618 l 22 618 l 22 694 l 144 694 l 144 869 l 231 898 l 231 694 l 410 694 l 410 618 l 231 618 l 231 453 l 397 453 l 397 379 l 231 379 l 231 193 q 254 92 231 123 q 332 60 277 60 q 410 85 372 60 l 410 8 z "},"Ũ":{"ha":927,"x_min":114,"x_max":813,"o":"m 813 391 q 455 -17 813 -17 q 114 376 114 -17 l 114 972 l 204 972 l 204 384 q 269 144 204 224 q 468 65 333 65 q 723 374 723 65 l 723 972 l 813 972 l 813 391 m 680 1213 q 671 1149 680 1178 q 647 1100 663 1121 q 609 1068 631 1080 q 558 1057 587 1057 q 452 1100 512 1057 q 372 1133 405 1133 q 307 1046 307 1133 l 251 1046 q 259 1109 251 1081 q 283 1158 268 1138 q 321 1190 299 1179 q 372 1201 344 1201 q 477 1159 418 1201 q 560 1124 525 1124 q 605 1146 588 1124 q 621 1213 621 1168 l 680 1213 z "},"ũ":{"ha":765,"x_min":97,"x_max":653,"o":"m 566 0 l 566 118 l 564 118 q 345 -16 493 -16 q 97 286 97 -16 l 97 694 l 184 694 l 184 302 q 228 118 184 178 q 364 58 273 58 q 446 76 409 58 q 510 124 483 93 q 551 200 536 156 q 566 298 566 244 l 566 694 l 653 694 l 653 0 l 566 0 m 590 977 q 582 913 590 942 q 557 864 573 885 q 519 832 542 844 q 469 821 497 821 q 363 864 422 821 q 282 897 315 897 q 218 810 218 897 l 161 810 q 170 873 161 845 q 194 922 178 902 q 232 954 210 943 q 283 965 254 965 q 387 923 329 965 q 471 888 435 888 q 515 910 498 888 q 532 977 532 932 l 590 977 z "},"Ū":{"ha":927,"x_min":114,"x_max":813,"o":"m 813 391 q 455 -17 813 -17 q 114 376 114 -17 l 114 972 l 204 972 l 204 384 q 269 144 204 224 q 468 65 333 65 q 723 374 723 65 l 723 972 l 813 972 l 813 391 m 291 1052 l 291 1117 l 635 1117 l 635 1052 l 291 1052 z "},"ū":{"ha":765,"x_min":97,"x_max":653,"o":"m 566 0 l 566 118 l 564 118 q 345 -16 493 -16 q 97 286 97 -16 l 97 694 l 184 694 l 184 302 q 228 118 184 178 q 364 58 273 58 q 446 76 409 58 q 510 124 483 93 q 551 200 536 156 q 566 298 566 244 l 566 694 l 653 694 l 653 0 l 566 0 m 200 816 l 200 881 l 545 881 l 545 816 l 200 816 z "},"Ŭ":{"ha":927,"x_min":114,"x_max":813,"o":"m 813 391 q 455 -17 813 -17 q 114 376 114 -17 l 114 972 l 204 972 l 204 384 q 269 144 204 224 q 468 65 333 65 q 723 374 723 65 l 723 972 l 813 972 l 813 391 m 644 1217 q 624 1149 640 1179 q 584 1097 608 1119 q 527 1064 559 1076 q 458 1052 495 1052 q 387 1063 419 1052 q 331 1096 355 1075 q 293 1148 307 1118 q 277 1217 279 1179 l 339 1217 q 374 1138 343 1165 q 459 1110 406 1110 q 503 1118 482 1110 q 539 1140 523 1126 q 566 1173 555 1154 q 580 1217 576 1193 l 644 1217 z "},"ŭ":{"ha":765,"x_min":97,"x_max":653,"o":"m 566 0 l 566 118 l 564 118 q 345 -16 493 -16 q 97 286 97 -16 l 97 694 l 184 694 l 184 302 q 228 118 184 178 q 364 58 273 58 q 446 76 409 58 q 510 124 483 93 q 551 200 536 156 q 566 298 566 244 l 566 694 l 653 694 l 653 0 l 566 0 m 559 981 q 538 913 554 943 q 498 861 523 883 q 442 828 474 840 q 372 816 410 816 q 301 827 334 816 q 245 860 269 839 q 208 912 222 882 q 191 981 193 943 l 254 981 q 289 902 258 929 q 374 874 320 874 q 417 882 397 874 q 454 904 437 890 q 480 937 470 918 q 494 981 491 957 l 559 981 z "},"Ų":{"ha":927,"x_min":114,"x_max":813,"o":"m 813 391 q 455 -17 813 -17 q 114 376 114 -17 l 114 972 l 204 972 l 204 384 q 269 144 204 224 q 468 65 333 65 q 723 374 723 65 l 723 972 l 813 972 l 813 391 m 566 0 q 458 -157 458 -94 q 509 -211 458 -211 q 555 -201 533 -211 l 555 -260 q 496 -271 530 -271 q 416 -244 446 -271 q 386 -168 386 -217 q 414 -85 386 -129 q 496 0 441 -41 l 566 0 z "},"ų":{"ha":765,"x_min":97,"x_max":653,"o":"m 566 0 l 566 118 l 564 118 q 345 -16 493 -16 q 97 286 97 -16 l 97 694 l 184 694 l 184 302 q 228 118 184 178 q 364 58 273 58 q 446 76 409 58 q 510 124 483 93 q 551 200 536 156 q 566 298 566 244 l 566 694 l 653 694 l 653 0 l 566 0 m 636 0 q 528 -157 528 -94 q 579 -211 528 -211 q 625 -201 603 -211 l 625 -260 q 566 -271 600 -271 q 486 -244 516 -271 q 456 -168 456 -217 q 484 -85 456 -129 q 566 0 511 -41 l 636 0 z "},"Ŵ":{"ha":1270,"x_min":26,"x_max":1244,"o":"m 964 0 l 870 0 l 662 721 q 650 770 654 747 q 645 817 646 794 l 642 817 q 623 722 640 777 l 407 0 l 313 0 l 26 972 l 126 972 l 340 210 q 352 162 348 184 q 359 118 357 139 l 362 118 q 385 210 366 149 l 612 972 l 684 972 l 897 207 q 908 162 903 184 q 916 119 913 140 l 918 119 q 924 149 920 132 q 933 187 928 166 l 1146 972 l 1244 972 l 964 0 m 753 1052 l 644 1211 l 534 1052 l 468 1052 l 616 1278 l 676 1278 l 824 1052 l 753 1052 z "},"ŵ":{"ha":972,"x_min":20,"x_max":951,"o":"m 739 0 l 652 0 l 505 510 q 494 572 498 534 l 492 572 q 487 547 490 562 q 477 511 484 532 l 315 0 l 231 0 l 20 694 l 113 694 l 266 156 q 275 96 273 132 l 281 96 q 285 123 282 108 q 294 157 288 139 l 462 694 l 534 694 l 684 155 q 694 95 690 132 l 700 95 q 703 122 699 106 q 711 155 706 137 l 864 694 l 951 694 l 739 0 m 603 816 l 494 975 l 384 816 l 317 816 l 465 1042 l 526 1042 l 673 816 l 603 816 z "},"Ŷ":{"ha":759,"x_min":23,"x_max":736,"o":"m 418 364 l 418 0 l 328 0 l 328 362 l 23 972 l 125 972 l 348 518 q 359 494 352 510 q 375 452 366 477 l 377 452 q 389 481 381 465 q 407 517 396 497 l 640 972 l 736 972 l 418 364 m 486 1052 l 377 1211 l 267 1052 l 201 1052 l 349 1278 l 409 1278 l 557 1052 l 486 1052 z "},"ŷ":{"ha":650,"x_min":12,"x_max":642,"o":"m 313 -126 q 220 -277 273 -228 q 92 -326 167 -326 q 28 -317 54 -326 l 28 -236 q 59 -244 43 -241 q 90 -247 74 -247 q 164 -220 132 -247 q 218 -139 195 -193 l 279 3 l 12 694 l 108 694 l 307 144 q 314 120 311 134 q 321 92 318 106 l 325 92 q 331 116 328 104 q 340 142 334 127 l 551 694 l 642 694 l 313 -126 m 436 816 l 327 975 l 217 816 l 151 816 l 298 1042 l 359 1042 l 507 816 l 436 816 z "},"ſ":{"ha":340,"x_min":112,"x_max":395,"o":"m 395 946 q 321 965 368 965 q 199 806 199 965 l 199 0 l 112 0 l 112 811 q 124 899 112 857 q 163 972 137 941 q 228 1022 189 1004 q 319 1041 267 1041 q 395 1028 367 1041 l 395 946 z "},"Ǻ":{"ha":884,"x_min":27,"x_max":857,"o":"m 756 0 l 649 288 l 232 288 l 127 0 l 27 0 l 382 933 q 303 1048 303 965 q 314 1101 303 1077 q 344 1142 325 1125 q 388 1169 363 1160 q 443 1179 414 1179 q 497 1169 472 1179 q 540 1143 522 1160 q 569 1103 558 1126 q 579 1050 579 1079 q 502 935 579 969 l 857 0 l 756 0 m 441 1128 q 382 1106 404 1128 q 359 1050 359 1085 q 381 993 359 1013 q 441 972 403 972 q 500 994 477 972 q 524 1050 524 1016 q 517 1082 524 1068 q 499 1107 511 1097 q 473 1122 488 1117 q 441 1128 458 1128 m 468 781 q 454 820 460 800 q 441 871 448 840 l 439 871 q 430 832 435 849 q 420 802 425 815 l 262 370 l 618 370 l 468 781 m 441 1222 l 368 1222 l 523 1444 l 614 1444 l 441 1222 z "},"ǻ":{"ha":696,"x_min":66,"x_max":599,"o":"m 512 0 l 512 123 l 509 123 q 417 20 475 57 q 284 -16 358 -16 q 194 -2 234 -16 q 125 38 153 12 q 82 101 97 64 q 66 182 66 138 q 125 332 66 276 q 301 405 183 388 l 512 435 q 357 635 512 635 q 132 547 235 635 l 132 642 q 181 670 153 657 q 239 691 208 682 q 301 706 269 701 q 364 711 334 711 q 539 646 480 711 q 599 452 599 581 l 599 0 l 512 0 m 333 337 q 253 320 286 330 q 198 293 220 310 q 166 250 176 275 q 156 187 156 224 q 166 136 156 159 q 194 95 176 112 q 240 68 213 77 q 300 58 267 58 q 385 76 347 58 q 452 125 424 94 q 496 199 480 156 q 512 294 512 243 l 512 362 l 333 337 m 351 760 q 300 768 324 760 q 256 793 275 777 q 226 833 237 810 q 215 886 215 857 q 226 939 215 915 q 256 980 237 962 q 300 1006 275 997 q 354 1016 325 1016 q 405 1007 380 1016 q 449 982 430 998 q 479 941 468 965 q 491 888 491 918 q 480 837 491 861 q 449 797 469 814 q 405 769 430 779 q 351 760 380 760 m 351 966 q 293 944 315 966 q 271 888 271 922 q 292 830 271 850 q 351 810 314 810 q 385 815 370 810 q 411 832 400 821 q 429 857 422 842 q 435 888 435 871 q 411 945 435 924 q 351 966 387 966 m 353 1062 l 280 1062 l 435 1284 l 526 1284 l 353 1062 z "},"Ǽ":{"ha":1176,"x_min":9,"x_max":1090,"o":"m 595 0 l 595 288 l 252 288 l 112 0 l 9 0 l 482 972 l 1068 972 l 1068 888 l 684 888 l 684 532 l 1040 532 l 1040 451 l 684 451 l 684 82 l 1090 82 l 1090 0 l 595 0 m 595 888 l 536 888 l 289 370 l 595 370 l 595 888 m 719 1052 l 646 1052 l 800 1274 l 892 1274 l 719 1052 z "},"ǽ":{"ha":1160,"x_min":66,"x_max":1101,"o":"m 598 332 q 615 216 599 267 q 662 131 631 165 q 736 77 692 96 q 835 58 780 58 q 1057 140 954 58 l 1057 55 q 816 -16 959 -16 q 656 28 724 -16 q 553 157 589 73 l 551 157 q 287 -16 456 -16 q 194 -2 235 -16 q 125 38 153 12 q 81 100 96 64 q 66 182 66 137 q 132 336 66 281 q 327 399 197 392 l 512 408 q 358 635 512 635 q 132 549 236 635 l 132 642 q 368 711 237 711 q 570 557 525 711 l 572 557 q 823 711 654 711 q 942 687 890 711 q 1029 620 994 664 q 1083 514 1065 576 q 1101 374 1101 452 l 1101 332 l 598 332 m 1012 408 q 960 576 1008 517 q 823 635 911 635 q 741 620 779 635 q 674 575 703 604 q 627 503 646 545 q 600 408 608 461 l 1012 408 m 512 332 l 389 327 q 288 317 332 324 q 214 295 243 311 q 170 253 185 280 q 155 184 155 227 q 165 132 155 155 q 195 92 176 109 q 241 67 214 76 q 302 58 269 58 q 383 76 345 58 q 450 124 421 94 q 495 196 479 155 q 512 283 512 237 l 512 332 m 568 816 l 494 816 l 649 1038 l 741 1038 l 568 816 z "},"Ǿ":{"ha":1052,"x_min":60,"x_max":983,"o":"m 522 -17 q 353 13 429 -17 q 219 96 277 43 l 108 -36 l 60 3 l 176 142 q 96 293 123 208 q 68 475 68 378 q 100 684 68 589 q 192 846 132 779 q 340 951 252 913 q 539 989 427 989 q 688 966 621 989 q 810 900 756 943 l 904 1012 l 952 972 l 856 858 q 950 701 918 792 q 983 500 983 609 q 953 295 983 389 q 864 131 923 200 q 720 22 806 62 q 522 -17 634 -17 m 889 486 q 867 653 889 575 q 798 789 845 731 l 275 163 q 380 91 319 117 q 522 65 441 65 q 681 97 612 65 q 796 184 750 128 q 866 317 842 240 q 889 486 889 395 m 530 907 q 373 873 441 907 q 258 782 305 840 q 188 648 212 725 q 163 484 163 571 q 180 338 162 408 q 235 212 198 269 l 755 833 q 657 887 712 868 q 530 907 602 907 m 509 1052 l 435 1052 l 590 1274 l 682 1274 l 509 1052 z "},"ǿ":{"ha":796,"x_min":26,"x_max":785,"o":"m 667 589 q 733 350 733 494 q 709 199 733 267 q 642 84 686 132 q 536 10 598 36 q 396 -16 473 -16 q 180 56 265 -16 l 75 -60 l 26 -14 l 134 105 q 63 341 63 201 q 87 496 63 428 q 157 612 112 565 q 267 685 203 660 q 409 711 330 711 q 622 639 539 711 l 735 763 l 785 718 l 667 589 m 565 577 q 403 635 505 635 q 299 615 345 635 q 220 558 252 595 q 170 466 187 520 q 153 342 153 411 q 195 170 153 241 l 565 577 m 237 117 q 401 58 301 58 q 505 78 459 58 q 581 135 550 98 q 628 225 612 172 q 644 347 644 279 q 606 522 644 450 l 237 117 m 381 816 l 308 816 l 463 1038 l 554 1038 l 381 816 z "},"·":{"ha":302,"x_min":75,"x_max":227,"o":"m 75 422 q 81 451 75 437 q 97 476 87 465 q 121 492 107 486 q 151 498 135 498 q 180 492 166 498 q 204 476 194 486 q 221 451 215 465 q 227 422 227 437 q 221 392 227 406 q 204 368 215 378 q 180 352 194 358 q 151 346 166 346 q 121 352 135 346 q 97 368 107 358 q 81 392 87 378 q 75 422 75 406 z "},"Ẁ":{"ha":1270,"x_min":26,"x_max":1244,"o":"m 964 0 l 870 0 l 662 721 q 650 770 654 747 q 645 817 646 794 l 642 817 q 623 722 640 777 l 407 0 l 313 0 l 26 972 l 126 972 l 340 210 q 352 162 348 184 q 359 118 357 139 l 362 118 q 385 210 366 149 l 612 972 l 684 972 l 897 207 q 908 162 903 184 q 916 119 913 140 l 918 119 q 924 149 920 132 q 933 187 928 166 l 1146 972 l 1244 972 l 964 0 m 656 1052 l 484 1274 l 576 1274 l 730 1052 l 656 1052 z "},"ẁ":{"ha":972,"x_min":20,"x_max":951,"o":"m 739 0 l 652 0 l 505 510 q 494 572 498 534 l 492 572 q 487 547 490 562 q 477 511 484 532 l 315 0 l 231 0 l 20 694 l 113 694 l 266 156 q 275 96 273 132 l 281 96 q 285 123 282 108 q 294 157 288 139 l 462 694 l 534 694 l 684 155 q 694 95 690 132 l 700 95 q 703 122 699 106 q 711 155 706 137 l 864 694 l 951 694 l 739 0 m 499 816 l 326 1038 l 418 1038 l 572 816 l 499 816 z "},"Ẃ":{"ha":1270,"x_min":26,"x_max":1244,"o":"m 964 0 l 870 0 l 662 721 q 650 770 654 747 q 645 817 646 794 l 642 817 q 623 722 640 777 l 407 0 l 313 0 l 26 972 l 126 972 l 340 210 q 352 162 348 184 q 359 118 357 139 l 362 118 q 385 210 366 149 l 612 972 l 684 972 l 897 207 q 908 162 903 184 q 916 119 913 140 l 918 119 q 924 149 920 132 q 933 187 928 166 l 1146 972 l 1244 972 l 964 0 m 635 1052 l 562 1052 l 717 1274 l 808 1274 l 635 1052 z "},"ẃ":{"ha":972,"x_min":20,"x_max":951,"o":"m 739 0 l 652 0 l 505 510 q 494 572 498 534 l 492 572 q 487 547 490 562 q 477 511 484 532 l 315 0 l 231 0 l 20 694 l 113 694 l 266 156 q 275 96 273 132 l 281 96 q 285 123 282 108 q 294 157 288 139 l 462 694 l 534 694 l 684 155 q 694 95 690 132 l 700 95 q 703 122 699 106 q 711 155 706 137 l 864 694 l 951 694 l 739 0 m 494 816 l 420 816 l 575 1038 l 667 1038 l 494 816 z "},"Ẅ":{"ha":1270,"x_min":26,"x_max":1244,"o":"m 964 0 l 870 0 l 662 721 q 650 770 654 747 q 645 817 646 794 l 642 817 q 623 722 640 777 l 407 0 l 313 0 l 26 972 l 126 972 l 340 210 q 352 162 348 184 q 359 118 357 139 l 362 118 q 385 210 366 149 l 612 972 l 684 972 l 897 207 q 908 162 903 184 q 916 119 913 140 l 918 119 q 924 149 920 132 q 933 187 928 166 l 1146 972 l 1244 972 l 964 0 m 761 1052 q 721 1068 739 1052 q 704 1109 704 1084 q 721 1151 704 1135 q 760 1166 737 1166 q 802 1150 784 1166 q 819 1109 819 1134 q 803 1068 819 1085 q 761 1052 786 1052 m 518 1052 q 495 1056 506 1052 q 477 1068 485 1061 q 464 1087 469 1076 q 459 1109 459 1097 q 476 1151 459 1135 q 516 1166 493 1166 q 539 1162 528 1166 q 558 1150 550 1158 q 571 1132 566 1143 q 576 1109 576 1122 q 559 1068 576 1085 q 518 1052 542 1052 z "},"ẅ":{"ha":972,"x_min":20,"x_max":951,"o":"m 739 0 l 652 0 l 505 510 q 494 572 498 534 l 492 572 q 487 547 490 562 q 477 511 484 532 l 315 0 l 231 0 l 20 694 l 113 694 l 266 156 q 275 96 273 132 l 281 96 q 285 123 282 108 q 294 157 288 139 l 462 694 l 534 694 l 684 155 q 694 95 690 132 l 700 95 q 703 122 699 106 q 711 155 706 137 l 864 694 l 951 694 l 739 0 m 612 816 q 572 832 589 816 q 555 873 555 848 q 571 915 555 899 q 610 930 588 930 q 652 914 635 930 q 670 873 670 898 q 653 832 670 849 q 612 816 637 816 m 369 816 q 346 820 357 816 q 328 832 336 825 q 315 851 319 840 q 310 873 310 861 q 327 915 310 899 q 367 930 344 930 q 390 926 379 930 q 409 914 401 922 q 422 896 417 907 q 427 873 427 886 q 410 832 427 849 q 369 816 393 816 z "},"Ỳ":{"ha":759,"x_min":23,"x_max":736,"o":"m 418 364 l 418 0 l 328 0 l 328 362 l 23 972 l 125 972 l 348 518 q 359 494 352 510 q 375 452 366 477 l 377 452 q 389 481 381 465 q 407 517 396 497 l 640 972 l 736 972 l 418 364 m 380 1052 l 207 1274 l 299 1274 l 453 1052 l 380 1052 z "},"ỳ":{"ha":650,"x_min":12,"x_max":642,"o":"m 313 -126 q 220 -277 273 -228 q 92 -326 167 -326 q 28 -317 54 -326 l 28 -236 q 59 -244 43 -241 q 90 -247 74 -247 q 164 -220 132 -247 q 218 -139 195 -193 l 279 3 l 12 694 l 108 694 l 307 144 q 314 120 311 134 q 321 92 318 106 l 325 92 q 331 116 328 104 q 340 142 334 127 l 551 694 l 642 694 l 313 -126 m 320 816 l 147 1038 l 239 1038 l 393 816 l 320 816 z "},"‛":{"ha":307,"x_min":70,"x_max":235,"o":"m 70 981 l 155 981 l 235 677 l 171 677 l 70 981 z "},"‾":{"ha":576,"x_min":0,"x_max":576,"o":"m 576 947 l 0 947 l 0 1028 l 576 1028 l 576 947 z "},"₤":{"ha":732,"x_min":63,"x_max":663,"o":"m 308 610 l 519 610 l 519 532 l 308 532 l 308 423 l 519 423 l 519 345 l 308 345 l 308 327 q 170 76 308 144 l 663 76 l 663 0 l 63 0 l 63 75 q 221 304 221 134 l 221 345 l 77 345 l 77 423 l 221 423 l 221 532 l 77 532 l 77 610 l 221 610 l 221 703 q 239 818 221 766 q 291 909 258 871 q 372 968 325 947 q 476 989 419 989 q 610 963 549 989 l 610 878 q 475 913 547 913 q 351 857 393 913 q 308 692 308 802 l 308 610 z "},"℮":{"ha":833,"x_min":58,"x_max":776,"o":"m 215 359 l 215 109 q 416 26 296 26 q 684 193 589 26 l 732 164 q 672 88 703 123 q 604 28 642 54 q 521 -10 567 3 q 416 -24 475 -24 q 269 5 335 -24 q 156 85 203 34 q 83 207 109 136 q 58 359 58 277 q 81 506 58 437 q 150 628 104 576 q 261 712 195 681 q 414 743 328 743 q 564 714 498 743 q 676 633 630 685 q 748 512 722 582 q 776 359 773 441 l 215 359 m 618 410 l 618 611 q 413 694 530 694 q 215 611 294 694 l 215 410 l 618 410 z "},"⅛":{"ha":1147,"x_min":52,"x_max":1061,"o":"m 215 396 l 215 888 q 170 855 193 870 q 124 829 146 840 q 83 809 102 817 q 52 798 64 802 l 52 863 q 106 887 78 872 q 162 920 135 902 q 214 956 190 937 q 256 989 239 974 l 288 989 l 288 396 l 215 396 m 301 0 l 219 0 l 802 972 l 884 972 l 301 0 m 670 165 q 693 245 670 208 q 764 306 717 282 q 735 330 749 317 q 711 360 722 344 q 695 395 701 376 q 689 436 689 414 q 702 502 689 473 q 739 550 715 530 q 794 580 762 570 q 865 591 827 591 q 936 579 903 591 q 993 547 969 568 q 1030 498 1017 527 q 1044 436 1044 470 q 1022 360 1044 393 q 968 306 1001 328 q 1038 245 1015 282 q 1061 165 1061 208 q 1047 90 1061 123 q 1008 34 1034 57 q 946 -1 982 11 q 865 -13 909 -13 q 786 -2 822 -13 q 725 32 751 9 q 684 87 699 54 q 670 165 670 121 m 747 162 q 755 118 747 138 q 779 84 764 98 q 816 62 794 70 q 863 55 838 55 q 912 62 890 55 q 950 84 935 70 q 975 118 966 98 q 983 162 983 138 q 975 203 983 184 q 951 236 966 222 q 913 258 935 250 q 863 266 891 266 q 817 258 838 266 q 780 237 795 251 q 755 205 764 224 q 747 162 747 186 m 768 432 q 776 396 768 413 q 796 365 783 378 q 827 344 809 352 q 865 336 844 336 q 903 344 885 336 q 935 365 922 352 q 957 396 949 378 q 964 432 964 414 q 957 467 964 451 q 936 495 949 484 q 904 513 922 507 q 865 520 886 520 q 825 513 842 520 q 794 494 807 507 q 775 466 782 482 q 768 432 768 450 z "},"⅜":{"ha":1147,"x_min":60,"x_max":1061,"o":"m 399 555 q 385 485 399 517 q 344 430 370 453 q 281 393 318 406 q 198 380 244 380 q 60 414 116 380 l 60 495 q 200 448 130 448 q 291 476 258 448 q 323 553 323 505 q 170 658 323 658 l 117 658 l 117 725 l 165 725 q 305 829 305 725 q 204 916 305 916 q 83 874 147 916 l 83 952 q 220 985 146 985 q 285 975 256 985 q 336 945 315 964 q 368 900 357 926 q 379 842 379 873 q 280 699 379 735 l 280 696 q 369 646 339 683 q 399 555 399 610 m 301 0 l 219 0 l 802 972 l 884 972 l 301 0 m 670 165 q 693 245 670 208 q 764 306 717 282 q 735 330 749 317 q 711 360 722 344 q 695 395 701 376 q 689 436 689 414 q 702 502 689 473 q 739 550 715 530 q 794 580 762 570 q 865 591 827 591 q 936 579 903 591 q 993 547 969 568 q 1030 498 1017 527 q 1044 436 1044 470 q 1022 360 1044 393 q 968 306 1001 328 q 1038 245 1015 282 q 1061 165 1061 208 q 1047 90 1061 123 q 1008 34 1034 57 q 946 -1 982 11 q 865 -13 909 -13 q 786 -2 822 -13 q 725 32 751 9 q 684 87 699 54 q 670 165 670 121 m 747 162 q 755 118 747 138 q 779 84 764 98 q 816 62 794 70 q 863 55 838 55 q 912 62 890 55 q 950 84 935 70 q 975 118 966 98 q 983 162 983 138 q 975 203 983 184 q 951 236 966 222 q 913 258 935 250 q 863 266 891 266 q 817 258 838 266 q 780 237 795 251 q 755 205 764 224 q 747 162 747 186 m 768 432 q 776 396 768 413 q 796 365 783 378 q 827 344 809 352 q 865 336 844 336 q 903 344 885 336 q 935 365 922 352 q 957 396 949 378 q 964 432 964 414 q 957 467 964 451 q 936 495 949 484 q 904 513 922 507 q 865 520 886 520 q 825 513 842 520 q 794 494 807 507 q 775 466 782 482 q 768 432 768 450 z "},"⅝":{"ha":1147,"x_min":62,"x_max":1061,"o":"m 404 574 q 388 493 404 529 q 344 432 372 457 q 276 394 315 407 q 190 380 237 380 q 62 410 112 380 l 62 488 q 131 457 99 467 q 191 448 163 448 q 248 456 222 448 q 291 481 273 465 q 318 520 309 498 q 328 570 328 543 q 181 680 328 680 q 153 679 169 680 q 121 678 137 679 q 90 676 104 677 q 67 673 76 675 l 94 974 l 377 974 l 377 903 l 154 903 l 140 746 q 168 748 152 747 q 195 748 184 748 q 281 736 243 748 q 347 703 319 725 q 389 648 374 681 q 404 574 404 616 m 301 0 l 219 0 l 802 972 l 884 972 l 301 0 m 670 165 q 693 245 670 208 q 764 306 717 282 q 735 330 749 317 q 711 360 722 344 q 695 395 701 376 q 689 436 689 414 q 702 502 689 473 q 739 550 715 530 q 794 580 762 570 q 865 591 827 591 q 936 579 903 591 q 993 547 969 568 q 1030 498 1017 527 q 1044 436 1044 470 q 1022 360 1044 393 q 968 306 1001 328 q 1038 245 1015 282 q 1061 165 1061 208 q 1047 90 1061 123 q 1008 34 1034 57 q 946 -1 982 11 q 865 -13 909 -13 q 786 -2 822 -13 q 725 32 751 9 q 684 87 699 54 q 670 165 670 121 m 747 162 q 755 118 747 138 q 779 84 764 98 q 816 62 794 70 q 863 55 838 55 q 912 62 890 55 q 950 84 935 70 q 975 118 966 98 q 983 162 983 138 q 975 203 983 184 q 951 236 966 222 q 913 258 935 250 q 863 266 891 266 q 817 258 838 266 q 780 237 795 251 q 755 205 764 224 q 747 162 747 186 m 768 432 q 776 396 768 413 q 796 365 783 378 q 827 344 809 352 q 865 336 844 336 q 903 344 885 336 q 935 365 922 352 q 957 396 949 378 q 964 432 964 414 q 957 467 964 451 q 936 495 949 484 q 904 513 922 507 q 865 520 886 520 q 825 513 842 520 q 794 494 807 507 q 775 466 782 482 q 768 432 768 450 z "},"⅞":{"ha":1100,"x_min":35,"x_max":1014,"o":"m 113 392 q 151 522 130 457 q 197 651 171 586 q 257 780 223 715 q 334 908 290 844 l 35 908 l 35 976 l 425 976 l 425 939 q 278 668 336 804 q 192 392 220 532 l 113 392 m 233 0 l 151 0 l 734 972 l 816 972 l 233 0 m 623 165 q 646 245 623 208 q 716 306 669 282 q 688 330 701 317 q 664 360 674 344 q 648 395 654 376 q 642 436 642 414 q 655 502 642 473 q 691 550 668 530 q 747 580 715 570 q 817 591 779 591 q 889 579 856 591 q 946 547 922 568 q 983 498 970 527 q 996 436 996 470 q 975 360 996 393 q 921 306 954 328 q 991 245 968 282 q 1014 165 1014 208 q 1000 90 1014 123 q 960 34 986 57 q 898 -1 935 11 q 817 -13 862 -13 q 739 -2 774 -13 q 677 32 703 9 q 637 87 651 54 q 623 165 623 121 m 699 162 q 708 118 699 138 q 731 84 716 98 q 768 62 747 70 q 816 55 790 55 q 865 62 842 55 q 903 84 887 70 q 927 118 918 98 q 936 162 936 138 q 927 203 936 184 q 903 236 919 222 q 866 258 888 250 q 816 266 844 266 q 769 258 791 266 q 732 237 748 251 q 708 205 717 224 q 699 162 699 186 m 721 432 q 728 396 721 413 q 749 365 736 378 q 779 344 762 352 q 817 336 797 336 q 856 344 838 336 q 888 365 874 352 q 909 396 901 378 q 917 432 917 414 q 909 467 917 451 q 888 495 901 484 q 857 513 875 507 q 817 520 838 520 q 777 513 795 520 q 747 494 760 507 q 728 466 734 482 q 721 432 721 450 z "},";":{"ha":304,"x_min":29,"x_max":222,"o":"m 157 578 q 110 597 128 578 q 92 644 92 616 q 110 690 92 671 q 157 708 129 708 q 203 689 184 708 q 222 644 222 671 q 216 617 222 629 q 202 597 211 606 q 181 583 193 588 q 157 578 170 578 m 95 -174 l 29 -174 l 119 154 l 208 154 l 95 -174 z "},"΄":{"ha":378,"x_min":125,"x_max":283,"o":"m 174 800 l 125 800 l 191 1048 l 283 1048 l 174 800 z "},"΅":{"ha":386,"x_min":-13,"x_max":415,"o":"m 415 894 q 398 853 415 869 q 357 836 381 836 q 336 840 346 836 q 317 852 326 844 q 304 870 309 860 q 300 894 300 881 q 304 917 300 907 q 317 935 309 928 q 335 947 325 943 q 355 951 345 951 q 397 935 380 951 q 415 894 415 918 m 193 806 l 145 806 l 210 1055 l 302 1055 l 193 806 m 103 894 q 86 853 103 869 q 44 836 69 836 q 23 840 33 836 q 5 852 13 844 q -8 870 -3 860 q -13 894 -13 881 q -8 917 -13 907 q 4 935 -3 928 q 22 947 12 943 q 43 951 33 951 q 66 946 56 951 q 85 935 77 942 q 98 917 94 927 q 103 894 103 906 z "},"Ά":{"ha":884,"x_min":27,"x_max":857,"o":"m 756 0 l 649 288 l 232 288 l 127 0 l 27 0 l 397 972 l 488 972 l 857 0 l 756 0 m 460 802 q 450 832 455 815 q 441 871 445 849 l 439 871 q 430 832 435 849 q 420 802 425 815 l 262 370 l 618 370 l 460 802 m 109 725 l 60 725 l 125 973 l 218 973 l 109 725 z "},"Έ":{"ha":778,"x_min":-31,"x_max":701,"o":"m 205 0 l 205 972 l 679 972 l 679 890 l 295 890 l 295 533 l 650 533 l 650 452 l 295 452 l 295 82 l 701 82 l 701 0 l 205 0 m 18 725 l -31 725 l 34 973 l 126 973 l 18 725 z "},"Ή":{"ha":1042,"x_min":-31,"x_max":916,"o":"m 825 0 l 825 455 l 295 455 l 295 0 l 205 0 l 205 972 l 295 972 l 295 536 l 825 536 l 825 972 l 916 972 l 916 0 l 825 0 m 18 725 l -31 725 l 34 973 l 126 973 l 18 725 z "},"Ί":{"ha":479,"x_min":-31,"x_max":354,"o":"m 354 0 l 264 0 l 264 972 l 354 972 l 354 0 m 18 725 l -31 725 l 35 973 l 127 973 l 18 725 z "},"Ό":{"ha":1119,"x_min":-14,"x_max":1053,"o":"m 591 -17 q 402 21 486 -17 q 259 126 318 60 q 169 282 201 193 q 138 475 138 372 q 169 684 138 589 q 261 846 201 779 q 409 951 321 913 q 608 989 496 989 q 793 952 711 989 q 933 849 876 915 q 1022 694 991 784 q 1053 500 1053 605 q 1022 295 1053 389 q 933 131 992 200 q 789 22 875 62 q 591 -17 703 -17 m 599 907 q 443 873 511 907 q 328 782 374 840 q 257 648 281 725 q 232 484 233 571 q 253 326 231 401 q 320 192 275 250 q 432 100 364 134 q 591 65 500 65 q 750 97 682 65 q 865 184 819 128 q 935 317 911 240 q 958 486 958 395 q 938 648 958 572 q 873 782 917 725 q 762 873 829 840 q 599 907 694 907 m 35 725 l -14 725 l 52 973 l 144 973 l 35 725 z "},"Ύ":{"ha":873,"x_min":-58,"x_max":852,"o":"m 535 364 l 535 0 l 445 0 l 445 362 l 140 972 l 242 972 l 465 518 q 475 494 469 510 q 492 452 482 477 l 494 452 q 505 481 498 465 q 524 517 513 497 l 756 972 l 852 972 l 535 364 m -9 725 l -58 725 l 7 973 l 99 973 l -9 725 z "},"Ώ":{"ha":1133,"x_min":-13,"x_max":1067,"o":"m 729 0 l 729 80 q 821 160 777 116 q 899 260 865 205 q 953 381 933 315 q 973 527 973 448 q 947 686 973 616 q 873 806 920 757 q 760 882 825 855 q 616 908 694 908 q 466 881 534 908 q 350 804 398 854 q 275 684 302 754 q 248 528 248 614 q 267 386 248 451 q 319 265 286 320 q 397 164 353 210 q 494 80 442 118 l 494 0 l 155 0 l 155 80 l 393 80 q 302 158 345 113 q 226 258 259 202 q 174 382 193 314 q 155 530 155 450 q 188 721 155 636 q 282 865 222 806 q 426 957 342 925 q 610 989 509 989 q 795 958 711 989 q 939 869 879 928 q 1033 726 1000 810 q 1067 532 1067 641 q 1049 390 1067 456 q 999 267 1031 323 q 924 163 967 210 q 829 81 880 117 l 1067 81 l 1067 0 l 729 0 m 36 725 l -13 725 l 52 973 l 144 973 l 36 725 z "},"ΐ":{"ha":361,"x_min":-39,"x_max":389,"o":"m 331 4 q 296 -5 313 -2 q 262 -8 278 -8 q 148 39 184 -8 q 112 172 112 85 l 112 694 l 198 694 l 198 174 q 205 123 198 143 q 223 91 212 102 q 248 74 234 79 q 276 69 262 69 q 305 72 292 69 q 331 79 318 74 l 331 4 l 331 4 m 389 894 q 372 853 389 869 q 330 836 355 836 q 309 840 319 836 q 291 852 299 844 q 278 870 283 860 q 273 894 273 881 q 278 917 273 907 q 291 935 283 928 q 309 947 298 943 q 329 951 319 951 q 371 935 353 951 q 389 894 389 918 m 167 806 l 119 806 l 184 1055 l 275 1055 l 167 806 m 77 894 q 60 853 77 869 q 18 836 43 836 q -3 840 7 836 q -22 852 -14 844 q -35 870 -30 860 q -39 894 -39 881 q -35 917 -39 907 q -22 935 -30 928 q -4 947 -14 943 q 17 951 6 951 q 40 946 29 951 q 59 935 51 942 q 72 917 67 927 q 77 894 77 906 z "},"Α":{"ha":884,"x_min":27,"x_max":857,"o":"m 756 0 l 649 288 l 232 288 l 127 0 l 27 0 l 397 972 l 488 972 l 857 0 l 756 0 m 460 802 q 450 832 455 815 q 441 871 445 849 l 439 871 q 430 832 435 849 q 420 802 425 815 l 262 370 l 618 370 l 460 802 z "},"Β":{"ha":776,"x_min":126,"x_max":702,"o":"m 126 0 l 126 972 l 392 972 q 501 956 452 972 q 584 910 549 940 q 636 840 618 881 q 654 749 654 798 q 643 670 654 707 q 610 603 631 633 q 556 551 588 573 q 485 516 525 529 l 485 513 q 574 490 534 509 q 642 440 614 471 q 686 369 671 410 q 702 279 702 328 q 680 166 702 217 q 617 78 657 115 q 521 20 576 41 q 398 0 465 0 l 126 0 m 216 890 l 216 545 l 342 545 q 432 557 392 545 q 500 595 472 570 q 544 654 529 619 q 559 732 559 688 q 363 890 559 890 l 216 890 m 216 463 l 216 82 l 384 82 q 550 133 492 82 q 608 276 608 183 q 353 463 608 463 l 216 463 z "},"Ε":{"ha":699,"x_min":126,"x_max":622,"o":"m 126 0 l 126 972 l 600 972 l 600 890 l 216 890 l 216 533 l 572 533 l 572 452 l 216 452 l 216 82 l 622 82 l 622 0 l 126 0 z "},"Ζ":{"ha":791,"x_min":33,"x_max":749,"o":"m 169 82 l 738 82 l 738 0 l 33 0 l 33 26 l 610 890 l 79 890 l 79 972 l 749 972 l 749 949 l 169 82 z "},"Η":{"ha":963,"x_min":126,"x_max":837,"o":"m 747 0 l 747 455 l 216 455 l 216 0 l 126 0 l 126 972 l 216 972 l 216 536 l 747 536 l 747 972 l 837 972 l 837 0 l 747 0 z "},"Ι":{"ha":343,"x_min":126,"x_max":216,"o":"m 216 0 l 126 0 l 126 972 l 216 972 l 216 0 z "},"Κ":{"ha":768,"x_min":126,"x_max":762,"o":"m 635 0 l 240 455 q 219 483 224 475 l 216 483 l 216 0 l 126 0 l 126 972 l 216 972 l 216 515 l 219 515 q 229 529 224 522 q 241 543 235 536 l 619 972 l 734 972 l 312 503 l 762 0 l 635 0 z "},"Λ":{"ha":873,"x_min":28,"x_max":845,"o":"m 744 0 l 458 797 q 446 835 450 817 q 437 873 441 853 l 434 873 q 413 797 427 836 l 126 0 l 28 0 l 390 972 l 486 972 l 845 0 l 744 0 z "},"Μ":{"ha":1202,"x_min":126,"x_max":1076,"o":"m 987 0 l 987 671 q 995 838 987 723 l 992 838 q 975 785 983 807 q 960 748 967 762 l 621 0 l 583 0 l 243 743 q 212 839 228 777 l 210 839 q 213 768 212 808 q 214 679 214 728 l 214 0 l 126 0 l 126 972 l 233 972 l 563 241 q 583 194 573 218 q 601 143 593 170 l 605 143 q 622 193 614 170 q 642 241 630 215 l 975 972 l 1076 972 l 1076 0 l 987 0 z "},"Ν":{"ha":1012,"x_min":126,"x_max":886,"o":"m 792 0 l 252 781 q 232 811 242 795 q 216 842 222 827 l 213 842 q 215 808 214 829 q 216 753 216 786 l 216 0 l 126 0 l 126 972 l 226 972 l 757 201 q 779 167 769 183 q 797 138 789 151 l 800 138 q 796 188 798 160 q 795 250 795 216 l 795 972 l 886 972 l 886 0 l 792 0 z "},"Ξ":{"ha":708,"x_min":43,"x_max":666,"o":"m 61 890 l 61 972 l 647 972 l 647 890 l 61 890 m 157 450 l 157 531 l 551 531 l 551 450 l 157 450 m 43 0 l 43 85 l 666 85 l 666 0 l 43 0 z "},"Ο":{"ha":1052,"x_min":68,"x_max":983,"o":"m 522 -17 q 333 21 417 -17 q 190 126 249 60 q 100 282 132 193 q 68 475 68 372 q 100 684 68 589 q 192 846 132 779 q 340 951 252 913 q 539 989 427 989 q 724 952 642 989 q 864 849 806 915 q 952 694 922 784 q 983 500 983 605 q 953 295 983 389 q 864 131 923 200 q 720 22 806 62 q 522 -17 634 -17 m 530 907 q 373 873 441 907 q 258 782 305 840 q 188 648 212 725 q 163 484 163 571 q 184 326 162 401 q 251 192 206 250 q 363 100 295 134 q 522 65 431 65 q 681 97 612 65 q 796 184 750 128 q 866 317 842 240 q 889 486 889 395 q 868 648 889 572 q 804 782 848 725 q 692 873 760 840 q 530 907 625 907 z "},"Π":{"ha":977,"x_min":126,"x_max":850,"o":"m 760 0 l 760 888 l 217 888 l 217 0 l 126 0 l 126 972 l 850 972 l 850 0 l 760 0 z "},"Ρ":{"ha":766,"x_min":126,"x_max":695,"o":"m 216 378 l 216 0 l 126 0 l 126 972 l 377 972 q 513 954 454 972 q 612 899 572 935 q 674 810 653 863 q 695 691 695 758 q 671 566 695 623 q 603 467 648 509 q 495 402 559 425 q 351 378 431 378 l 216 378 m 216 890 l 216 461 l 345 461 q 536 519 471 461 q 601 684 601 578 q 361 890 601 890 l 216 890 z "},"Σ":{"ha":717,"x_min":22,"x_max":680,"o":"m 22 0 l 22 38 l 363 501 l 63 926 l 63 972 l 644 972 l 644 890 l 197 890 l 472 504 l 161 82 l 680 82 l 680 0 l 22 0 z "},"Τ":{"ha":719,"x_min":34,"x_max":685,"o":"m 404 890 l 404 0 l 314 0 l 314 890 l 34 890 l 34 972 l 685 972 l 685 890 l 404 890 z "},"Υ":{"ha":759,"x_min":23,"x_max":736,"o":"m 418 364 l 418 0 l 328 0 l 328 362 l 23 972 l 125 972 l 348 518 q 359 494 352 510 q 375 452 366 477 l 377 452 q 389 481 381 465 q 407 517 396 497 l 640 972 l 736 972 l 418 364 z "},"Χ":{"ha":800,"x_min":29,"x_max":766,"o":"m 656 0 l 432 372 q 416 400 425 385 q 403 429 408 415 l 399 429 q 386 401 393 416 q 369 372 378 387 l 140 0 l 29 0 l 346 490 l 52 972 l 161 972 l 370 618 q 388 586 379 603 q 405 552 396 570 l 408 552 q 426 589 417 572 q 444 620 435 606 l 656 972 l 760 972 l 462 491 l 766 0 l 656 0 z "},"Ψ":{"ha":1078,"x_min":94,"x_max":984,"o":"m 582 352 l 632 352 q 826 418 757 352 q 895 618 895 485 l 895 972 l 984 972 l 984 616 q 960 481 984 544 q 891 371 937 418 q 781 298 846 325 q 632 271 715 271 l 582 271 l 582 0 l 496 0 l 496 271 l 445 271 q 295 298 361 271 q 185 372 230 325 q 117 481 140 418 q 94 616 94 544 l 94 972 l 182 972 l 182 618 q 199 507 182 556 q 248 423 215 457 q 330 370 281 389 q 445 352 379 352 l 496 352 l 496 972 l 582 972 l 582 352 z "},"Ω":{"ha":1048,"x_min":68,"x_max":981,"o":"m 643 0 l 643 80 q 735 160 691 116 q 813 260 779 205 q 867 381 847 315 q 887 527 887 448 q 861 686 887 616 q 787 806 834 757 q 674 882 739 855 q 530 908 608 908 q 380 881 448 908 q 264 804 312 854 q 189 684 216 754 q 162 528 162 614 q 181 386 162 451 q 233 265 200 320 q 311 164 267 210 q 408 80 356 118 l 408 0 l 69 0 l 69 80 l 307 80 q 216 158 259 113 q 140 258 173 202 q 88 382 107 314 q 68 530 68 450 q 102 721 68 636 q 196 865 136 806 q 339 957 256 925 q 524 989 423 989 q 709 958 625 989 q 853 869 793 928 q 947 726 913 810 q 981 532 981 641 q 963 390 981 456 q 913 267 945 323 q 838 163 881 210 q 743 81 794 117 l 981 81 l 981 0 l 643 0 z "},"Ϊ":{"ha":343,"x_min":-7,"x_max":353,"o":"m 216 0 l 126 0 l 126 972 l 216 972 l 216 0 m 294 1052 q 255 1068 272 1052 q 237 1109 237 1084 q 254 1151 237 1135 q 293 1166 271 1166 q 335 1150 317 1166 q 353 1109 353 1134 q 336 1068 353 1085 q 294 1052 319 1052 m 52 1052 q 29 1056 39 1052 q 10 1068 18 1061 q -3 1087 2 1076 q -7 1109 -7 1097 q 9 1151 -7 1135 q 50 1166 26 1166 q 73 1162 62 1166 q 92 1150 83 1158 q 104 1132 100 1143 q 109 1109 109 1122 q 92 1068 109 1085 q 52 1052 75 1052 z "},"Ϋ":{"ha":759,"x_min":23,"x_max":736,"o":"m 418 364 l 418 0 l 328 0 l 328 362 l 23 972 l 125 972 l 348 518 q 359 494 352 510 q 375 452 366 477 l 377 452 q 389 481 381 465 q 407 517 396 497 l 640 972 l 736 972 l 418 364 m 499 1052 q 459 1068 477 1052 q 442 1109 442 1084 q 459 1151 442 1135 q 498 1166 475 1166 q 540 1150 522 1166 q 557 1109 557 1134 q 541 1068 557 1085 q 499 1052 524 1052 m 256 1052 q 234 1056 244 1052 q 215 1068 223 1061 q 202 1087 207 1076 q 197 1109 197 1097 q 214 1151 197 1135 q 254 1166 231 1166 q 277 1162 267 1166 q 296 1150 288 1158 q 309 1132 304 1143 q 314 1109 314 1122 q 297 1068 314 1085 q 256 1052 280 1052 z "},"ά":{"ha":841,"x_min":61,"x_max":817,"o":"m 595 347 q 561 464 580 410 q 516 555 542 517 q 456 615 490 593 q 376 636 422 636 q 282 613 324 636 q 211 549 240 590 q 166 452 182 508 q 151 329 151 395 q 164 220 151 269 q 204 135 178 170 q 266 80 229 100 q 347 60 302 60 q 471 115 417 60 q 565 267 524 170 l 595 347 m 756 -7 q 712 7 731 -7 q 676 48 692 20 q 647 119 661 76 q 622 219 634 161 l 619 219 q 562 114 592 158 q 496 40 531 69 q 420 -2 460 12 q 332 -16 379 -16 q 221 9 271 -16 q 135 79 171 34 q 80 186 100 123 q 61 323 61 248 q 82 479 61 408 q 144 602 104 551 q 242 682 184 653 q 375 711 301 711 q 469 692 428 711 q 542 640 511 673 q 596 565 574 608 q 635 473 618 522 l 637 473 l 711 694 l 805 694 l 671 348 q 704 206 690 260 q 730 122 718 152 q 756 83 743 93 q 785 74 769 74 q 802 75 794 74 q 817 79 810 77 l 817 2 q 789 -4 802 -2 q 756 -7 777 -7 m 402 800 l 353 800 l 418 1048 l 511 1048 l 402 800 z "},"έ":{"ha":608,"x_min":56,"x_max":561,"o":"m 561 17 q 515 3 541 9 q 461 -7 490 -3 q 401 -15 432 -12 q 341 -17 371 -17 q 217 -2 271 -17 q 127 40 163 14 q 74 104 92 67 q 56 186 56 142 q 69 251 56 222 q 106 303 83 281 q 162 340 130 326 q 231 361 195 355 l 231 364 q 176 383 203 370 q 129 417 149 397 q 95 464 108 437 q 82 520 82 490 q 103 606 82 570 q 160 666 124 642 q 244 700 196 689 q 345 711 292 711 q 394 709 369 711 q 443 702 418 706 q 489 691 467 697 q 530 679 511 686 l 530 591 q 438 623 488 611 q 341 635 388 635 q 213 606 254 635 q 171 520 171 577 q 191 462 171 486 q 242 424 210 438 q 312 402 273 409 q 389 396 351 396 q 432 396 409 396 q 469 398 455 397 l 469 319 q 431 320 456 320 q 374 321 406 321 q 202 288 260 321 q 144 187 144 256 q 157 136 144 159 q 195 95 170 113 q 260 68 221 78 q 351 58 299 58 q 461 72 406 58 q 561 106 516 85 l 561 17 l 561 17 m 336 800 l 288 800 l 353 1048 l 445 1048 l 336 800 z "},"ή":{"ha":764,"x_min":90,"x_max":667,"o":"m 580 -281 l 580 392 q 570 495 580 450 q 540 569 561 539 q 486 615 519 600 q 407 631 453 631 q 320 612 359 631 q 254 561 281 593 q 213 488 227 529 q 198 402 198 446 l 198 0 l 112 0 l 112 477 q 111 538 112 507 q 106 596 109 568 q 100 650 104 625 q 90 694 96 675 l 178 694 q 191 637 186 672 q 195 570 195 603 l 198 570 q 246 638 219 611 q 304 682 273 665 q 367 704 334 698 q 433 711 400 711 q 609 638 550 711 q 667 428 667 566 l 667 -281 l 580 -281 m 394 800 l 345 800 l 410 1048 l 503 1048 l 394 800 z "},"ί":{"ha":361,"x_min":112,"x_max":331,"o":"m 331 4 q 296 -5 313 -2 q 262 -8 278 -8 q 148 39 184 -8 q 112 172 112 85 l 112 694 l 198 694 l 198 174 q 205 123 198 143 q 223 91 212 102 q 248 74 234 79 q 276 69 262 69 q 305 72 292 69 q 331 79 318 74 l 331 4 l 331 4 m 162 800 l 113 800 l 178 1048 l 271 1048 l 162 800 z "}}}
